M48
; DRILL file {KiCad (5.1.4)-1} date 3/9/2020 9:22:22 PM
; FORMAT={-:-/ absolute / inch / decimal}
; #@! TF.CreationDate,2020-03-09T21:22:22-05:00
; #@! TF.GenerationSoftware,Kicad,Pcbnew,(5.1.4)-1
; #@! TF.FileFunction,Plated,1,2,PTH
FMAT,2
INCH
T1C0.0394
T2C0.0394
T3C0.0402
%
G90
G05
T1
X4.7781Y-3.1589
X4.7781Y-3.2589
X4.8781Y-3.1589
X4.8781Y-3.2589
X4.9781Y-3.1589
X4.9781Y-3.2589
X5.0781Y-3.1589
X5.0781Y-3.2589
X5.1781Y-3.1589
X5.1781Y-3.2589
X5.2781Y-3.1589
X5.2781Y-3.2589
X5.3781Y-3.1589
X5.3781Y-3.2589
X5.4781Y-3.1589
X5.4781Y-3.2589
X5.5781Y-3.1589
X5.5781Y-3.2589
X5.6781Y-3.1589
X5.6781Y-3.2589
X5.7781Y-3.1589
X5.7781Y-3.2589
X5.8781Y-3.1589
X5.8781Y-3.2589
X5.9781Y-3.1589
X5.9781Y-3.2589
X6.0781Y-3.1589
X6.0781Y-3.2589
X6.1781Y-3.1589
X6.1781Y-3.2589
X6.2781Y-3.1589
X6.2781Y-3.2589
X6.3781Y-3.1589
X6.3781Y-3.2589
X6.4781Y-3.1589
X6.4781Y-3.2589
X6.5781Y-3.1589
X6.5781Y-3.2589
X6.6781Y-3.1589
X6.6781Y-3.2589
X5.9837Y-2.9547
X6.0837Y-2.2547
X6.0837Y-2.9547
X6.1837Y-2.2547
X6.1837Y-2.9547
X6.2837Y-2.2547
X6.2837Y-2.9547
X6.3837Y-2.2547
X6.3837Y-2.9547
X6.4837Y-2.9547
T2
X5.984Y-3.518
X6.084Y-3.518
X6.184Y-3.518
X6.284Y-3.518
X6.384Y-3.518
X6.484Y-3.518
X6.584Y-3.518
X6.684Y-3.518
T3
X4.8268Y-3.4752
X4.8268Y-4.8752
X4.9268Y-3.4752
X4.9268Y-4.8752
X5.0268Y-3.4752
X5.0268Y-4.8752
X5.1268Y-3.4752
X5.1268Y-4.8752
X5.2268Y-3.4752
X5.2268Y-4.8752
X5.3268Y-3.4752
X5.3268Y-4.8752
X5.4268Y-3.4752
X5.4268Y-4.8752
X5.5268Y-3.4752
X5.5268Y-4.8752
X5.6268Y-3.4752
X5.7268Y-3.4752
T0
M30
