G04 #@! TF.GenerationSoftware,KiCad,Pcbnew,(5.1.4)-1*
G04 #@! TF.CreationDate,2020-03-09T21:22:14-05:00*
G04 #@! TF.ProjectId,BigBrother,42696742-726f-4746-9865-722e6b696361,rev?*
G04 #@! TF.SameCoordinates,Original*
G04 #@! TF.FileFunction,Legend,Bot*
G04 #@! TF.FilePolarity,Positive*
%FSLAX46Y46*%
G04 Gerber Fmt 4.6, Leading zero omitted, Abs format (unit mm)*
G04 Created by KiCad (PCBNEW (5.1.4)-1) date 2020-03-09 21:22:14*
%MOMM*%
%LPD*%
G04 APERTURE LIST*
%ADD10C,0.381000*%
%ADD11C,0.120000*%
%ADD12C,0.150000*%
G04 APERTURE END LIST*
D10*
X152628600Y-86817200D02*
G75*
G03X150088600Y-89357200I0J-2540000D01*
G01*
X169138600Y-86817200D02*
X152628600Y-86817200D01*
X171678600Y-89357200D02*
G75*
G03X169138600Y-86817200I-2540000J0D01*
G01*
X171678600Y-89357200D02*
X171678600Y-100787200D01*
X169138600Y-103327200D02*
G75*
G03X171678600Y-100787200I0J2540000D01*
G01*
X169138600Y-103327200D02*
X152628600Y-103327200D01*
X150088600Y-100787200D02*
G75*
G03X152628600Y-103327200I2540000J0D01*
G01*
X150088600Y-89357200D02*
X150088600Y-100787200D01*
D11*
X148000000Y-125100000D02*
X148000000Y-88270000D01*
X120060000Y-125100000D02*
X148000000Y-125100000D01*
X120060000Y-87000000D02*
X120060000Y-125100000D01*
X148000000Y-87000000D02*
X120060000Y-87000000D01*
X148000000Y-87000000D02*
X148000000Y-88270000D01*
D12*
X161645504Y-104684580D02*
X161645504Y-105494104D01*
X161597885Y-105589342D01*
X161550266Y-105636961D01*
X161455028Y-105684580D01*
X161264552Y-105684580D01*
X161169314Y-105636961D01*
X161121695Y-105589342D01*
X161074076Y-105494104D01*
X161074076Y-104684580D01*
X160645504Y-104779819D02*
X160597885Y-104732200D01*
X160502647Y-104684580D01*
X160264552Y-104684580D01*
X160169314Y-104732200D01*
X160121695Y-104779819D01*
X160074076Y-104875057D01*
X160074076Y-104970295D01*
X160121695Y-105113152D01*
X160693123Y-105684580D01*
X160074076Y-105684580D01*
X125901904Y-105502380D02*
X125901904Y-106311904D01*
X125854285Y-106407142D01*
X125806666Y-106454761D01*
X125711428Y-106502380D01*
X125520952Y-106502380D01*
X125425714Y-106454761D01*
X125378095Y-106407142D01*
X125330476Y-106311904D01*
X125330476Y-105502380D01*
X124949523Y-105502380D02*
X124330476Y-105502380D01*
X124663809Y-105883333D01*
X124520952Y-105883333D01*
X124425714Y-105930952D01*
X124378095Y-105978571D01*
X124330476Y-106073809D01*
X124330476Y-106311904D01*
X124378095Y-106407142D01*
X124425714Y-106454761D01*
X124520952Y-106502380D01*
X124806666Y-106502380D01*
X124901904Y-106454761D01*
X124949523Y-106407142D01*
X123174523Y-89939880D02*
X121904523Y-89939880D01*
X123174523Y-90544642D02*
X121904523Y-90544642D01*
X123174523Y-91270357D01*
X121904523Y-91270357D01*
X122811666Y-91814642D02*
X122811666Y-92419404D01*
X123174523Y-91693690D02*
X121904523Y-92117023D01*
X123174523Y-92540357D01*
X125049285Y-89939880D02*
X125049285Y-90363214D01*
X125714523Y-90544642D02*
X125714523Y-89939880D01*
X124444523Y-89939880D01*
X124444523Y-90544642D01*
X125714523Y-91088928D02*
X124444523Y-91088928D01*
X125714523Y-91814642D01*
X124444523Y-91814642D01*
X125351666Y-92358928D02*
X125351666Y-92963690D01*
X125714523Y-92237976D02*
X124444523Y-92661309D01*
X125714523Y-93084642D01*
X124384047Y-94415119D02*
X126016904Y-93326547D01*
X125714523Y-94838452D02*
X124444523Y-94838452D01*
X124444523Y-95140833D01*
X124505000Y-95322261D01*
X124625952Y-95443214D01*
X124746904Y-95503690D01*
X124988809Y-95564166D01*
X125170238Y-95564166D01*
X125412142Y-95503690D01*
X125533095Y-95443214D01*
X125654047Y-95322261D01*
X125714523Y-95140833D01*
X125714523Y-94838452D01*
X125714523Y-96108452D02*
X124444523Y-96108452D01*
X125351666Y-96652738D02*
X125351666Y-97257500D01*
X125714523Y-96531785D02*
X124444523Y-96955119D01*
X125714523Y-97378452D01*
X124505000Y-98467023D02*
X124444523Y-98346071D01*
X124444523Y-98164642D01*
X124505000Y-97983214D01*
X124625952Y-97862261D01*
X124746904Y-97801785D01*
X124988809Y-97741309D01*
X125170238Y-97741309D01*
X125412142Y-97801785D01*
X125533095Y-97862261D01*
X125654047Y-97983214D01*
X125714523Y-98164642D01*
X125714523Y-98285595D01*
X125654047Y-98467023D01*
X125593571Y-98527500D01*
X125170238Y-98527500D01*
X125170238Y-98285595D01*
X125351666Y-99011309D02*
X125351666Y-99616071D01*
X125714523Y-98890357D02*
X124444523Y-99313690D01*
X125714523Y-99737023D01*
X128254523Y-89939880D02*
X126984523Y-89939880D01*
X126984523Y-90423690D01*
X127045000Y-90544642D01*
X127105476Y-90605119D01*
X127226428Y-90665595D01*
X127407857Y-90665595D01*
X127528809Y-90605119D01*
X127589285Y-90544642D01*
X127649761Y-90423690D01*
X127649761Y-89939880D01*
X126984523Y-91088928D02*
X128254523Y-91391309D01*
X127347380Y-91633214D01*
X128254523Y-91875119D01*
X126984523Y-92177500D01*
X128254523Y-92661309D02*
X126984523Y-92661309D01*
X127891666Y-93084642D01*
X126984523Y-93507976D01*
X128254523Y-93507976D01*
X130673571Y-90665595D02*
X130734047Y-90605119D01*
X130794523Y-90423690D01*
X130794523Y-90302738D01*
X130734047Y-90121309D01*
X130613095Y-90000357D01*
X130492142Y-89939880D01*
X130250238Y-89879404D01*
X130068809Y-89879404D01*
X129826904Y-89939880D01*
X129705952Y-90000357D01*
X129585000Y-90121309D01*
X129524523Y-90302738D01*
X129524523Y-90423690D01*
X129585000Y-90605119D01*
X129645476Y-90665595D01*
X130734047Y-91149404D02*
X130794523Y-91330833D01*
X130794523Y-91633214D01*
X130734047Y-91754166D01*
X130673571Y-91814642D01*
X130552619Y-91875119D01*
X130431666Y-91875119D01*
X130310714Y-91814642D01*
X130250238Y-91754166D01*
X130189761Y-91633214D01*
X130129285Y-91391309D01*
X130068809Y-91270357D01*
X130008333Y-91209880D01*
X129887380Y-91149404D01*
X129766428Y-91149404D01*
X129645476Y-91209880D01*
X129585000Y-91270357D01*
X129524523Y-91391309D01*
X129524523Y-91693690D01*
X129585000Y-91875119D01*
X132669285Y-89939880D02*
X132669285Y-90363214D01*
X133334523Y-90544642D02*
X133334523Y-89939880D01*
X132064523Y-89939880D01*
X132064523Y-90544642D01*
X133334523Y-91088928D02*
X132064523Y-91088928D01*
X133334523Y-91814642D01*
X132064523Y-91814642D01*
X132669285Y-92842738D02*
X132729761Y-93024166D01*
X132790238Y-93084642D01*
X132911190Y-93145119D01*
X133092619Y-93145119D01*
X133213571Y-93084642D01*
X133274047Y-93024166D01*
X133334523Y-92903214D01*
X133334523Y-92419404D01*
X132064523Y-92419404D01*
X132064523Y-92842738D01*
X132125000Y-92963690D01*
X132185476Y-93024166D01*
X132306428Y-93084642D01*
X132427380Y-93084642D01*
X132548333Y-93024166D01*
X132608809Y-92963690D01*
X132669285Y-92842738D01*
X132669285Y-92419404D01*
X132004047Y-94596547D02*
X133636904Y-93507976D01*
X133334523Y-95019880D02*
X132064523Y-95019880D01*
X132064523Y-95322261D01*
X132125000Y-95503690D01*
X132245952Y-95624642D01*
X132366904Y-95685119D01*
X132608809Y-95745595D01*
X132790238Y-95745595D01*
X133032142Y-95685119D01*
X133153095Y-95624642D01*
X133274047Y-95503690D01*
X133334523Y-95322261D01*
X133334523Y-95019880D01*
X133334523Y-96289880D02*
X132064523Y-96289880D01*
X132971666Y-96834166D02*
X132971666Y-97438928D01*
X133334523Y-96713214D02*
X132064523Y-97136547D01*
X133334523Y-97559880D01*
X132125000Y-98648452D02*
X132064523Y-98527500D01*
X132064523Y-98346071D01*
X132125000Y-98164642D01*
X132245952Y-98043690D01*
X132366904Y-97983214D01*
X132608809Y-97922738D01*
X132790238Y-97922738D01*
X133032142Y-97983214D01*
X133153095Y-98043690D01*
X133274047Y-98164642D01*
X133334523Y-98346071D01*
X133334523Y-98467023D01*
X133274047Y-98648452D01*
X133213571Y-98708928D01*
X132790238Y-98708928D01*
X132790238Y-98467023D01*
X132669285Y-99676547D02*
X132729761Y-99857976D01*
X132790238Y-99918452D01*
X132911190Y-99978928D01*
X133092619Y-99978928D01*
X133213571Y-99918452D01*
X133274047Y-99857976D01*
X133334523Y-99737023D01*
X133334523Y-99253214D01*
X132064523Y-99253214D01*
X132064523Y-99676547D01*
X132125000Y-99797500D01*
X132185476Y-99857976D01*
X132306428Y-99918452D01*
X132427380Y-99918452D01*
X132548333Y-99857976D01*
X132608809Y-99797500D01*
X132669285Y-99676547D01*
X132669285Y-99253214D01*
X135874523Y-89939880D02*
X134604523Y-89939880D01*
X135874523Y-90544642D02*
X134604523Y-90544642D01*
X135874523Y-91270357D01*
X134604523Y-91270357D01*
X135209285Y-92298452D02*
X135269761Y-92479880D01*
X135330238Y-92540357D01*
X135451190Y-92600833D01*
X135632619Y-92600833D01*
X135753571Y-92540357D01*
X135814047Y-92479880D01*
X135874523Y-92358928D01*
X135874523Y-91875119D01*
X134604523Y-91875119D01*
X134604523Y-92298452D01*
X134665000Y-92419404D01*
X134725476Y-92479880D01*
X134846428Y-92540357D01*
X134967380Y-92540357D01*
X135088333Y-92479880D01*
X135148809Y-92419404D01*
X135209285Y-92298452D01*
X135209285Y-91875119D01*
X137144523Y-89758452D02*
X138414523Y-90181785D01*
X137144523Y-90605119D01*
X138414523Y-91028452D02*
X137144523Y-91028452D01*
X137144523Y-91330833D01*
X137205000Y-91512261D01*
X137325952Y-91633214D01*
X137446904Y-91693690D01*
X137688809Y-91754166D01*
X137870238Y-91754166D01*
X138112142Y-91693690D01*
X138233095Y-91633214D01*
X138354047Y-91512261D01*
X138414523Y-91330833D01*
X138414523Y-91028452D01*
X138414523Y-92298452D02*
X137144523Y-92298452D01*
X137144523Y-92600833D01*
X137205000Y-92782261D01*
X137325952Y-92903214D01*
X137446904Y-92963690D01*
X137688809Y-93024166D01*
X137870238Y-93024166D01*
X138112142Y-92963690D01*
X138233095Y-92903214D01*
X138354047Y-92782261D01*
X138414523Y-92600833D01*
X138414523Y-92298452D01*
X139745000Y-90605119D02*
X139684523Y-90484166D01*
X139684523Y-90302738D01*
X139745000Y-90121309D01*
X139865952Y-90000357D01*
X139986904Y-89939880D01*
X140228809Y-89879404D01*
X140410238Y-89879404D01*
X140652142Y-89939880D01*
X140773095Y-90000357D01*
X140894047Y-90121309D01*
X140954523Y-90302738D01*
X140954523Y-90423690D01*
X140894047Y-90605119D01*
X140833571Y-90665595D01*
X140410238Y-90665595D01*
X140410238Y-90423690D01*
X140954523Y-91209880D02*
X139684523Y-91209880D01*
X140954523Y-91935595D01*
X139684523Y-91935595D01*
X140954523Y-92540357D02*
X139684523Y-92540357D01*
X139684523Y-92842738D01*
X139745000Y-93024166D01*
X139865952Y-93145119D01*
X139986904Y-93205595D01*
X140228809Y-93266071D01*
X140410238Y-93266071D01*
X140652142Y-93205595D01*
X140773095Y-93145119D01*
X140894047Y-93024166D01*
X140954523Y-92842738D01*
X140954523Y-92540357D01*
X142224523Y-89758452D02*
X143494523Y-90181785D01*
X142224523Y-90605119D01*
X142224523Y-91270357D02*
X142224523Y-91512261D01*
X142285000Y-91633214D01*
X142405952Y-91754166D01*
X142647857Y-91814642D01*
X143071190Y-91814642D01*
X143313095Y-91754166D01*
X143434047Y-91633214D01*
X143494523Y-91512261D01*
X143494523Y-91270357D01*
X143434047Y-91149404D01*
X143313095Y-91028452D01*
X143071190Y-90967976D01*
X142647857Y-90967976D01*
X142405952Y-91028452D01*
X142285000Y-91149404D01*
X142224523Y-91270357D01*
X142224523Y-92358928D02*
X143252619Y-92358928D01*
X143373571Y-92419404D01*
X143434047Y-92479880D01*
X143494523Y-92600833D01*
X143494523Y-92842738D01*
X143434047Y-92963690D01*
X143373571Y-93024166D01*
X143252619Y-93084642D01*
X142224523Y-93084642D01*
X142224523Y-93507976D02*
X142224523Y-94233690D01*
X143494523Y-93870833D02*
X142224523Y-93870833D01*
X144825000Y-90605119D02*
X144764523Y-90484166D01*
X144764523Y-90302738D01*
X144825000Y-90121309D01*
X144945952Y-90000357D01*
X145066904Y-89939880D01*
X145308809Y-89879404D01*
X145490238Y-89879404D01*
X145732142Y-89939880D01*
X145853095Y-90000357D01*
X145974047Y-90121309D01*
X146034523Y-90302738D01*
X146034523Y-90423690D01*
X145974047Y-90605119D01*
X145913571Y-90665595D01*
X145490238Y-90665595D01*
X145490238Y-90423690D01*
X146034523Y-91209880D02*
X144764523Y-91209880D01*
X146034523Y-91935595D01*
X144764523Y-91935595D01*
X146034523Y-92540357D02*
X144764523Y-92540357D01*
X144764523Y-92842738D01*
X144825000Y-93024166D01*
X144945952Y-93145119D01*
X145066904Y-93205595D01*
X145308809Y-93266071D01*
X145490238Y-93266071D01*
X145732142Y-93205595D01*
X145853095Y-93145119D01*
X145974047Y-93024166D01*
X146034523Y-92842738D01*
X146034523Y-92540357D01*
X121904523Y-118289642D02*
X121904523Y-118531547D01*
X121965000Y-118652500D01*
X122085952Y-118773452D01*
X122327857Y-118833928D01*
X122751190Y-118833928D01*
X122993095Y-118773452D01*
X123114047Y-118652500D01*
X123174523Y-118531547D01*
X123174523Y-118289642D01*
X123114047Y-118168690D01*
X122993095Y-118047738D01*
X122751190Y-117987261D01*
X122327857Y-117987261D01*
X122085952Y-118047738D01*
X121965000Y-118168690D01*
X121904523Y-118289642D01*
X121904523Y-119378214D02*
X122932619Y-119378214D01*
X123053571Y-119438690D01*
X123114047Y-119499166D01*
X123174523Y-119620119D01*
X123174523Y-119862023D01*
X123114047Y-119982976D01*
X123053571Y-120043452D01*
X122932619Y-120103928D01*
X121904523Y-120103928D01*
X121904523Y-120527261D02*
X121904523Y-121252976D01*
X123174523Y-120890119D02*
X121904523Y-120890119D01*
X122811666Y-121615833D02*
X122811666Y-122220595D01*
X123174523Y-121494880D02*
X121904523Y-121918214D01*
X123174523Y-122341547D01*
X124444523Y-118289642D02*
X124444523Y-118531547D01*
X124505000Y-118652500D01*
X124625952Y-118773452D01*
X124867857Y-118833928D01*
X125291190Y-118833928D01*
X125533095Y-118773452D01*
X125654047Y-118652500D01*
X125714523Y-118531547D01*
X125714523Y-118289642D01*
X125654047Y-118168690D01*
X125533095Y-118047738D01*
X125291190Y-117987261D01*
X124867857Y-117987261D01*
X124625952Y-118047738D01*
X124505000Y-118168690D01*
X124444523Y-118289642D01*
X124444523Y-119378214D02*
X125472619Y-119378214D01*
X125593571Y-119438690D01*
X125654047Y-119499166D01*
X125714523Y-119620119D01*
X125714523Y-119862023D01*
X125654047Y-119982976D01*
X125593571Y-120043452D01*
X125472619Y-120103928D01*
X124444523Y-120103928D01*
X124444523Y-120527261D02*
X124444523Y-121252976D01*
X125714523Y-120890119D02*
X124444523Y-120890119D01*
X125351666Y-121615833D02*
X125351666Y-122220595D01*
X125714523Y-121494880D02*
X124444523Y-121918214D01*
X125714523Y-122341547D01*
X126984523Y-118108214D02*
X126984523Y-118350119D01*
X127045000Y-118471071D01*
X127165952Y-118592023D01*
X127407857Y-118652500D01*
X127831190Y-118652500D01*
X128073095Y-118592023D01*
X128194047Y-118471071D01*
X128254523Y-118350119D01*
X128254523Y-118108214D01*
X128194047Y-117987261D01*
X128073095Y-117866309D01*
X127831190Y-117805833D01*
X127407857Y-117805833D01*
X127165952Y-117866309D01*
X127045000Y-117987261D01*
X126984523Y-118108214D01*
X126984523Y-119196785D02*
X128012619Y-119196785D01*
X128133571Y-119257261D01*
X128194047Y-119317738D01*
X128254523Y-119438690D01*
X128254523Y-119680595D01*
X128194047Y-119801547D01*
X128133571Y-119862023D01*
X128012619Y-119922500D01*
X126984523Y-119922500D01*
X126984523Y-120345833D02*
X126984523Y-121071547D01*
X128254523Y-120708690D02*
X126984523Y-120708690D01*
X127589285Y-121918214D02*
X127649761Y-122099642D01*
X127710238Y-122160119D01*
X127831190Y-122220595D01*
X128012619Y-122220595D01*
X128133571Y-122160119D01*
X128194047Y-122099642D01*
X128254523Y-121978690D01*
X128254523Y-121494880D01*
X126984523Y-121494880D01*
X126984523Y-121918214D01*
X127045000Y-122039166D01*
X127105476Y-122099642D01*
X127226428Y-122160119D01*
X127347380Y-122160119D01*
X127468333Y-122099642D01*
X127528809Y-122039166D01*
X127589285Y-121918214D01*
X127589285Y-121494880D01*
X129524523Y-118108214D02*
X129524523Y-118350119D01*
X129585000Y-118471071D01*
X129705952Y-118592023D01*
X129947857Y-118652500D01*
X130371190Y-118652500D01*
X130613095Y-118592023D01*
X130734047Y-118471071D01*
X130794523Y-118350119D01*
X130794523Y-118108214D01*
X130734047Y-117987261D01*
X130613095Y-117866309D01*
X130371190Y-117805833D01*
X129947857Y-117805833D01*
X129705952Y-117866309D01*
X129585000Y-117987261D01*
X129524523Y-118108214D01*
X129524523Y-119196785D02*
X130552619Y-119196785D01*
X130673571Y-119257261D01*
X130734047Y-119317738D01*
X130794523Y-119438690D01*
X130794523Y-119680595D01*
X130734047Y-119801547D01*
X130673571Y-119862023D01*
X130552619Y-119922500D01*
X129524523Y-119922500D01*
X129524523Y-120345833D02*
X129524523Y-121071547D01*
X130794523Y-120708690D02*
X129524523Y-120708690D01*
X130129285Y-121918214D02*
X130189761Y-122099642D01*
X130250238Y-122160119D01*
X130371190Y-122220595D01*
X130552619Y-122220595D01*
X130673571Y-122160119D01*
X130734047Y-122099642D01*
X130794523Y-121978690D01*
X130794523Y-121494880D01*
X129524523Y-121494880D01*
X129524523Y-121918214D01*
X129585000Y-122039166D01*
X129645476Y-122099642D01*
X129766428Y-122160119D01*
X129887380Y-122160119D01*
X130008333Y-122099642D01*
X130068809Y-122039166D01*
X130129285Y-121918214D01*
X130129285Y-121494880D01*
X132125000Y-119559642D02*
X132064523Y-119438690D01*
X132064523Y-119257261D01*
X132125000Y-119075833D01*
X132245952Y-118954880D01*
X132366904Y-118894404D01*
X132608809Y-118833928D01*
X132790238Y-118833928D01*
X133032142Y-118894404D01*
X133153095Y-118954880D01*
X133274047Y-119075833D01*
X133334523Y-119257261D01*
X133334523Y-119378214D01*
X133274047Y-119559642D01*
X133213571Y-119620119D01*
X132790238Y-119620119D01*
X132790238Y-119378214D01*
X133334523Y-120164404D02*
X132064523Y-120164404D01*
X133334523Y-120890119D01*
X132064523Y-120890119D01*
X133334523Y-121494880D02*
X132064523Y-121494880D01*
X132064523Y-121797261D01*
X132125000Y-121978690D01*
X132245952Y-122099642D01*
X132366904Y-122160119D01*
X132608809Y-122220595D01*
X132790238Y-122220595D01*
X133032142Y-122160119D01*
X133153095Y-122099642D01*
X133274047Y-121978690D01*
X133334523Y-121797261D01*
X133334523Y-121494880D01*
X134665000Y-119559642D02*
X134604523Y-119438690D01*
X134604523Y-119257261D01*
X134665000Y-119075833D01*
X134785952Y-118954880D01*
X134906904Y-118894404D01*
X135148809Y-118833928D01*
X135330238Y-118833928D01*
X135572142Y-118894404D01*
X135693095Y-118954880D01*
X135814047Y-119075833D01*
X135874523Y-119257261D01*
X135874523Y-119378214D01*
X135814047Y-119559642D01*
X135753571Y-119620119D01*
X135330238Y-119620119D01*
X135330238Y-119378214D01*
X135874523Y-120164404D02*
X134604523Y-120164404D01*
X135874523Y-120890119D01*
X134604523Y-120890119D01*
X135874523Y-121494880D02*
X134604523Y-121494880D01*
X134604523Y-121797261D01*
X134665000Y-121978690D01*
X134785952Y-122099642D01*
X134906904Y-122160119D01*
X135148809Y-122220595D01*
X135330238Y-122220595D01*
X135572142Y-122160119D01*
X135693095Y-122099642D01*
X135814047Y-121978690D01*
X135874523Y-121797261D01*
X135874523Y-121494880D01*
X137144523Y-119559642D02*
X138414523Y-119982976D01*
X137144523Y-120406309D01*
X138414523Y-120829642D02*
X137144523Y-120829642D01*
X138414523Y-121434404D02*
X137144523Y-121434404D01*
X138414523Y-122160119D01*
X137144523Y-122160119D01*
X139684523Y-119559642D02*
X140954523Y-119982976D01*
X139684523Y-120406309D01*
X140954523Y-120829642D02*
X139684523Y-120829642D01*
X140954523Y-121434404D02*
X139684523Y-121434404D01*
X140954523Y-122160119D01*
X139684523Y-122160119D01*
M02*
