G04 #@! TF.GenerationSoftware,KiCad,Pcbnew,(5.1.4)-1*
G04 #@! TF.CreationDate,2020-03-08T13:48:27-05:00*
G04 #@! TF.ProjectId,BigBrother,42696742-726f-4746-9865-722e6b696361,rev?*
G04 #@! TF.SameCoordinates,Original*
G04 #@! TF.FileFunction,Copper,L1,Top*
G04 #@! TF.FilePolarity,Positive*
%FSLAX46Y46*%
G04 Gerber Fmt 4.6, Leading zero omitted, Abs format (unit mm)*
G04 Created by KiCad (PCBNEW (5.1.4)-1) date 2020-03-08 13:48:27*
%MOMM*%
%LPD*%
G04 APERTURE LIST*
%ADD10R,1.700000X1.700000*%
%ADD11O,1.700000X1.700000*%
%ADD12C,1.676400*%
%ADD13C,1.778000*%
%ADD14C,1.524000*%
%ADD15C,0.250000*%
%ADD16C,0.254000*%
G04 APERTURE END LIST*
D10*
X169625000Y-82775000D03*
D11*
X169625000Y-80235000D03*
X167085000Y-82775000D03*
X167085000Y-80235000D03*
X164545000Y-82775000D03*
X164545000Y-80235000D03*
X162005000Y-82775000D03*
X162005000Y-80235000D03*
X159465000Y-82775000D03*
X159465000Y-80235000D03*
X156925000Y-82775000D03*
X156925000Y-80235000D03*
X154385000Y-82775000D03*
X154385000Y-80235000D03*
X151845000Y-82775000D03*
X151845000Y-80235000D03*
X149305000Y-82775000D03*
X149305000Y-80235000D03*
X146765000Y-82775000D03*
X146765000Y-80235000D03*
X144225000Y-82775000D03*
X144225000Y-80235000D03*
X141685000Y-82775000D03*
X141685000Y-80235000D03*
X139145000Y-82775000D03*
X139145000Y-80235000D03*
X136605000Y-82775000D03*
X136605000Y-80235000D03*
X134065000Y-82775000D03*
X134065000Y-80235000D03*
X131525000Y-82775000D03*
X131525000Y-80235000D03*
X128985000Y-82775000D03*
X128985000Y-80235000D03*
X126445000Y-82775000D03*
X126445000Y-80235000D03*
X123905000Y-82775000D03*
X123905000Y-80235000D03*
X121365000Y-82775000D03*
X121365000Y-80235000D03*
D12*
X162145000Y-57270000D03*
X159605000Y-57270000D03*
X157065000Y-57270000D03*
X154525000Y-57270000D03*
X151985000Y-75050000D03*
X154525000Y-75050000D03*
X157065000Y-75050000D03*
X159605000Y-75050000D03*
X162145000Y-75050000D03*
X164685000Y-75050000D03*
D13*
X169773600Y-89357200D03*
X167233600Y-89357200D03*
X164693600Y-89357200D03*
X162153600Y-89357200D03*
X159613600Y-89357200D03*
X157073600Y-89357200D03*
X154533600Y-89357200D03*
X151993600Y-89357200D03*
D14*
X131394200Y-123901200D03*
X144094200Y-88341200D03*
X121234200Y-123901200D03*
X123774200Y-123901200D03*
X126314200Y-123901200D03*
X128854200Y-123901200D03*
X133934200Y-123901200D03*
X136474200Y-123901200D03*
X139014200Y-123901200D03*
X121234200Y-88341200D03*
X123774200Y-88341200D03*
X126314200Y-88341200D03*
X131394200Y-88341200D03*
X128854200Y-88341200D03*
X133934200Y-88341200D03*
X136474200Y-88341200D03*
X139014200Y-88341200D03*
X141554200Y-88341200D03*
D15*
X164693600Y-85166400D02*
X167085000Y-82775000D01*
X164693600Y-89357200D02*
X164693600Y-85166400D01*
X159613600Y-87706400D02*
X164545000Y-82775000D01*
X159613600Y-89357200D02*
X159613600Y-87706400D01*
X162005000Y-75190000D02*
X162145000Y-75050000D01*
X162005000Y-80235000D02*
X162005000Y-75190000D01*
X139014200Y-82905800D02*
X139145000Y-82775000D01*
X159465000Y-75190000D02*
X159605000Y-75050000D01*
X159465000Y-80235000D02*
X159465000Y-75190000D01*
X121996199Y-89103199D02*
X121234200Y-88341200D01*
X123660020Y-90767020D02*
X121996199Y-89103199D01*
X147029390Y-90767020D02*
X123660020Y-90767020D01*
X153846409Y-83950001D02*
X147029390Y-90767020D01*
X155749999Y-83950001D02*
X153846409Y-83950001D01*
X156925000Y-82775000D02*
X155749999Y-83950001D01*
X154385000Y-82775000D02*
X146842990Y-90317010D01*
X146842990Y-90317010D02*
X135910010Y-90317010D01*
X134696199Y-89103199D02*
X133934200Y-88341200D01*
X135910010Y-90317010D02*
X134696199Y-89103199D01*
X126314200Y-85445800D02*
X128985000Y-82775000D01*
X126314200Y-88341200D02*
X126314200Y-85445800D01*
D16*
G36*
X178315001Y-125315000D02*
G01*
X112685000Y-125315000D01*
X112685000Y-123763608D01*
X119837200Y-123763608D01*
X119837200Y-124038792D01*
X119890886Y-124308690D01*
X119996195Y-124562927D01*
X120149080Y-124791735D01*
X120343665Y-124986320D01*
X120572473Y-125139205D01*
X120826710Y-125244514D01*
X121096608Y-125298200D01*
X121371792Y-125298200D01*
X121641690Y-125244514D01*
X121895927Y-125139205D01*
X122124735Y-124986320D01*
X122319320Y-124791735D01*
X122472205Y-124562927D01*
X122504200Y-124485685D01*
X122536195Y-124562927D01*
X122689080Y-124791735D01*
X122883665Y-124986320D01*
X123112473Y-125139205D01*
X123366710Y-125244514D01*
X123636608Y-125298200D01*
X123911792Y-125298200D01*
X124181690Y-125244514D01*
X124435927Y-125139205D01*
X124664735Y-124986320D01*
X124859320Y-124791735D01*
X125012205Y-124562927D01*
X125044200Y-124485685D01*
X125076195Y-124562927D01*
X125229080Y-124791735D01*
X125423665Y-124986320D01*
X125652473Y-125139205D01*
X125906710Y-125244514D01*
X126176608Y-125298200D01*
X126451792Y-125298200D01*
X126721690Y-125244514D01*
X126975927Y-125139205D01*
X127204735Y-124986320D01*
X127399320Y-124791735D01*
X127552205Y-124562927D01*
X127584200Y-124485685D01*
X127616195Y-124562927D01*
X127769080Y-124791735D01*
X127963665Y-124986320D01*
X128192473Y-125139205D01*
X128446710Y-125244514D01*
X128716608Y-125298200D01*
X128991792Y-125298200D01*
X129261690Y-125244514D01*
X129515927Y-125139205D01*
X129744735Y-124986320D01*
X129939320Y-124791735D01*
X130092205Y-124562927D01*
X130124200Y-124485685D01*
X130156195Y-124562927D01*
X130309080Y-124791735D01*
X130503665Y-124986320D01*
X130732473Y-125139205D01*
X130986710Y-125244514D01*
X131256608Y-125298200D01*
X131531792Y-125298200D01*
X131801690Y-125244514D01*
X132055927Y-125139205D01*
X132284735Y-124986320D01*
X132479320Y-124791735D01*
X132632205Y-124562927D01*
X132664200Y-124485685D01*
X132696195Y-124562927D01*
X132849080Y-124791735D01*
X133043665Y-124986320D01*
X133272473Y-125139205D01*
X133526710Y-125244514D01*
X133796608Y-125298200D01*
X134071792Y-125298200D01*
X134341690Y-125244514D01*
X134595927Y-125139205D01*
X134824735Y-124986320D01*
X135019320Y-124791735D01*
X135172205Y-124562927D01*
X135204200Y-124485685D01*
X135236195Y-124562927D01*
X135389080Y-124791735D01*
X135583665Y-124986320D01*
X135812473Y-125139205D01*
X136066710Y-125244514D01*
X136336608Y-125298200D01*
X136611792Y-125298200D01*
X136881690Y-125244514D01*
X137135927Y-125139205D01*
X137364735Y-124986320D01*
X137559320Y-124791735D01*
X137712205Y-124562927D01*
X137744200Y-124485685D01*
X137776195Y-124562927D01*
X137929080Y-124791735D01*
X138123665Y-124986320D01*
X138352473Y-125139205D01*
X138606710Y-125244514D01*
X138876608Y-125298200D01*
X139151792Y-125298200D01*
X139421690Y-125244514D01*
X139675927Y-125139205D01*
X139904735Y-124986320D01*
X140099320Y-124791735D01*
X140252205Y-124562927D01*
X140357514Y-124308690D01*
X140411200Y-124038792D01*
X140411200Y-123763608D01*
X140357514Y-123493710D01*
X140252205Y-123239473D01*
X140099320Y-123010665D01*
X139904735Y-122816080D01*
X139675927Y-122663195D01*
X139421690Y-122557886D01*
X139151792Y-122504200D01*
X138876608Y-122504200D01*
X138606710Y-122557886D01*
X138352473Y-122663195D01*
X138123665Y-122816080D01*
X137929080Y-123010665D01*
X137776195Y-123239473D01*
X137744200Y-123316715D01*
X137712205Y-123239473D01*
X137559320Y-123010665D01*
X137364735Y-122816080D01*
X137135927Y-122663195D01*
X136881690Y-122557886D01*
X136611792Y-122504200D01*
X136336608Y-122504200D01*
X136066710Y-122557886D01*
X135812473Y-122663195D01*
X135583665Y-122816080D01*
X135389080Y-123010665D01*
X135236195Y-123239473D01*
X135204200Y-123316715D01*
X135172205Y-123239473D01*
X135019320Y-123010665D01*
X134824735Y-122816080D01*
X134595927Y-122663195D01*
X134341690Y-122557886D01*
X134071792Y-122504200D01*
X133796608Y-122504200D01*
X133526710Y-122557886D01*
X133272473Y-122663195D01*
X133043665Y-122816080D01*
X132849080Y-123010665D01*
X132696195Y-123239473D01*
X132664200Y-123316715D01*
X132632205Y-123239473D01*
X132479320Y-123010665D01*
X132284735Y-122816080D01*
X132055927Y-122663195D01*
X131801690Y-122557886D01*
X131531792Y-122504200D01*
X131256608Y-122504200D01*
X130986710Y-122557886D01*
X130732473Y-122663195D01*
X130503665Y-122816080D01*
X130309080Y-123010665D01*
X130156195Y-123239473D01*
X130124200Y-123316715D01*
X130092205Y-123239473D01*
X129939320Y-123010665D01*
X129744735Y-122816080D01*
X129515927Y-122663195D01*
X129261690Y-122557886D01*
X128991792Y-122504200D01*
X128716608Y-122504200D01*
X128446710Y-122557886D01*
X128192473Y-122663195D01*
X127963665Y-122816080D01*
X127769080Y-123010665D01*
X127616195Y-123239473D01*
X127584200Y-123316715D01*
X127552205Y-123239473D01*
X127399320Y-123010665D01*
X127204735Y-122816080D01*
X126975927Y-122663195D01*
X126721690Y-122557886D01*
X126451792Y-122504200D01*
X126176608Y-122504200D01*
X125906710Y-122557886D01*
X125652473Y-122663195D01*
X125423665Y-122816080D01*
X125229080Y-123010665D01*
X125076195Y-123239473D01*
X125044200Y-123316715D01*
X125012205Y-123239473D01*
X124859320Y-123010665D01*
X124664735Y-122816080D01*
X124435927Y-122663195D01*
X124181690Y-122557886D01*
X123911792Y-122504200D01*
X123636608Y-122504200D01*
X123366710Y-122557886D01*
X123112473Y-122663195D01*
X122883665Y-122816080D01*
X122689080Y-123010665D01*
X122536195Y-123239473D01*
X122504200Y-123316715D01*
X122472205Y-123239473D01*
X122319320Y-123010665D01*
X122124735Y-122816080D01*
X121895927Y-122663195D01*
X121641690Y-122557886D01*
X121371792Y-122504200D01*
X121096608Y-122504200D01*
X120826710Y-122557886D01*
X120572473Y-122663195D01*
X120343665Y-122816080D01*
X120149080Y-123010665D01*
X119996195Y-123239473D01*
X119890886Y-123493710D01*
X119837200Y-123763608D01*
X112685000Y-123763608D01*
X112685000Y-88203608D01*
X119837200Y-88203608D01*
X119837200Y-88478792D01*
X119890886Y-88748690D01*
X119996195Y-89002927D01*
X120149080Y-89231735D01*
X120343665Y-89426320D01*
X120572473Y-89579205D01*
X120826710Y-89684514D01*
X121096608Y-89738200D01*
X121371792Y-89738200D01*
X121525771Y-89707572D01*
X123096221Y-91278023D01*
X123120019Y-91307021D01*
X123235744Y-91401994D01*
X123367773Y-91472566D01*
X123511034Y-91516023D01*
X123622687Y-91527020D01*
X123622696Y-91527020D01*
X123660019Y-91530696D01*
X123697342Y-91527020D01*
X146992068Y-91527020D01*
X147029390Y-91530696D01*
X147066712Y-91527020D01*
X147066723Y-91527020D01*
X147178376Y-91516023D01*
X147321637Y-91472566D01*
X147453666Y-91401994D01*
X147569391Y-91307021D01*
X147593194Y-91278017D01*
X148457780Y-90413431D01*
X151116974Y-90413431D01*
X151199327Y-90666489D01*
X151470018Y-90796286D01*
X151760830Y-90870780D01*
X152060588Y-90887108D01*
X152357771Y-90844643D01*
X152640959Y-90745016D01*
X152787873Y-90666489D01*
X152870226Y-90413431D01*
X151993600Y-89536805D01*
X151116974Y-90413431D01*
X148457780Y-90413431D01*
X149447023Y-89424188D01*
X150463692Y-89424188D01*
X150506157Y-89721371D01*
X150605784Y-90004559D01*
X150684311Y-90151473D01*
X150937369Y-90233826D01*
X151813995Y-89357200D01*
X150937369Y-88480574D01*
X150684311Y-88562927D01*
X150554514Y-88833618D01*
X150480020Y-89124430D01*
X150463692Y-89424188D01*
X149447023Y-89424188D01*
X150570242Y-88300969D01*
X151116974Y-88300969D01*
X151993600Y-89177595D01*
X152870226Y-88300969D01*
X152787873Y-88047911D01*
X152517182Y-87918114D01*
X152226370Y-87843620D01*
X151926612Y-87827292D01*
X151629429Y-87869757D01*
X151346241Y-87969384D01*
X151199327Y-88047911D01*
X151116974Y-88300969D01*
X150570242Y-88300969D01*
X154161211Y-84710001D01*
X155712677Y-84710001D01*
X155749999Y-84713677D01*
X155787321Y-84710001D01*
X155787332Y-84710001D01*
X155898985Y-84699004D01*
X156042246Y-84655547D01*
X156174275Y-84584975D01*
X156290000Y-84490002D01*
X156313803Y-84460998D01*
X156559004Y-84215797D01*
X156633889Y-84238513D01*
X156852050Y-84260000D01*
X156997950Y-84260000D01*
X157216111Y-84238513D01*
X157496034Y-84153599D01*
X157754014Y-84015706D01*
X157980134Y-83830134D01*
X158165706Y-83604014D01*
X158195000Y-83549209D01*
X158224294Y-83604014D01*
X158409866Y-83830134D01*
X158635986Y-84015706D01*
X158893966Y-84153599D01*
X159173889Y-84238513D01*
X159392050Y-84260000D01*
X159537950Y-84260000D01*
X159756111Y-84238513D01*
X160036034Y-84153599D01*
X160294014Y-84015706D01*
X160520134Y-83830134D01*
X160705706Y-83604014D01*
X160735000Y-83549209D01*
X160764294Y-83604014D01*
X160949866Y-83830134D01*
X161175986Y-84015706D01*
X161433966Y-84153599D01*
X161713889Y-84238513D01*
X161932050Y-84260000D01*
X161985198Y-84260000D01*
X159102598Y-87142601D01*
X159073600Y-87166399D01*
X159049802Y-87195397D01*
X159049801Y-87195398D01*
X158978626Y-87282124D01*
X158908054Y-87414154D01*
X158896979Y-87450665D01*
X158865258Y-87555240D01*
X158864598Y-87557415D01*
X158849924Y-87706400D01*
X158853601Y-87743732D01*
X158853601Y-88032116D01*
X158642107Y-88173432D01*
X158429832Y-88385707D01*
X158343600Y-88514762D01*
X158257368Y-88385707D01*
X158045093Y-88173432D01*
X157795485Y-88006649D01*
X157518134Y-87891766D01*
X157223701Y-87833200D01*
X156923499Y-87833200D01*
X156629066Y-87891766D01*
X156351715Y-88006649D01*
X156102107Y-88173432D01*
X155889832Y-88385707D01*
X155803600Y-88514762D01*
X155717368Y-88385707D01*
X155505093Y-88173432D01*
X155255485Y-88006649D01*
X154978134Y-87891766D01*
X154683701Y-87833200D01*
X154383499Y-87833200D01*
X154089066Y-87891766D01*
X153811715Y-88006649D01*
X153562107Y-88173432D01*
X153349832Y-88385707D01*
X153244183Y-88543822D01*
X153049831Y-88480574D01*
X152173205Y-89357200D01*
X153049831Y-90233826D01*
X153244183Y-90170578D01*
X153349832Y-90328693D01*
X153562107Y-90540968D01*
X153811715Y-90707751D01*
X154089066Y-90822634D01*
X154383499Y-90881200D01*
X154683701Y-90881200D01*
X154978134Y-90822634D01*
X155255485Y-90707751D01*
X155505093Y-90540968D01*
X155717368Y-90328693D01*
X155803600Y-90199638D01*
X155889832Y-90328693D01*
X156102107Y-90540968D01*
X156351715Y-90707751D01*
X156629066Y-90822634D01*
X156923499Y-90881200D01*
X157223701Y-90881200D01*
X157518134Y-90822634D01*
X157795485Y-90707751D01*
X158045093Y-90540968D01*
X158257368Y-90328693D01*
X158343600Y-90199638D01*
X158429832Y-90328693D01*
X158642107Y-90540968D01*
X158891715Y-90707751D01*
X159169066Y-90822634D01*
X159463499Y-90881200D01*
X159763701Y-90881200D01*
X160058134Y-90822634D01*
X160335485Y-90707751D01*
X160585093Y-90540968D01*
X160797368Y-90328693D01*
X160883600Y-90199638D01*
X160969832Y-90328693D01*
X161182107Y-90540968D01*
X161431715Y-90707751D01*
X161709066Y-90822634D01*
X162003499Y-90881200D01*
X162303701Y-90881200D01*
X162598134Y-90822634D01*
X162875485Y-90707751D01*
X163125093Y-90540968D01*
X163337368Y-90328693D01*
X163423600Y-90199638D01*
X163509832Y-90328693D01*
X163722107Y-90540968D01*
X163971715Y-90707751D01*
X164249066Y-90822634D01*
X164543499Y-90881200D01*
X164843701Y-90881200D01*
X165138134Y-90822634D01*
X165415485Y-90707751D01*
X165665093Y-90540968D01*
X165877368Y-90328693D01*
X165963600Y-90199638D01*
X166049832Y-90328693D01*
X166262107Y-90540968D01*
X166511715Y-90707751D01*
X166789066Y-90822634D01*
X167083499Y-90881200D01*
X167383701Y-90881200D01*
X167678134Y-90822634D01*
X167955485Y-90707751D01*
X168205093Y-90540968D01*
X168417368Y-90328693D01*
X168503600Y-90199638D01*
X168589832Y-90328693D01*
X168802107Y-90540968D01*
X169051715Y-90707751D01*
X169329066Y-90822634D01*
X169623499Y-90881200D01*
X169923701Y-90881200D01*
X170218134Y-90822634D01*
X170495485Y-90707751D01*
X170745093Y-90540968D01*
X170957368Y-90328693D01*
X171124151Y-90079085D01*
X171239034Y-89801734D01*
X171297600Y-89507301D01*
X171297600Y-89207099D01*
X171239034Y-88912666D01*
X171124151Y-88635315D01*
X170957368Y-88385707D01*
X170745093Y-88173432D01*
X170495485Y-88006649D01*
X170218134Y-87891766D01*
X169923701Y-87833200D01*
X169623499Y-87833200D01*
X169329066Y-87891766D01*
X169051715Y-88006649D01*
X168802107Y-88173432D01*
X168589832Y-88385707D01*
X168503600Y-88514762D01*
X168417368Y-88385707D01*
X168205093Y-88173432D01*
X167955485Y-88006649D01*
X167678134Y-87891766D01*
X167383701Y-87833200D01*
X167083499Y-87833200D01*
X166789066Y-87891766D01*
X166511715Y-88006649D01*
X166262107Y-88173432D01*
X166049832Y-88385707D01*
X165963600Y-88514762D01*
X165877368Y-88385707D01*
X165665093Y-88173432D01*
X165453600Y-88032117D01*
X165453600Y-85481201D01*
X166719005Y-84215797D01*
X166793889Y-84238513D01*
X167012050Y-84260000D01*
X167157950Y-84260000D01*
X167376111Y-84238513D01*
X167656034Y-84153599D01*
X167914014Y-84015706D01*
X168140134Y-83830134D01*
X168164607Y-83800313D01*
X168185498Y-83869180D01*
X168244463Y-83979494D01*
X168323815Y-84076185D01*
X168420506Y-84155537D01*
X168530820Y-84214502D01*
X168650518Y-84250812D01*
X168775000Y-84263072D01*
X169339250Y-84260000D01*
X169498000Y-84101250D01*
X169498000Y-82902000D01*
X169752000Y-82902000D01*
X169752000Y-84101250D01*
X169910750Y-84260000D01*
X170475000Y-84263072D01*
X170599482Y-84250812D01*
X170719180Y-84214502D01*
X170829494Y-84155537D01*
X170926185Y-84076185D01*
X171005537Y-83979494D01*
X171064502Y-83869180D01*
X171100812Y-83749482D01*
X171113072Y-83625000D01*
X171110000Y-83060750D01*
X170951250Y-82902000D01*
X169752000Y-82902000D01*
X169498000Y-82902000D01*
X169478000Y-82902000D01*
X169478000Y-82648000D01*
X169498000Y-82648000D01*
X169498000Y-82628000D01*
X169752000Y-82628000D01*
X169752000Y-82648000D01*
X170951250Y-82648000D01*
X171110000Y-82489250D01*
X171113072Y-81925000D01*
X171100812Y-81800518D01*
X171064502Y-81680820D01*
X171005537Y-81570506D01*
X170926185Y-81473815D01*
X170829494Y-81394463D01*
X170719180Y-81335498D01*
X170650313Y-81314607D01*
X170680134Y-81290134D01*
X170865706Y-81064014D01*
X171003599Y-80806034D01*
X171088513Y-80526111D01*
X171117185Y-80235000D01*
X171088513Y-79943889D01*
X171003599Y-79663966D01*
X170865706Y-79405986D01*
X170680134Y-79179866D01*
X170454014Y-78994294D01*
X170196034Y-78856401D01*
X169916111Y-78771487D01*
X169697950Y-78750000D01*
X169552050Y-78750000D01*
X169333889Y-78771487D01*
X169053966Y-78856401D01*
X168795986Y-78994294D01*
X168569866Y-79179866D01*
X168384294Y-79405986D01*
X168355000Y-79460791D01*
X168325706Y-79405986D01*
X168140134Y-79179866D01*
X167914014Y-78994294D01*
X167656034Y-78856401D01*
X167376111Y-78771487D01*
X167157950Y-78750000D01*
X167012050Y-78750000D01*
X166793889Y-78771487D01*
X166513966Y-78856401D01*
X166255986Y-78994294D01*
X166029866Y-79179866D01*
X165844294Y-79405986D01*
X165815000Y-79460791D01*
X165785706Y-79405986D01*
X165600134Y-79179866D01*
X165374014Y-78994294D01*
X165116034Y-78856401D01*
X164836111Y-78771487D01*
X164617950Y-78750000D01*
X164472050Y-78750000D01*
X164253889Y-78771487D01*
X163973966Y-78856401D01*
X163715986Y-78994294D01*
X163489866Y-79179866D01*
X163304294Y-79405986D01*
X163275000Y-79460791D01*
X163245706Y-79405986D01*
X163060134Y-79179866D01*
X162834014Y-78994294D01*
X162765000Y-78957405D01*
X162765000Y-76387768D01*
X162842822Y-76355533D01*
X163084110Y-76194309D01*
X163289309Y-75989110D01*
X163415000Y-75801001D01*
X163540691Y-75989110D01*
X163745890Y-76194309D01*
X163987178Y-76355533D01*
X164255283Y-76466586D01*
X164539902Y-76523200D01*
X164830098Y-76523200D01*
X165114717Y-76466586D01*
X165382822Y-76355533D01*
X165624110Y-76194309D01*
X165829309Y-75989110D01*
X165990533Y-75747822D01*
X166101586Y-75479717D01*
X166158200Y-75195098D01*
X166158200Y-74904902D01*
X166101586Y-74620283D01*
X165990533Y-74352178D01*
X165829309Y-74110890D01*
X165624110Y-73905691D01*
X165382822Y-73744467D01*
X165114717Y-73633414D01*
X164830098Y-73576800D01*
X164539902Y-73576800D01*
X164255283Y-73633414D01*
X163987178Y-73744467D01*
X163745890Y-73905691D01*
X163540691Y-74110890D01*
X163415000Y-74298999D01*
X163289309Y-74110890D01*
X163084110Y-73905691D01*
X162842822Y-73744467D01*
X162574717Y-73633414D01*
X162290098Y-73576800D01*
X161999902Y-73576800D01*
X161715283Y-73633414D01*
X161447178Y-73744467D01*
X161205890Y-73905691D01*
X161000691Y-74110890D01*
X160875000Y-74298999D01*
X160749309Y-74110890D01*
X160544110Y-73905691D01*
X160302822Y-73744467D01*
X160034717Y-73633414D01*
X159750098Y-73576800D01*
X159459902Y-73576800D01*
X159175283Y-73633414D01*
X158907178Y-73744467D01*
X158665890Y-73905691D01*
X158460691Y-74110890D01*
X158335000Y-74298999D01*
X158209309Y-74110890D01*
X158004110Y-73905691D01*
X157762822Y-73744467D01*
X157494717Y-73633414D01*
X157210098Y-73576800D01*
X156919902Y-73576800D01*
X156635283Y-73633414D01*
X156367178Y-73744467D01*
X156125890Y-73905691D01*
X155920691Y-74110890D01*
X155795000Y-74298999D01*
X155669309Y-74110890D01*
X155464110Y-73905691D01*
X155222822Y-73744467D01*
X154954717Y-73633414D01*
X154670098Y-73576800D01*
X154379902Y-73576800D01*
X154095283Y-73633414D01*
X153827178Y-73744467D01*
X153585890Y-73905691D01*
X153380691Y-74110890D01*
X153257711Y-74294943D01*
X153252844Y-74285838D01*
X153004975Y-74209630D01*
X152164605Y-75050000D01*
X153004975Y-75890370D01*
X153252844Y-75814162D01*
X153257399Y-75804592D01*
X153380691Y-75989110D01*
X153585890Y-76194309D01*
X153827178Y-76355533D01*
X154095283Y-76466586D01*
X154379902Y-76523200D01*
X154670098Y-76523200D01*
X154954717Y-76466586D01*
X155222822Y-76355533D01*
X155464110Y-76194309D01*
X155669309Y-75989110D01*
X155795000Y-75801001D01*
X155920691Y-75989110D01*
X156125890Y-76194309D01*
X156367178Y-76355533D01*
X156635283Y-76466586D01*
X156919902Y-76523200D01*
X157210098Y-76523200D01*
X157494717Y-76466586D01*
X157762822Y-76355533D01*
X158004110Y-76194309D01*
X158209309Y-75989110D01*
X158335000Y-75801001D01*
X158460691Y-75989110D01*
X158665890Y-76194309D01*
X158705001Y-76220442D01*
X158705000Y-78957405D01*
X158635986Y-78994294D01*
X158409866Y-79179866D01*
X158224294Y-79405986D01*
X158195000Y-79460791D01*
X158165706Y-79405986D01*
X157980134Y-79179866D01*
X157754014Y-78994294D01*
X157496034Y-78856401D01*
X157216111Y-78771487D01*
X156997950Y-78750000D01*
X156852050Y-78750000D01*
X156633889Y-78771487D01*
X156353966Y-78856401D01*
X156095986Y-78994294D01*
X155869866Y-79179866D01*
X155684294Y-79405986D01*
X155655000Y-79460791D01*
X155625706Y-79405986D01*
X155440134Y-79179866D01*
X155214014Y-78994294D01*
X154956034Y-78856401D01*
X154676111Y-78771487D01*
X154457950Y-78750000D01*
X154312050Y-78750000D01*
X154093889Y-78771487D01*
X153813966Y-78856401D01*
X153555986Y-78994294D01*
X153329866Y-79179866D01*
X153144294Y-79405986D01*
X153115000Y-79460791D01*
X153085706Y-79405986D01*
X152900134Y-79179866D01*
X152674014Y-78994294D01*
X152416034Y-78856401D01*
X152136111Y-78771487D01*
X151917950Y-78750000D01*
X151772050Y-78750000D01*
X151553889Y-78771487D01*
X151273966Y-78856401D01*
X151015986Y-78994294D01*
X150789866Y-79179866D01*
X150604294Y-79405986D01*
X150575000Y-79460791D01*
X150545706Y-79405986D01*
X150360134Y-79179866D01*
X150134014Y-78994294D01*
X149876034Y-78856401D01*
X149596111Y-78771487D01*
X149377950Y-78750000D01*
X149232050Y-78750000D01*
X149013889Y-78771487D01*
X148733966Y-78856401D01*
X148475986Y-78994294D01*
X148249866Y-79179866D01*
X148064294Y-79405986D01*
X148035000Y-79460791D01*
X148005706Y-79405986D01*
X147820134Y-79179866D01*
X147594014Y-78994294D01*
X147336034Y-78856401D01*
X147056111Y-78771487D01*
X146837950Y-78750000D01*
X146692050Y-78750000D01*
X146473889Y-78771487D01*
X146193966Y-78856401D01*
X145935986Y-78994294D01*
X145709866Y-79179866D01*
X145524294Y-79405986D01*
X145495000Y-79460791D01*
X145465706Y-79405986D01*
X145280134Y-79179866D01*
X145054014Y-78994294D01*
X144796034Y-78856401D01*
X144516111Y-78771487D01*
X144297950Y-78750000D01*
X144152050Y-78750000D01*
X143933889Y-78771487D01*
X143653966Y-78856401D01*
X143395986Y-78994294D01*
X143169866Y-79179866D01*
X142984294Y-79405986D01*
X142955000Y-79460791D01*
X142925706Y-79405986D01*
X142740134Y-79179866D01*
X142514014Y-78994294D01*
X142256034Y-78856401D01*
X141976111Y-78771487D01*
X141757950Y-78750000D01*
X141612050Y-78750000D01*
X141393889Y-78771487D01*
X141113966Y-78856401D01*
X140855986Y-78994294D01*
X140629866Y-79179866D01*
X140444294Y-79405986D01*
X140415000Y-79460791D01*
X140385706Y-79405986D01*
X140200134Y-79179866D01*
X139974014Y-78994294D01*
X139716034Y-78856401D01*
X139436111Y-78771487D01*
X139217950Y-78750000D01*
X139072050Y-78750000D01*
X138853889Y-78771487D01*
X138573966Y-78856401D01*
X138315986Y-78994294D01*
X138089866Y-79179866D01*
X137904294Y-79405986D01*
X137875000Y-79460791D01*
X137845706Y-79405986D01*
X137660134Y-79179866D01*
X137434014Y-78994294D01*
X137176034Y-78856401D01*
X136896111Y-78771487D01*
X136677950Y-78750000D01*
X136532050Y-78750000D01*
X136313889Y-78771487D01*
X136033966Y-78856401D01*
X135775986Y-78994294D01*
X135549866Y-79179866D01*
X135364294Y-79405986D01*
X135335000Y-79460791D01*
X135305706Y-79405986D01*
X135120134Y-79179866D01*
X134894014Y-78994294D01*
X134636034Y-78856401D01*
X134356111Y-78771487D01*
X134137950Y-78750000D01*
X133992050Y-78750000D01*
X133773889Y-78771487D01*
X133493966Y-78856401D01*
X133235986Y-78994294D01*
X133009866Y-79179866D01*
X132824294Y-79405986D01*
X132795000Y-79460791D01*
X132765706Y-79405986D01*
X132580134Y-79179866D01*
X132354014Y-78994294D01*
X132096034Y-78856401D01*
X131816111Y-78771487D01*
X131597950Y-78750000D01*
X131452050Y-78750000D01*
X131233889Y-78771487D01*
X130953966Y-78856401D01*
X130695986Y-78994294D01*
X130469866Y-79179866D01*
X130284294Y-79405986D01*
X130255000Y-79460791D01*
X130225706Y-79405986D01*
X130040134Y-79179866D01*
X129814014Y-78994294D01*
X129556034Y-78856401D01*
X129276111Y-78771487D01*
X129057950Y-78750000D01*
X128912050Y-78750000D01*
X128693889Y-78771487D01*
X128413966Y-78856401D01*
X128155986Y-78994294D01*
X127929866Y-79179866D01*
X127744294Y-79405986D01*
X127715000Y-79460791D01*
X127685706Y-79405986D01*
X127500134Y-79179866D01*
X127274014Y-78994294D01*
X127016034Y-78856401D01*
X126736111Y-78771487D01*
X126517950Y-78750000D01*
X126372050Y-78750000D01*
X126153889Y-78771487D01*
X125873966Y-78856401D01*
X125615986Y-78994294D01*
X125389866Y-79179866D01*
X125204294Y-79405986D01*
X125175000Y-79460791D01*
X125145706Y-79405986D01*
X124960134Y-79179866D01*
X124734014Y-78994294D01*
X124476034Y-78856401D01*
X124196111Y-78771487D01*
X123977950Y-78750000D01*
X123832050Y-78750000D01*
X123613889Y-78771487D01*
X123333966Y-78856401D01*
X123075986Y-78994294D01*
X122849866Y-79179866D01*
X122664294Y-79405986D01*
X122635000Y-79460791D01*
X122605706Y-79405986D01*
X122420134Y-79179866D01*
X122194014Y-78994294D01*
X121936034Y-78856401D01*
X121656111Y-78771487D01*
X121437950Y-78750000D01*
X121292050Y-78750000D01*
X121073889Y-78771487D01*
X120793966Y-78856401D01*
X120535986Y-78994294D01*
X120309866Y-79179866D01*
X120124294Y-79405986D01*
X119986401Y-79663966D01*
X119901487Y-79943889D01*
X119872815Y-80235000D01*
X119901487Y-80526111D01*
X119986401Y-80806034D01*
X120124294Y-81064014D01*
X120309866Y-81290134D01*
X120535986Y-81475706D01*
X120590791Y-81505000D01*
X120535986Y-81534294D01*
X120309866Y-81719866D01*
X120124294Y-81945986D01*
X119986401Y-82203966D01*
X119901487Y-82483889D01*
X119872815Y-82775000D01*
X119901487Y-83066111D01*
X119986401Y-83346034D01*
X120124294Y-83604014D01*
X120309866Y-83830134D01*
X120535986Y-84015706D01*
X120793966Y-84153599D01*
X121073889Y-84238513D01*
X121292050Y-84260000D01*
X121437950Y-84260000D01*
X121656111Y-84238513D01*
X121936034Y-84153599D01*
X122194014Y-84015706D01*
X122420134Y-83830134D01*
X122605706Y-83604014D01*
X122635000Y-83549209D01*
X122664294Y-83604014D01*
X122849866Y-83830134D01*
X123075986Y-84015706D01*
X123333966Y-84153599D01*
X123613889Y-84238513D01*
X123832050Y-84260000D01*
X123977950Y-84260000D01*
X124196111Y-84238513D01*
X124476034Y-84153599D01*
X124734014Y-84015706D01*
X124960134Y-83830134D01*
X125145706Y-83604014D01*
X125175000Y-83549209D01*
X125204294Y-83604014D01*
X125389866Y-83830134D01*
X125615986Y-84015706D01*
X125873966Y-84153599D01*
X126153889Y-84238513D01*
X126372050Y-84260000D01*
X126425199Y-84260000D01*
X125803198Y-84882001D01*
X125774200Y-84905799D01*
X125750402Y-84934797D01*
X125750401Y-84934798D01*
X125679226Y-85021524D01*
X125608654Y-85153554D01*
X125565198Y-85296815D01*
X125550524Y-85445800D01*
X125554201Y-85483132D01*
X125554200Y-87168859D01*
X125423665Y-87256080D01*
X125229080Y-87450665D01*
X125076195Y-87679473D01*
X125044200Y-87756715D01*
X125012205Y-87679473D01*
X124859320Y-87450665D01*
X124664735Y-87256080D01*
X124435927Y-87103195D01*
X124181690Y-86997886D01*
X123911792Y-86944200D01*
X123636608Y-86944200D01*
X123366710Y-86997886D01*
X123112473Y-87103195D01*
X122883665Y-87256080D01*
X122689080Y-87450665D01*
X122536195Y-87679473D01*
X122504200Y-87756715D01*
X122472205Y-87679473D01*
X122319320Y-87450665D01*
X122124735Y-87256080D01*
X121895927Y-87103195D01*
X121641690Y-86997886D01*
X121371792Y-86944200D01*
X121096608Y-86944200D01*
X120826710Y-86997886D01*
X120572473Y-87103195D01*
X120343665Y-87256080D01*
X120149080Y-87450665D01*
X119996195Y-87679473D01*
X119890886Y-87933710D01*
X119837200Y-88203608D01*
X112685000Y-88203608D01*
X112685000Y-76069975D01*
X151144630Y-76069975D01*
X151220838Y-76317844D01*
X151482865Y-76442563D01*
X151764189Y-76513768D01*
X152053999Y-76528719D01*
X152341157Y-76486845D01*
X152614628Y-76389754D01*
X152749162Y-76317844D01*
X152825370Y-76069975D01*
X151985000Y-75229605D01*
X151144630Y-76069975D01*
X112685000Y-76069975D01*
X112685000Y-75118999D01*
X150506281Y-75118999D01*
X150548155Y-75406157D01*
X150645246Y-75679628D01*
X150717156Y-75814162D01*
X150965025Y-75890370D01*
X151805395Y-75050000D01*
X150965025Y-74209630D01*
X150717156Y-74285838D01*
X150592437Y-74547865D01*
X150521232Y-74829189D01*
X150506281Y-75118999D01*
X112685000Y-75118999D01*
X112685000Y-74030025D01*
X151144630Y-74030025D01*
X151985000Y-74870395D01*
X152825370Y-74030025D01*
X152749162Y-73782156D01*
X152487135Y-73657437D01*
X152205811Y-73586232D01*
X151916001Y-73571281D01*
X151628843Y-73613155D01*
X151355372Y-73710246D01*
X151220838Y-73782156D01*
X151144630Y-74030025D01*
X112685000Y-74030025D01*
X112685000Y-57124902D01*
X153051800Y-57124902D01*
X153051800Y-57415098D01*
X153108414Y-57699717D01*
X153219467Y-57967822D01*
X153380691Y-58209110D01*
X153585890Y-58414309D01*
X153827178Y-58575533D01*
X154095283Y-58686586D01*
X154379902Y-58743200D01*
X154670098Y-58743200D01*
X154954717Y-58686586D01*
X155222822Y-58575533D01*
X155464110Y-58414309D01*
X155588444Y-58289975D01*
X156224630Y-58289975D01*
X156300838Y-58537844D01*
X156562865Y-58662563D01*
X156844189Y-58733768D01*
X157133999Y-58748719D01*
X157421157Y-58706845D01*
X157694628Y-58609754D01*
X157829162Y-58537844D01*
X157905370Y-58289975D01*
X157065000Y-57449605D01*
X156224630Y-58289975D01*
X155588444Y-58289975D01*
X155669309Y-58209110D01*
X155792289Y-58025057D01*
X155797156Y-58034162D01*
X156045025Y-58110370D01*
X156885395Y-57270000D01*
X157244605Y-57270000D01*
X158084975Y-58110370D01*
X158332844Y-58034162D01*
X158337399Y-58024592D01*
X158460691Y-58209110D01*
X158665890Y-58414309D01*
X158907178Y-58575533D01*
X159175283Y-58686586D01*
X159459902Y-58743200D01*
X159750098Y-58743200D01*
X160034717Y-58686586D01*
X160302822Y-58575533D01*
X160544110Y-58414309D01*
X160749309Y-58209110D01*
X160875000Y-58021001D01*
X161000691Y-58209110D01*
X161205890Y-58414309D01*
X161447178Y-58575533D01*
X161715283Y-58686586D01*
X161999902Y-58743200D01*
X162290098Y-58743200D01*
X162574717Y-58686586D01*
X162842822Y-58575533D01*
X163084110Y-58414309D01*
X163289309Y-58209110D01*
X163450533Y-57967822D01*
X163561586Y-57699717D01*
X163618200Y-57415098D01*
X163618200Y-57124902D01*
X163561586Y-56840283D01*
X163450533Y-56572178D01*
X163289309Y-56330890D01*
X163084110Y-56125691D01*
X162842822Y-55964467D01*
X162574717Y-55853414D01*
X162290098Y-55796800D01*
X161999902Y-55796800D01*
X161715283Y-55853414D01*
X161447178Y-55964467D01*
X161205890Y-56125691D01*
X161000691Y-56330890D01*
X160875000Y-56518999D01*
X160749309Y-56330890D01*
X160544110Y-56125691D01*
X160302822Y-55964467D01*
X160034717Y-55853414D01*
X159750098Y-55796800D01*
X159459902Y-55796800D01*
X159175283Y-55853414D01*
X158907178Y-55964467D01*
X158665890Y-56125691D01*
X158460691Y-56330890D01*
X158337711Y-56514943D01*
X158332844Y-56505838D01*
X158084975Y-56429630D01*
X157244605Y-57270000D01*
X156885395Y-57270000D01*
X156045025Y-56429630D01*
X155797156Y-56505838D01*
X155792601Y-56515408D01*
X155669309Y-56330890D01*
X155588444Y-56250025D01*
X156224630Y-56250025D01*
X157065000Y-57090395D01*
X157905370Y-56250025D01*
X157829162Y-56002156D01*
X157567135Y-55877437D01*
X157285811Y-55806232D01*
X156996001Y-55791281D01*
X156708843Y-55833155D01*
X156435372Y-55930246D01*
X156300838Y-56002156D01*
X156224630Y-56250025D01*
X155588444Y-56250025D01*
X155464110Y-56125691D01*
X155222822Y-55964467D01*
X154954717Y-55853414D01*
X154670098Y-55796800D01*
X154379902Y-55796800D01*
X154095283Y-55853414D01*
X153827178Y-55964467D01*
X153585890Y-56125691D01*
X153380691Y-56330890D01*
X153219467Y-56572178D01*
X153108414Y-56840283D01*
X153051800Y-57124902D01*
X112685000Y-57124902D01*
X112685000Y-55685000D01*
X178315000Y-55685000D01*
X178315001Y-125315000D01*
X178315001Y-125315000D01*
G37*
X178315001Y-125315000D02*
X112685000Y-125315000D01*
X112685000Y-123763608D01*
X119837200Y-123763608D01*
X119837200Y-124038792D01*
X119890886Y-124308690D01*
X119996195Y-124562927D01*
X120149080Y-124791735D01*
X120343665Y-124986320D01*
X120572473Y-125139205D01*
X120826710Y-125244514D01*
X121096608Y-125298200D01*
X121371792Y-125298200D01*
X121641690Y-125244514D01*
X121895927Y-125139205D01*
X122124735Y-124986320D01*
X122319320Y-124791735D01*
X122472205Y-124562927D01*
X122504200Y-124485685D01*
X122536195Y-124562927D01*
X122689080Y-124791735D01*
X122883665Y-124986320D01*
X123112473Y-125139205D01*
X123366710Y-125244514D01*
X123636608Y-125298200D01*
X123911792Y-125298200D01*
X124181690Y-125244514D01*
X124435927Y-125139205D01*
X124664735Y-124986320D01*
X124859320Y-124791735D01*
X125012205Y-124562927D01*
X125044200Y-124485685D01*
X125076195Y-124562927D01*
X125229080Y-124791735D01*
X125423665Y-124986320D01*
X125652473Y-125139205D01*
X125906710Y-125244514D01*
X126176608Y-125298200D01*
X126451792Y-125298200D01*
X126721690Y-125244514D01*
X126975927Y-125139205D01*
X127204735Y-124986320D01*
X127399320Y-124791735D01*
X127552205Y-124562927D01*
X127584200Y-124485685D01*
X127616195Y-124562927D01*
X127769080Y-124791735D01*
X127963665Y-124986320D01*
X128192473Y-125139205D01*
X128446710Y-125244514D01*
X128716608Y-125298200D01*
X128991792Y-125298200D01*
X129261690Y-125244514D01*
X129515927Y-125139205D01*
X129744735Y-124986320D01*
X129939320Y-124791735D01*
X130092205Y-124562927D01*
X130124200Y-124485685D01*
X130156195Y-124562927D01*
X130309080Y-124791735D01*
X130503665Y-124986320D01*
X130732473Y-125139205D01*
X130986710Y-125244514D01*
X131256608Y-125298200D01*
X131531792Y-125298200D01*
X131801690Y-125244514D01*
X132055927Y-125139205D01*
X132284735Y-124986320D01*
X132479320Y-124791735D01*
X132632205Y-124562927D01*
X132664200Y-124485685D01*
X132696195Y-124562927D01*
X132849080Y-124791735D01*
X133043665Y-124986320D01*
X133272473Y-125139205D01*
X133526710Y-125244514D01*
X133796608Y-125298200D01*
X134071792Y-125298200D01*
X134341690Y-125244514D01*
X134595927Y-125139205D01*
X134824735Y-124986320D01*
X135019320Y-124791735D01*
X135172205Y-124562927D01*
X135204200Y-124485685D01*
X135236195Y-124562927D01*
X135389080Y-124791735D01*
X135583665Y-124986320D01*
X135812473Y-125139205D01*
X136066710Y-125244514D01*
X136336608Y-125298200D01*
X136611792Y-125298200D01*
X136881690Y-125244514D01*
X137135927Y-125139205D01*
X137364735Y-124986320D01*
X137559320Y-124791735D01*
X137712205Y-124562927D01*
X137744200Y-124485685D01*
X137776195Y-124562927D01*
X137929080Y-124791735D01*
X138123665Y-124986320D01*
X138352473Y-125139205D01*
X138606710Y-125244514D01*
X138876608Y-125298200D01*
X139151792Y-125298200D01*
X139421690Y-125244514D01*
X139675927Y-125139205D01*
X139904735Y-124986320D01*
X140099320Y-124791735D01*
X140252205Y-124562927D01*
X140357514Y-124308690D01*
X140411200Y-124038792D01*
X140411200Y-123763608D01*
X140357514Y-123493710D01*
X140252205Y-123239473D01*
X140099320Y-123010665D01*
X139904735Y-122816080D01*
X139675927Y-122663195D01*
X139421690Y-122557886D01*
X139151792Y-122504200D01*
X138876608Y-122504200D01*
X138606710Y-122557886D01*
X138352473Y-122663195D01*
X138123665Y-122816080D01*
X137929080Y-123010665D01*
X137776195Y-123239473D01*
X137744200Y-123316715D01*
X137712205Y-123239473D01*
X137559320Y-123010665D01*
X137364735Y-122816080D01*
X137135927Y-122663195D01*
X136881690Y-122557886D01*
X136611792Y-122504200D01*
X136336608Y-122504200D01*
X136066710Y-122557886D01*
X135812473Y-122663195D01*
X135583665Y-122816080D01*
X135389080Y-123010665D01*
X135236195Y-123239473D01*
X135204200Y-123316715D01*
X135172205Y-123239473D01*
X135019320Y-123010665D01*
X134824735Y-122816080D01*
X134595927Y-122663195D01*
X134341690Y-122557886D01*
X134071792Y-122504200D01*
X133796608Y-122504200D01*
X133526710Y-122557886D01*
X133272473Y-122663195D01*
X133043665Y-122816080D01*
X132849080Y-123010665D01*
X132696195Y-123239473D01*
X132664200Y-123316715D01*
X132632205Y-123239473D01*
X132479320Y-123010665D01*
X132284735Y-122816080D01*
X132055927Y-122663195D01*
X131801690Y-122557886D01*
X131531792Y-122504200D01*
X131256608Y-122504200D01*
X130986710Y-122557886D01*
X130732473Y-122663195D01*
X130503665Y-122816080D01*
X130309080Y-123010665D01*
X130156195Y-123239473D01*
X130124200Y-123316715D01*
X130092205Y-123239473D01*
X129939320Y-123010665D01*
X129744735Y-122816080D01*
X129515927Y-122663195D01*
X129261690Y-122557886D01*
X128991792Y-122504200D01*
X128716608Y-122504200D01*
X128446710Y-122557886D01*
X128192473Y-122663195D01*
X127963665Y-122816080D01*
X127769080Y-123010665D01*
X127616195Y-123239473D01*
X127584200Y-123316715D01*
X127552205Y-123239473D01*
X127399320Y-123010665D01*
X127204735Y-122816080D01*
X126975927Y-122663195D01*
X126721690Y-122557886D01*
X126451792Y-122504200D01*
X126176608Y-122504200D01*
X125906710Y-122557886D01*
X125652473Y-122663195D01*
X125423665Y-122816080D01*
X125229080Y-123010665D01*
X125076195Y-123239473D01*
X125044200Y-123316715D01*
X125012205Y-123239473D01*
X124859320Y-123010665D01*
X124664735Y-122816080D01*
X124435927Y-122663195D01*
X124181690Y-122557886D01*
X123911792Y-122504200D01*
X123636608Y-122504200D01*
X123366710Y-122557886D01*
X123112473Y-122663195D01*
X122883665Y-122816080D01*
X122689080Y-123010665D01*
X122536195Y-123239473D01*
X122504200Y-123316715D01*
X122472205Y-123239473D01*
X122319320Y-123010665D01*
X122124735Y-122816080D01*
X121895927Y-122663195D01*
X121641690Y-122557886D01*
X121371792Y-122504200D01*
X121096608Y-122504200D01*
X120826710Y-122557886D01*
X120572473Y-122663195D01*
X120343665Y-122816080D01*
X120149080Y-123010665D01*
X119996195Y-123239473D01*
X119890886Y-123493710D01*
X119837200Y-123763608D01*
X112685000Y-123763608D01*
X112685000Y-88203608D01*
X119837200Y-88203608D01*
X119837200Y-88478792D01*
X119890886Y-88748690D01*
X119996195Y-89002927D01*
X120149080Y-89231735D01*
X120343665Y-89426320D01*
X120572473Y-89579205D01*
X120826710Y-89684514D01*
X121096608Y-89738200D01*
X121371792Y-89738200D01*
X121525771Y-89707572D01*
X123096221Y-91278023D01*
X123120019Y-91307021D01*
X123235744Y-91401994D01*
X123367773Y-91472566D01*
X123511034Y-91516023D01*
X123622687Y-91527020D01*
X123622696Y-91527020D01*
X123660019Y-91530696D01*
X123697342Y-91527020D01*
X146992068Y-91527020D01*
X147029390Y-91530696D01*
X147066712Y-91527020D01*
X147066723Y-91527020D01*
X147178376Y-91516023D01*
X147321637Y-91472566D01*
X147453666Y-91401994D01*
X147569391Y-91307021D01*
X147593194Y-91278017D01*
X148457780Y-90413431D01*
X151116974Y-90413431D01*
X151199327Y-90666489D01*
X151470018Y-90796286D01*
X151760830Y-90870780D01*
X152060588Y-90887108D01*
X152357771Y-90844643D01*
X152640959Y-90745016D01*
X152787873Y-90666489D01*
X152870226Y-90413431D01*
X151993600Y-89536805D01*
X151116974Y-90413431D01*
X148457780Y-90413431D01*
X149447023Y-89424188D01*
X150463692Y-89424188D01*
X150506157Y-89721371D01*
X150605784Y-90004559D01*
X150684311Y-90151473D01*
X150937369Y-90233826D01*
X151813995Y-89357200D01*
X150937369Y-88480574D01*
X150684311Y-88562927D01*
X150554514Y-88833618D01*
X150480020Y-89124430D01*
X150463692Y-89424188D01*
X149447023Y-89424188D01*
X150570242Y-88300969D01*
X151116974Y-88300969D01*
X151993600Y-89177595D01*
X152870226Y-88300969D01*
X152787873Y-88047911D01*
X152517182Y-87918114D01*
X152226370Y-87843620D01*
X151926612Y-87827292D01*
X151629429Y-87869757D01*
X151346241Y-87969384D01*
X151199327Y-88047911D01*
X151116974Y-88300969D01*
X150570242Y-88300969D01*
X154161211Y-84710001D01*
X155712677Y-84710001D01*
X155749999Y-84713677D01*
X155787321Y-84710001D01*
X155787332Y-84710001D01*
X155898985Y-84699004D01*
X156042246Y-84655547D01*
X156174275Y-84584975D01*
X156290000Y-84490002D01*
X156313803Y-84460998D01*
X156559004Y-84215797D01*
X156633889Y-84238513D01*
X156852050Y-84260000D01*
X156997950Y-84260000D01*
X157216111Y-84238513D01*
X157496034Y-84153599D01*
X157754014Y-84015706D01*
X157980134Y-83830134D01*
X158165706Y-83604014D01*
X158195000Y-83549209D01*
X158224294Y-83604014D01*
X158409866Y-83830134D01*
X158635986Y-84015706D01*
X158893966Y-84153599D01*
X159173889Y-84238513D01*
X159392050Y-84260000D01*
X159537950Y-84260000D01*
X159756111Y-84238513D01*
X160036034Y-84153599D01*
X160294014Y-84015706D01*
X160520134Y-83830134D01*
X160705706Y-83604014D01*
X160735000Y-83549209D01*
X160764294Y-83604014D01*
X160949866Y-83830134D01*
X161175986Y-84015706D01*
X161433966Y-84153599D01*
X161713889Y-84238513D01*
X161932050Y-84260000D01*
X161985198Y-84260000D01*
X159102598Y-87142601D01*
X159073600Y-87166399D01*
X159049802Y-87195397D01*
X159049801Y-87195398D01*
X158978626Y-87282124D01*
X158908054Y-87414154D01*
X158896979Y-87450665D01*
X158865258Y-87555240D01*
X158864598Y-87557415D01*
X158849924Y-87706400D01*
X158853601Y-87743732D01*
X158853601Y-88032116D01*
X158642107Y-88173432D01*
X158429832Y-88385707D01*
X158343600Y-88514762D01*
X158257368Y-88385707D01*
X158045093Y-88173432D01*
X157795485Y-88006649D01*
X157518134Y-87891766D01*
X157223701Y-87833200D01*
X156923499Y-87833200D01*
X156629066Y-87891766D01*
X156351715Y-88006649D01*
X156102107Y-88173432D01*
X155889832Y-88385707D01*
X155803600Y-88514762D01*
X155717368Y-88385707D01*
X155505093Y-88173432D01*
X155255485Y-88006649D01*
X154978134Y-87891766D01*
X154683701Y-87833200D01*
X154383499Y-87833200D01*
X154089066Y-87891766D01*
X153811715Y-88006649D01*
X153562107Y-88173432D01*
X153349832Y-88385707D01*
X153244183Y-88543822D01*
X153049831Y-88480574D01*
X152173205Y-89357200D01*
X153049831Y-90233826D01*
X153244183Y-90170578D01*
X153349832Y-90328693D01*
X153562107Y-90540968D01*
X153811715Y-90707751D01*
X154089066Y-90822634D01*
X154383499Y-90881200D01*
X154683701Y-90881200D01*
X154978134Y-90822634D01*
X155255485Y-90707751D01*
X155505093Y-90540968D01*
X155717368Y-90328693D01*
X155803600Y-90199638D01*
X155889832Y-90328693D01*
X156102107Y-90540968D01*
X156351715Y-90707751D01*
X156629066Y-90822634D01*
X156923499Y-90881200D01*
X157223701Y-90881200D01*
X157518134Y-90822634D01*
X157795485Y-90707751D01*
X158045093Y-90540968D01*
X158257368Y-90328693D01*
X158343600Y-90199638D01*
X158429832Y-90328693D01*
X158642107Y-90540968D01*
X158891715Y-90707751D01*
X159169066Y-90822634D01*
X159463499Y-90881200D01*
X159763701Y-90881200D01*
X160058134Y-90822634D01*
X160335485Y-90707751D01*
X160585093Y-90540968D01*
X160797368Y-90328693D01*
X160883600Y-90199638D01*
X160969832Y-90328693D01*
X161182107Y-90540968D01*
X161431715Y-90707751D01*
X161709066Y-90822634D01*
X162003499Y-90881200D01*
X162303701Y-90881200D01*
X162598134Y-90822634D01*
X162875485Y-90707751D01*
X163125093Y-90540968D01*
X163337368Y-90328693D01*
X163423600Y-90199638D01*
X163509832Y-90328693D01*
X163722107Y-90540968D01*
X163971715Y-90707751D01*
X164249066Y-90822634D01*
X164543499Y-90881200D01*
X164843701Y-90881200D01*
X165138134Y-90822634D01*
X165415485Y-90707751D01*
X165665093Y-90540968D01*
X165877368Y-90328693D01*
X165963600Y-90199638D01*
X166049832Y-90328693D01*
X166262107Y-90540968D01*
X166511715Y-90707751D01*
X166789066Y-90822634D01*
X167083499Y-90881200D01*
X167383701Y-90881200D01*
X167678134Y-90822634D01*
X167955485Y-90707751D01*
X168205093Y-90540968D01*
X168417368Y-90328693D01*
X168503600Y-90199638D01*
X168589832Y-90328693D01*
X168802107Y-90540968D01*
X169051715Y-90707751D01*
X169329066Y-90822634D01*
X169623499Y-90881200D01*
X169923701Y-90881200D01*
X170218134Y-90822634D01*
X170495485Y-90707751D01*
X170745093Y-90540968D01*
X170957368Y-90328693D01*
X171124151Y-90079085D01*
X171239034Y-89801734D01*
X171297600Y-89507301D01*
X171297600Y-89207099D01*
X171239034Y-88912666D01*
X171124151Y-88635315D01*
X170957368Y-88385707D01*
X170745093Y-88173432D01*
X170495485Y-88006649D01*
X170218134Y-87891766D01*
X169923701Y-87833200D01*
X169623499Y-87833200D01*
X169329066Y-87891766D01*
X169051715Y-88006649D01*
X168802107Y-88173432D01*
X168589832Y-88385707D01*
X168503600Y-88514762D01*
X168417368Y-88385707D01*
X168205093Y-88173432D01*
X167955485Y-88006649D01*
X167678134Y-87891766D01*
X167383701Y-87833200D01*
X167083499Y-87833200D01*
X166789066Y-87891766D01*
X166511715Y-88006649D01*
X166262107Y-88173432D01*
X166049832Y-88385707D01*
X165963600Y-88514762D01*
X165877368Y-88385707D01*
X165665093Y-88173432D01*
X165453600Y-88032117D01*
X165453600Y-85481201D01*
X166719005Y-84215797D01*
X166793889Y-84238513D01*
X167012050Y-84260000D01*
X167157950Y-84260000D01*
X167376111Y-84238513D01*
X167656034Y-84153599D01*
X167914014Y-84015706D01*
X168140134Y-83830134D01*
X168164607Y-83800313D01*
X168185498Y-83869180D01*
X168244463Y-83979494D01*
X168323815Y-84076185D01*
X168420506Y-84155537D01*
X168530820Y-84214502D01*
X168650518Y-84250812D01*
X168775000Y-84263072D01*
X169339250Y-84260000D01*
X169498000Y-84101250D01*
X169498000Y-82902000D01*
X169752000Y-82902000D01*
X169752000Y-84101250D01*
X169910750Y-84260000D01*
X170475000Y-84263072D01*
X170599482Y-84250812D01*
X170719180Y-84214502D01*
X170829494Y-84155537D01*
X170926185Y-84076185D01*
X171005537Y-83979494D01*
X171064502Y-83869180D01*
X171100812Y-83749482D01*
X171113072Y-83625000D01*
X171110000Y-83060750D01*
X170951250Y-82902000D01*
X169752000Y-82902000D01*
X169498000Y-82902000D01*
X169478000Y-82902000D01*
X169478000Y-82648000D01*
X169498000Y-82648000D01*
X169498000Y-82628000D01*
X169752000Y-82628000D01*
X169752000Y-82648000D01*
X170951250Y-82648000D01*
X171110000Y-82489250D01*
X171113072Y-81925000D01*
X171100812Y-81800518D01*
X171064502Y-81680820D01*
X171005537Y-81570506D01*
X170926185Y-81473815D01*
X170829494Y-81394463D01*
X170719180Y-81335498D01*
X170650313Y-81314607D01*
X170680134Y-81290134D01*
X170865706Y-81064014D01*
X171003599Y-80806034D01*
X171088513Y-80526111D01*
X171117185Y-80235000D01*
X171088513Y-79943889D01*
X171003599Y-79663966D01*
X170865706Y-79405986D01*
X170680134Y-79179866D01*
X170454014Y-78994294D01*
X170196034Y-78856401D01*
X169916111Y-78771487D01*
X169697950Y-78750000D01*
X169552050Y-78750000D01*
X169333889Y-78771487D01*
X169053966Y-78856401D01*
X168795986Y-78994294D01*
X168569866Y-79179866D01*
X168384294Y-79405986D01*
X168355000Y-79460791D01*
X168325706Y-79405986D01*
X168140134Y-79179866D01*
X167914014Y-78994294D01*
X167656034Y-78856401D01*
X167376111Y-78771487D01*
X167157950Y-78750000D01*
X167012050Y-78750000D01*
X166793889Y-78771487D01*
X166513966Y-78856401D01*
X166255986Y-78994294D01*
X166029866Y-79179866D01*
X165844294Y-79405986D01*
X165815000Y-79460791D01*
X165785706Y-79405986D01*
X165600134Y-79179866D01*
X165374014Y-78994294D01*
X165116034Y-78856401D01*
X164836111Y-78771487D01*
X164617950Y-78750000D01*
X164472050Y-78750000D01*
X164253889Y-78771487D01*
X163973966Y-78856401D01*
X163715986Y-78994294D01*
X163489866Y-79179866D01*
X163304294Y-79405986D01*
X163275000Y-79460791D01*
X163245706Y-79405986D01*
X163060134Y-79179866D01*
X162834014Y-78994294D01*
X162765000Y-78957405D01*
X162765000Y-76387768D01*
X162842822Y-76355533D01*
X163084110Y-76194309D01*
X163289309Y-75989110D01*
X163415000Y-75801001D01*
X163540691Y-75989110D01*
X163745890Y-76194309D01*
X163987178Y-76355533D01*
X164255283Y-76466586D01*
X164539902Y-76523200D01*
X164830098Y-76523200D01*
X165114717Y-76466586D01*
X165382822Y-76355533D01*
X165624110Y-76194309D01*
X165829309Y-75989110D01*
X165990533Y-75747822D01*
X166101586Y-75479717D01*
X166158200Y-75195098D01*
X166158200Y-74904902D01*
X166101586Y-74620283D01*
X165990533Y-74352178D01*
X165829309Y-74110890D01*
X165624110Y-73905691D01*
X165382822Y-73744467D01*
X165114717Y-73633414D01*
X164830098Y-73576800D01*
X164539902Y-73576800D01*
X164255283Y-73633414D01*
X163987178Y-73744467D01*
X163745890Y-73905691D01*
X163540691Y-74110890D01*
X163415000Y-74298999D01*
X163289309Y-74110890D01*
X163084110Y-73905691D01*
X162842822Y-73744467D01*
X162574717Y-73633414D01*
X162290098Y-73576800D01*
X161999902Y-73576800D01*
X161715283Y-73633414D01*
X161447178Y-73744467D01*
X161205890Y-73905691D01*
X161000691Y-74110890D01*
X160875000Y-74298999D01*
X160749309Y-74110890D01*
X160544110Y-73905691D01*
X160302822Y-73744467D01*
X160034717Y-73633414D01*
X159750098Y-73576800D01*
X159459902Y-73576800D01*
X159175283Y-73633414D01*
X158907178Y-73744467D01*
X158665890Y-73905691D01*
X158460691Y-74110890D01*
X158335000Y-74298999D01*
X158209309Y-74110890D01*
X158004110Y-73905691D01*
X157762822Y-73744467D01*
X157494717Y-73633414D01*
X157210098Y-73576800D01*
X156919902Y-73576800D01*
X156635283Y-73633414D01*
X156367178Y-73744467D01*
X156125890Y-73905691D01*
X155920691Y-74110890D01*
X155795000Y-74298999D01*
X155669309Y-74110890D01*
X155464110Y-73905691D01*
X155222822Y-73744467D01*
X154954717Y-73633414D01*
X154670098Y-73576800D01*
X154379902Y-73576800D01*
X154095283Y-73633414D01*
X153827178Y-73744467D01*
X153585890Y-73905691D01*
X153380691Y-74110890D01*
X153257711Y-74294943D01*
X153252844Y-74285838D01*
X153004975Y-74209630D01*
X152164605Y-75050000D01*
X153004975Y-75890370D01*
X153252844Y-75814162D01*
X153257399Y-75804592D01*
X153380691Y-75989110D01*
X153585890Y-76194309D01*
X153827178Y-76355533D01*
X154095283Y-76466586D01*
X154379902Y-76523200D01*
X154670098Y-76523200D01*
X154954717Y-76466586D01*
X155222822Y-76355533D01*
X155464110Y-76194309D01*
X155669309Y-75989110D01*
X155795000Y-75801001D01*
X155920691Y-75989110D01*
X156125890Y-76194309D01*
X156367178Y-76355533D01*
X156635283Y-76466586D01*
X156919902Y-76523200D01*
X157210098Y-76523200D01*
X157494717Y-76466586D01*
X157762822Y-76355533D01*
X158004110Y-76194309D01*
X158209309Y-75989110D01*
X158335000Y-75801001D01*
X158460691Y-75989110D01*
X158665890Y-76194309D01*
X158705001Y-76220442D01*
X158705000Y-78957405D01*
X158635986Y-78994294D01*
X158409866Y-79179866D01*
X158224294Y-79405986D01*
X158195000Y-79460791D01*
X158165706Y-79405986D01*
X157980134Y-79179866D01*
X157754014Y-78994294D01*
X157496034Y-78856401D01*
X157216111Y-78771487D01*
X156997950Y-78750000D01*
X156852050Y-78750000D01*
X156633889Y-78771487D01*
X156353966Y-78856401D01*
X156095986Y-78994294D01*
X155869866Y-79179866D01*
X155684294Y-79405986D01*
X155655000Y-79460791D01*
X155625706Y-79405986D01*
X155440134Y-79179866D01*
X155214014Y-78994294D01*
X154956034Y-78856401D01*
X154676111Y-78771487D01*
X154457950Y-78750000D01*
X154312050Y-78750000D01*
X154093889Y-78771487D01*
X153813966Y-78856401D01*
X153555986Y-78994294D01*
X153329866Y-79179866D01*
X153144294Y-79405986D01*
X153115000Y-79460791D01*
X153085706Y-79405986D01*
X152900134Y-79179866D01*
X152674014Y-78994294D01*
X152416034Y-78856401D01*
X152136111Y-78771487D01*
X151917950Y-78750000D01*
X151772050Y-78750000D01*
X151553889Y-78771487D01*
X151273966Y-78856401D01*
X151015986Y-78994294D01*
X150789866Y-79179866D01*
X150604294Y-79405986D01*
X150575000Y-79460791D01*
X150545706Y-79405986D01*
X150360134Y-79179866D01*
X150134014Y-78994294D01*
X149876034Y-78856401D01*
X149596111Y-78771487D01*
X149377950Y-78750000D01*
X149232050Y-78750000D01*
X149013889Y-78771487D01*
X148733966Y-78856401D01*
X148475986Y-78994294D01*
X148249866Y-79179866D01*
X148064294Y-79405986D01*
X148035000Y-79460791D01*
X148005706Y-79405986D01*
X147820134Y-79179866D01*
X147594014Y-78994294D01*
X147336034Y-78856401D01*
X147056111Y-78771487D01*
X146837950Y-78750000D01*
X146692050Y-78750000D01*
X146473889Y-78771487D01*
X146193966Y-78856401D01*
X145935986Y-78994294D01*
X145709866Y-79179866D01*
X145524294Y-79405986D01*
X145495000Y-79460791D01*
X145465706Y-79405986D01*
X145280134Y-79179866D01*
X145054014Y-78994294D01*
X144796034Y-78856401D01*
X144516111Y-78771487D01*
X144297950Y-78750000D01*
X144152050Y-78750000D01*
X143933889Y-78771487D01*
X143653966Y-78856401D01*
X143395986Y-78994294D01*
X143169866Y-79179866D01*
X142984294Y-79405986D01*
X142955000Y-79460791D01*
X142925706Y-79405986D01*
X142740134Y-79179866D01*
X142514014Y-78994294D01*
X142256034Y-78856401D01*
X141976111Y-78771487D01*
X141757950Y-78750000D01*
X141612050Y-78750000D01*
X141393889Y-78771487D01*
X141113966Y-78856401D01*
X140855986Y-78994294D01*
X140629866Y-79179866D01*
X140444294Y-79405986D01*
X140415000Y-79460791D01*
X140385706Y-79405986D01*
X140200134Y-79179866D01*
X139974014Y-78994294D01*
X139716034Y-78856401D01*
X139436111Y-78771487D01*
X139217950Y-78750000D01*
X139072050Y-78750000D01*
X138853889Y-78771487D01*
X138573966Y-78856401D01*
X138315986Y-78994294D01*
X138089866Y-79179866D01*
X137904294Y-79405986D01*
X137875000Y-79460791D01*
X137845706Y-79405986D01*
X137660134Y-79179866D01*
X137434014Y-78994294D01*
X137176034Y-78856401D01*
X136896111Y-78771487D01*
X136677950Y-78750000D01*
X136532050Y-78750000D01*
X136313889Y-78771487D01*
X136033966Y-78856401D01*
X135775986Y-78994294D01*
X135549866Y-79179866D01*
X135364294Y-79405986D01*
X135335000Y-79460791D01*
X135305706Y-79405986D01*
X135120134Y-79179866D01*
X134894014Y-78994294D01*
X134636034Y-78856401D01*
X134356111Y-78771487D01*
X134137950Y-78750000D01*
X133992050Y-78750000D01*
X133773889Y-78771487D01*
X133493966Y-78856401D01*
X133235986Y-78994294D01*
X133009866Y-79179866D01*
X132824294Y-79405986D01*
X132795000Y-79460791D01*
X132765706Y-79405986D01*
X132580134Y-79179866D01*
X132354014Y-78994294D01*
X132096034Y-78856401D01*
X131816111Y-78771487D01*
X131597950Y-78750000D01*
X131452050Y-78750000D01*
X131233889Y-78771487D01*
X130953966Y-78856401D01*
X130695986Y-78994294D01*
X130469866Y-79179866D01*
X130284294Y-79405986D01*
X130255000Y-79460791D01*
X130225706Y-79405986D01*
X130040134Y-79179866D01*
X129814014Y-78994294D01*
X129556034Y-78856401D01*
X129276111Y-78771487D01*
X129057950Y-78750000D01*
X128912050Y-78750000D01*
X128693889Y-78771487D01*
X128413966Y-78856401D01*
X128155986Y-78994294D01*
X127929866Y-79179866D01*
X127744294Y-79405986D01*
X127715000Y-79460791D01*
X127685706Y-79405986D01*
X127500134Y-79179866D01*
X127274014Y-78994294D01*
X127016034Y-78856401D01*
X126736111Y-78771487D01*
X126517950Y-78750000D01*
X126372050Y-78750000D01*
X126153889Y-78771487D01*
X125873966Y-78856401D01*
X125615986Y-78994294D01*
X125389866Y-79179866D01*
X125204294Y-79405986D01*
X125175000Y-79460791D01*
X125145706Y-79405986D01*
X124960134Y-79179866D01*
X124734014Y-78994294D01*
X124476034Y-78856401D01*
X124196111Y-78771487D01*
X123977950Y-78750000D01*
X123832050Y-78750000D01*
X123613889Y-78771487D01*
X123333966Y-78856401D01*
X123075986Y-78994294D01*
X122849866Y-79179866D01*
X122664294Y-79405986D01*
X122635000Y-79460791D01*
X122605706Y-79405986D01*
X122420134Y-79179866D01*
X122194014Y-78994294D01*
X121936034Y-78856401D01*
X121656111Y-78771487D01*
X121437950Y-78750000D01*
X121292050Y-78750000D01*
X121073889Y-78771487D01*
X120793966Y-78856401D01*
X120535986Y-78994294D01*
X120309866Y-79179866D01*
X120124294Y-79405986D01*
X119986401Y-79663966D01*
X119901487Y-79943889D01*
X119872815Y-80235000D01*
X119901487Y-80526111D01*
X119986401Y-80806034D01*
X120124294Y-81064014D01*
X120309866Y-81290134D01*
X120535986Y-81475706D01*
X120590791Y-81505000D01*
X120535986Y-81534294D01*
X120309866Y-81719866D01*
X120124294Y-81945986D01*
X119986401Y-82203966D01*
X119901487Y-82483889D01*
X119872815Y-82775000D01*
X119901487Y-83066111D01*
X119986401Y-83346034D01*
X120124294Y-83604014D01*
X120309866Y-83830134D01*
X120535986Y-84015706D01*
X120793966Y-84153599D01*
X121073889Y-84238513D01*
X121292050Y-84260000D01*
X121437950Y-84260000D01*
X121656111Y-84238513D01*
X121936034Y-84153599D01*
X122194014Y-84015706D01*
X122420134Y-83830134D01*
X122605706Y-83604014D01*
X122635000Y-83549209D01*
X122664294Y-83604014D01*
X122849866Y-83830134D01*
X123075986Y-84015706D01*
X123333966Y-84153599D01*
X123613889Y-84238513D01*
X123832050Y-84260000D01*
X123977950Y-84260000D01*
X124196111Y-84238513D01*
X124476034Y-84153599D01*
X124734014Y-84015706D01*
X124960134Y-83830134D01*
X125145706Y-83604014D01*
X125175000Y-83549209D01*
X125204294Y-83604014D01*
X125389866Y-83830134D01*
X125615986Y-84015706D01*
X125873966Y-84153599D01*
X126153889Y-84238513D01*
X126372050Y-84260000D01*
X126425199Y-84260000D01*
X125803198Y-84882001D01*
X125774200Y-84905799D01*
X125750402Y-84934797D01*
X125750401Y-84934798D01*
X125679226Y-85021524D01*
X125608654Y-85153554D01*
X125565198Y-85296815D01*
X125550524Y-85445800D01*
X125554201Y-85483132D01*
X125554200Y-87168859D01*
X125423665Y-87256080D01*
X125229080Y-87450665D01*
X125076195Y-87679473D01*
X125044200Y-87756715D01*
X125012205Y-87679473D01*
X124859320Y-87450665D01*
X124664735Y-87256080D01*
X124435927Y-87103195D01*
X124181690Y-86997886D01*
X123911792Y-86944200D01*
X123636608Y-86944200D01*
X123366710Y-86997886D01*
X123112473Y-87103195D01*
X122883665Y-87256080D01*
X122689080Y-87450665D01*
X122536195Y-87679473D01*
X122504200Y-87756715D01*
X122472205Y-87679473D01*
X122319320Y-87450665D01*
X122124735Y-87256080D01*
X121895927Y-87103195D01*
X121641690Y-86997886D01*
X121371792Y-86944200D01*
X121096608Y-86944200D01*
X120826710Y-86997886D01*
X120572473Y-87103195D01*
X120343665Y-87256080D01*
X120149080Y-87450665D01*
X119996195Y-87679473D01*
X119890886Y-87933710D01*
X119837200Y-88203608D01*
X112685000Y-88203608D01*
X112685000Y-76069975D01*
X151144630Y-76069975D01*
X151220838Y-76317844D01*
X151482865Y-76442563D01*
X151764189Y-76513768D01*
X152053999Y-76528719D01*
X152341157Y-76486845D01*
X152614628Y-76389754D01*
X152749162Y-76317844D01*
X152825370Y-76069975D01*
X151985000Y-75229605D01*
X151144630Y-76069975D01*
X112685000Y-76069975D01*
X112685000Y-75118999D01*
X150506281Y-75118999D01*
X150548155Y-75406157D01*
X150645246Y-75679628D01*
X150717156Y-75814162D01*
X150965025Y-75890370D01*
X151805395Y-75050000D01*
X150965025Y-74209630D01*
X150717156Y-74285838D01*
X150592437Y-74547865D01*
X150521232Y-74829189D01*
X150506281Y-75118999D01*
X112685000Y-75118999D01*
X112685000Y-74030025D01*
X151144630Y-74030025D01*
X151985000Y-74870395D01*
X152825370Y-74030025D01*
X152749162Y-73782156D01*
X152487135Y-73657437D01*
X152205811Y-73586232D01*
X151916001Y-73571281D01*
X151628843Y-73613155D01*
X151355372Y-73710246D01*
X151220838Y-73782156D01*
X151144630Y-74030025D01*
X112685000Y-74030025D01*
X112685000Y-57124902D01*
X153051800Y-57124902D01*
X153051800Y-57415098D01*
X153108414Y-57699717D01*
X153219467Y-57967822D01*
X153380691Y-58209110D01*
X153585890Y-58414309D01*
X153827178Y-58575533D01*
X154095283Y-58686586D01*
X154379902Y-58743200D01*
X154670098Y-58743200D01*
X154954717Y-58686586D01*
X155222822Y-58575533D01*
X155464110Y-58414309D01*
X155588444Y-58289975D01*
X156224630Y-58289975D01*
X156300838Y-58537844D01*
X156562865Y-58662563D01*
X156844189Y-58733768D01*
X157133999Y-58748719D01*
X157421157Y-58706845D01*
X157694628Y-58609754D01*
X157829162Y-58537844D01*
X157905370Y-58289975D01*
X157065000Y-57449605D01*
X156224630Y-58289975D01*
X155588444Y-58289975D01*
X155669309Y-58209110D01*
X155792289Y-58025057D01*
X155797156Y-58034162D01*
X156045025Y-58110370D01*
X156885395Y-57270000D01*
X157244605Y-57270000D01*
X158084975Y-58110370D01*
X158332844Y-58034162D01*
X158337399Y-58024592D01*
X158460691Y-58209110D01*
X158665890Y-58414309D01*
X158907178Y-58575533D01*
X159175283Y-58686586D01*
X159459902Y-58743200D01*
X159750098Y-58743200D01*
X160034717Y-58686586D01*
X160302822Y-58575533D01*
X160544110Y-58414309D01*
X160749309Y-58209110D01*
X160875000Y-58021001D01*
X161000691Y-58209110D01*
X161205890Y-58414309D01*
X161447178Y-58575533D01*
X161715283Y-58686586D01*
X161999902Y-58743200D01*
X162290098Y-58743200D01*
X162574717Y-58686586D01*
X162842822Y-58575533D01*
X163084110Y-58414309D01*
X163289309Y-58209110D01*
X163450533Y-57967822D01*
X163561586Y-57699717D01*
X163618200Y-57415098D01*
X163618200Y-57124902D01*
X163561586Y-56840283D01*
X163450533Y-56572178D01*
X163289309Y-56330890D01*
X163084110Y-56125691D01*
X162842822Y-55964467D01*
X162574717Y-55853414D01*
X162290098Y-55796800D01*
X161999902Y-55796800D01*
X161715283Y-55853414D01*
X161447178Y-55964467D01*
X161205890Y-56125691D01*
X161000691Y-56330890D01*
X160875000Y-56518999D01*
X160749309Y-56330890D01*
X160544110Y-56125691D01*
X160302822Y-55964467D01*
X160034717Y-55853414D01*
X159750098Y-55796800D01*
X159459902Y-55796800D01*
X159175283Y-55853414D01*
X158907178Y-55964467D01*
X158665890Y-56125691D01*
X158460691Y-56330890D01*
X158337711Y-56514943D01*
X158332844Y-56505838D01*
X158084975Y-56429630D01*
X157244605Y-57270000D01*
X156885395Y-57270000D01*
X156045025Y-56429630D01*
X155797156Y-56505838D01*
X155792601Y-56515408D01*
X155669309Y-56330890D01*
X155588444Y-56250025D01*
X156224630Y-56250025D01*
X157065000Y-57090395D01*
X157905370Y-56250025D01*
X157829162Y-56002156D01*
X157567135Y-55877437D01*
X157285811Y-55806232D01*
X156996001Y-55791281D01*
X156708843Y-55833155D01*
X156435372Y-55930246D01*
X156300838Y-56002156D01*
X156224630Y-56250025D01*
X155588444Y-56250025D01*
X155464110Y-56125691D01*
X155222822Y-55964467D01*
X154954717Y-55853414D01*
X154670098Y-55796800D01*
X154379902Y-55796800D01*
X154095283Y-55853414D01*
X153827178Y-55964467D01*
X153585890Y-56125691D01*
X153380691Y-56330890D01*
X153219467Y-56572178D01*
X153108414Y-56840283D01*
X153051800Y-57124902D01*
X112685000Y-57124902D01*
X112685000Y-55685000D01*
X178315000Y-55685000D01*
X178315001Y-125315000D01*
G36*
X149432000Y-82648000D02*
G01*
X149452000Y-82648000D01*
X149452000Y-82902000D01*
X149432000Y-82902000D01*
X149432000Y-84095155D01*
X149661890Y-84216476D01*
X149809099Y-84171825D01*
X150071920Y-84046641D01*
X150305269Y-83872588D01*
X150500178Y-83656355D01*
X150569799Y-83539477D01*
X150604294Y-83604014D01*
X150789866Y-83830134D01*
X151015986Y-84015706D01*
X151273966Y-84153599D01*
X151553889Y-84238513D01*
X151772050Y-84260000D01*
X151825198Y-84260000D01*
X146528189Y-89557010D01*
X144789144Y-89557010D01*
X144984735Y-89426320D01*
X145179320Y-89231735D01*
X145332205Y-89002927D01*
X145437514Y-88748690D01*
X145491200Y-88478792D01*
X145491200Y-88203608D01*
X145437514Y-87933710D01*
X145332205Y-87679473D01*
X145179320Y-87450665D01*
X144984735Y-87256080D01*
X144755927Y-87103195D01*
X144501690Y-86997886D01*
X144231792Y-86944200D01*
X143956608Y-86944200D01*
X143686710Y-86997886D01*
X143432473Y-87103195D01*
X143203665Y-87256080D01*
X143009080Y-87450665D01*
X142856195Y-87679473D01*
X142824200Y-87756715D01*
X142792205Y-87679473D01*
X142639320Y-87450665D01*
X142444735Y-87256080D01*
X142215927Y-87103195D01*
X141961690Y-86997886D01*
X141691792Y-86944200D01*
X141416608Y-86944200D01*
X141146710Y-86997886D01*
X140892473Y-87103195D01*
X140663665Y-87256080D01*
X140469080Y-87450665D01*
X140316195Y-87679473D01*
X140284200Y-87756715D01*
X140252205Y-87679473D01*
X140099320Y-87450665D01*
X139904735Y-87256080D01*
X139675927Y-87103195D01*
X139421690Y-86997886D01*
X139151792Y-86944200D01*
X138876608Y-86944200D01*
X138606710Y-86997886D01*
X138352473Y-87103195D01*
X138123665Y-87256080D01*
X137929080Y-87450665D01*
X137776195Y-87679473D01*
X137746508Y-87751143D01*
X137741836Y-87738177D01*
X137679856Y-87622220D01*
X137439765Y-87555240D01*
X136653805Y-88341200D01*
X137439765Y-89127160D01*
X137679856Y-89060180D01*
X137743685Y-88924440D01*
X137776195Y-89002927D01*
X137929080Y-89231735D01*
X138123665Y-89426320D01*
X138319256Y-89557010D01*
X137174183Y-89557010D01*
X137193180Y-89546856D01*
X137260160Y-89306765D01*
X136474200Y-88520805D01*
X136460058Y-88534948D01*
X136280453Y-88355343D01*
X136294595Y-88341200D01*
X135508635Y-87555240D01*
X135268544Y-87622220D01*
X135204715Y-87757960D01*
X135172205Y-87679473D01*
X135019320Y-87450665D01*
X134944290Y-87375635D01*
X135688240Y-87375635D01*
X136474200Y-88161595D01*
X137260160Y-87375635D01*
X137193180Y-87135544D01*
X136944152Y-87018444D01*
X136677065Y-86952177D01*
X136402183Y-86939290D01*
X136130067Y-86980278D01*
X135871177Y-87073564D01*
X135755220Y-87135544D01*
X135688240Y-87375635D01*
X134944290Y-87375635D01*
X134824735Y-87256080D01*
X134595927Y-87103195D01*
X134341690Y-86997886D01*
X134071792Y-86944200D01*
X133796608Y-86944200D01*
X133526710Y-86997886D01*
X133272473Y-87103195D01*
X133043665Y-87256080D01*
X132849080Y-87450665D01*
X132696195Y-87679473D01*
X132664200Y-87756715D01*
X132632205Y-87679473D01*
X132479320Y-87450665D01*
X132284735Y-87256080D01*
X132055927Y-87103195D01*
X131801690Y-86997886D01*
X131531792Y-86944200D01*
X131256608Y-86944200D01*
X130986710Y-86997886D01*
X130732473Y-87103195D01*
X130503665Y-87256080D01*
X130309080Y-87450665D01*
X130156195Y-87679473D01*
X130124200Y-87756715D01*
X130092205Y-87679473D01*
X129939320Y-87450665D01*
X129744735Y-87256080D01*
X129515927Y-87103195D01*
X129261690Y-86997886D01*
X128991792Y-86944200D01*
X128716608Y-86944200D01*
X128446710Y-86997886D01*
X128192473Y-87103195D01*
X127963665Y-87256080D01*
X127769080Y-87450665D01*
X127616195Y-87679473D01*
X127584200Y-87756715D01*
X127552205Y-87679473D01*
X127399320Y-87450665D01*
X127204735Y-87256080D01*
X127074200Y-87168859D01*
X127074200Y-85760601D01*
X128619005Y-84215797D01*
X128693889Y-84238513D01*
X128912050Y-84260000D01*
X129057950Y-84260000D01*
X129276111Y-84238513D01*
X129556034Y-84153599D01*
X129814014Y-84015706D01*
X130040134Y-83830134D01*
X130225706Y-83604014D01*
X130255000Y-83549209D01*
X130284294Y-83604014D01*
X130469866Y-83830134D01*
X130695986Y-84015706D01*
X130953966Y-84153599D01*
X131233889Y-84238513D01*
X131452050Y-84260000D01*
X131597950Y-84260000D01*
X131816111Y-84238513D01*
X132096034Y-84153599D01*
X132354014Y-84015706D01*
X132580134Y-83830134D01*
X132765706Y-83604014D01*
X132795000Y-83549209D01*
X132824294Y-83604014D01*
X133009866Y-83830134D01*
X133235986Y-84015706D01*
X133493966Y-84153599D01*
X133773889Y-84238513D01*
X133992050Y-84260000D01*
X134137950Y-84260000D01*
X134356111Y-84238513D01*
X134636034Y-84153599D01*
X134894014Y-84015706D01*
X135120134Y-83830134D01*
X135305706Y-83604014D01*
X135335000Y-83549209D01*
X135364294Y-83604014D01*
X135549866Y-83830134D01*
X135775986Y-84015706D01*
X136033966Y-84153599D01*
X136313889Y-84238513D01*
X136532050Y-84260000D01*
X136677950Y-84260000D01*
X136896111Y-84238513D01*
X137176034Y-84153599D01*
X137434014Y-84015706D01*
X137660134Y-83830134D01*
X137845706Y-83604014D01*
X137875000Y-83549209D01*
X137904294Y-83604014D01*
X138089866Y-83830134D01*
X138315986Y-84015706D01*
X138573966Y-84153599D01*
X138853889Y-84238513D01*
X139072050Y-84260000D01*
X139217950Y-84260000D01*
X139436111Y-84238513D01*
X139716034Y-84153599D01*
X139974014Y-84015706D01*
X140200134Y-83830134D01*
X140385706Y-83604014D01*
X140415000Y-83549209D01*
X140444294Y-83604014D01*
X140629866Y-83830134D01*
X140855986Y-84015706D01*
X141113966Y-84153599D01*
X141393889Y-84238513D01*
X141612050Y-84260000D01*
X141757950Y-84260000D01*
X141976111Y-84238513D01*
X142256034Y-84153599D01*
X142514014Y-84015706D01*
X142740134Y-83830134D01*
X142925706Y-83604014D01*
X142955000Y-83549209D01*
X142984294Y-83604014D01*
X143169866Y-83830134D01*
X143395986Y-84015706D01*
X143653966Y-84153599D01*
X143933889Y-84238513D01*
X144152050Y-84260000D01*
X144297950Y-84260000D01*
X144516111Y-84238513D01*
X144796034Y-84153599D01*
X145054014Y-84015706D01*
X145280134Y-83830134D01*
X145465706Y-83604014D01*
X145495000Y-83549209D01*
X145524294Y-83604014D01*
X145709866Y-83830134D01*
X145935986Y-84015706D01*
X146193966Y-84153599D01*
X146473889Y-84238513D01*
X146692050Y-84260000D01*
X146837950Y-84260000D01*
X147056111Y-84238513D01*
X147336034Y-84153599D01*
X147594014Y-84015706D01*
X147820134Y-83830134D01*
X148005706Y-83604014D01*
X148040201Y-83539477D01*
X148109822Y-83656355D01*
X148304731Y-83872588D01*
X148538080Y-84046641D01*
X148800901Y-84171825D01*
X148948110Y-84216476D01*
X149178000Y-84095155D01*
X149178000Y-82902000D01*
X149158000Y-82902000D01*
X149158000Y-82648000D01*
X149178000Y-82648000D01*
X149178000Y-82628000D01*
X149432000Y-82628000D01*
X149432000Y-82648000D01*
X149432000Y-82648000D01*
G37*
X149432000Y-82648000D02*
X149452000Y-82648000D01*
X149452000Y-82902000D01*
X149432000Y-82902000D01*
X149432000Y-84095155D01*
X149661890Y-84216476D01*
X149809099Y-84171825D01*
X150071920Y-84046641D01*
X150305269Y-83872588D01*
X150500178Y-83656355D01*
X150569799Y-83539477D01*
X150604294Y-83604014D01*
X150789866Y-83830134D01*
X151015986Y-84015706D01*
X151273966Y-84153599D01*
X151553889Y-84238513D01*
X151772050Y-84260000D01*
X151825198Y-84260000D01*
X146528189Y-89557010D01*
X144789144Y-89557010D01*
X144984735Y-89426320D01*
X145179320Y-89231735D01*
X145332205Y-89002927D01*
X145437514Y-88748690D01*
X145491200Y-88478792D01*
X145491200Y-88203608D01*
X145437514Y-87933710D01*
X145332205Y-87679473D01*
X145179320Y-87450665D01*
X144984735Y-87256080D01*
X144755927Y-87103195D01*
X144501690Y-86997886D01*
X144231792Y-86944200D01*
X143956608Y-86944200D01*
X143686710Y-86997886D01*
X143432473Y-87103195D01*
X143203665Y-87256080D01*
X143009080Y-87450665D01*
X142856195Y-87679473D01*
X142824200Y-87756715D01*
X142792205Y-87679473D01*
X142639320Y-87450665D01*
X142444735Y-87256080D01*
X142215927Y-87103195D01*
X141961690Y-86997886D01*
X141691792Y-86944200D01*
X141416608Y-86944200D01*
X141146710Y-86997886D01*
X140892473Y-87103195D01*
X140663665Y-87256080D01*
X140469080Y-87450665D01*
X140316195Y-87679473D01*
X140284200Y-87756715D01*
X140252205Y-87679473D01*
X140099320Y-87450665D01*
X139904735Y-87256080D01*
X139675927Y-87103195D01*
X139421690Y-86997886D01*
X139151792Y-86944200D01*
X138876608Y-86944200D01*
X138606710Y-86997886D01*
X138352473Y-87103195D01*
X138123665Y-87256080D01*
X137929080Y-87450665D01*
X137776195Y-87679473D01*
X137746508Y-87751143D01*
X137741836Y-87738177D01*
X137679856Y-87622220D01*
X137439765Y-87555240D01*
X136653805Y-88341200D01*
X137439765Y-89127160D01*
X137679856Y-89060180D01*
X137743685Y-88924440D01*
X137776195Y-89002927D01*
X137929080Y-89231735D01*
X138123665Y-89426320D01*
X138319256Y-89557010D01*
X137174183Y-89557010D01*
X137193180Y-89546856D01*
X137260160Y-89306765D01*
X136474200Y-88520805D01*
X136460058Y-88534948D01*
X136280453Y-88355343D01*
X136294595Y-88341200D01*
X135508635Y-87555240D01*
X135268544Y-87622220D01*
X135204715Y-87757960D01*
X135172205Y-87679473D01*
X135019320Y-87450665D01*
X134944290Y-87375635D01*
X135688240Y-87375635D01*
X136474200Y-88161595D01*
X137260160Y-87375635D01*
X137193180Y-87135544D01*
X136944152Y-87018444D01*
X136677065Y-86952177D01*
X136402183Y-86939290D01*
X136130067Y-86980278D01*
X135871177Y-87073564D01*
X135755220Y-87135544D01*
X135688240Y-87375635D01*
X134944290Y-87375635D01*
X134824735Y-87256080D01*
X134595927Y-87103195D01*
X134341690Y-86997886D01*
X134071792Y-86944200D01*
X133796608Y-86944200D01*
X133526710Y-86997886D01*
X133272473Y-87103195D01*
X133043665Y-87256080D01*
X132849080Y-87450665D01*
X132696195Y-87679473D01*
X132664200Y-87756715D01*
X132632205Y-87679473D01*
X132479320Y-87450665D01*
X132284735Y-87256080D01*
X132055927Y-87103195D01*
X131801690Y-86997886D01*
X131531792Y-86944200D01*
X131256608Y-86944200D01*
X130986710Y-86997886D01*
X130732473Y-87103195D01*
X130503665Y-87256080D01*
X130309080Y-87450665D01*
X130156195Y-87679473D01*
X130124200Y-87756715D01*
X130092205Y-87679473D01*
X129939320Y-87450665D01*
X129744735Y-87256080D01*
X129515927Y-87103195D01*
X129261690Y-86997886D01*
X128991792Y-86944200D01*
X128716608Y-86944200D01*
X128446710Y-86997886D01*
X128192473Y-87103195D01*
X127963665Y-87256080D01*
X127769080Y-87450665D01*
X127616195Y-87679473D01*
X127584200Y-87756715D01*
X127552205Y-87679473D01*
X127399320Y-87450665D01*
X127204735Y-87256080D01*
X127074200Y-87168859D01*
X127074200Y-85760601D01*
X128619005Y-84215797D01*
X128693889Y-84238513D01*
X128912050Y-84260000D01*
X129057950Y-84260000D01*
X129276111Y-84238513D01*
X129556034Y-84153599D01*
X129814014Y-84015706D01*
X130040134Y-83830134D01*
X130225706Y-83604014D01*
X130255000Y-83549209D01*
X130284294Y-83604014D01*
X130469866Y-83830134D01*
X130695986Y-84015706D01*
X130953966Y-84153599D01*
X131233889Y-84238513D01*
X131452050Y-84260000D01*
X131597950Y-84260000D01*
X131816111Y-84238513D01*
X132096034Y-84153599D01*
X132354014Y-84015706D01*
X132580134Y-83830134D01*
X132765706Y-83604014D01*
X132795000Y-83549209D01*
X132824294Y-83604014D01*
X133009866Y-83830134D01*
X133235986Y-84015706D01*
X133493966Y-84153599D01*
X133773889Y-84238513D01*
X133992050Y-84260000D01*
X134137950Y-84260000D01*
X134356111Y-84238513D01*
X134636034Y-84153599D01*
X134894014Y-84015706D01*
X135120134Y-83830134D01*
X135305706Y-83604014D01*
X135335000Y-83549209D01*
X135364294Y-83604014D01*
X135549866Y-83830134D01*
X135775986Y-84015706D01*
X136033966Y-84153599D01*
X136313889Y-84238513D01*
X136532050Y-84260000D01*
X136677950Y-84260000D01*
X136896111Y-84238513D01*
X137176034Y-84153599D01*
X137434014Y-84015706D01*
X137660134Y-83830134D01*
X137845706Y-83604014D01*
X137875000Y-83549209D01*
X137904294Y-83604014D01*
X138089866Y-83830134D01*
X138315986Y-84015706D01*
X138573966Y-84153599D01*
X138853889Y-84238513D01*
X139072050Y-84260000D01*
X139217950Y-84260000D01*
X139436111Y-84238513D01*
X139716034Y-84153599D01*
X139974014Y-84015706D01*
X140200134Y-83830134D01*
X140385706Y-83604014D01*
X140415000Y-83549209D01*
X140444294Y-83604014D01*
X140629866Y-83830134D01*
X140855986Y-84015706D01*
X141113966Y-84153599D01*
X141393889Y-84238513D01*
X141612050Y-84260000D01*
X141757950Y-84260000D01*
X141976111Y-84238513D01*
X142256034Y-84153599D01*
X142514014Y-84015706D01*
X142740134Y-83830134D01*
X142925706Y-83604014D01*
X142955000Y-83549209D01*
X142984294Y-83604014D01*
X143169866Y-83830134D01*
X143395986Y-84015706D01*
X143653966Y-84153599D01*
X143933889Y-84238513D01*
X144152050Y-84260000D01*
X144297950Y-84260000D01*
X144516111Y-84238513D01*
X144796034Y-84153599D01*
X145054014Y-84015706D01*
X145280134Y-83830134D01*
X145465706Y-83604014D01*
X145495000Y-83549209D01*
X145524294Y-83604014D01*
X145709866Y-83830134D01*
X145935986Y-84015706D01*
X146193966Y-84153599D01*
X146473889Y-84238513D01*
X146692050Y-84260000D01*
X146837950Y-84260000D01*
X147056111Y-84238513D01*
X147336034Y-84153599D01*
X147594014Y-84015706D01*
X147820134Y-83830134D01*
X148005706Y-83604014D01*
X148040201Y-83539477D01*
X148109822Y-83656355D01*
X148304731Y-83872588D01*
X148538080Y-84046641D01*
X148800901Y-84171825D01*
X148948110Y-84216476D01*
X149178000Y-84095155D01*
X149178000Y-82902000D01*
X149158000Y-82902000D01*
X149158000Y-82648000D01*
X149178000Y-82648000D01*
X149178000Y-82628000D01*
X149432000Y-82628000D01*
X149432000Y-82648000D01*
M02*
