G04 #@! TF.GenerationSoftware,KiCad,Pcbnew,(5.1.4)-1*
G04 #@! TF.CreationDate,2020-03-09T21:22:14-05:00*
G04 #@! TF.ProjectId,BigBrother,42696742-726f-4746-9865-722e6b696361,rev?*
G04 #@! TF.SameCoordinates,Original*
G04 #@! TF.FileFunction,Soldermask,Bot*
G04 #@! TF.FilePolarity,Negative*
%FSLAX46Y46*%
G04 Gerber Fmt 4.6, Leading zero omitted, Abs format (unit mm)*
G04 Created by KiCad (PCBNEW (5.1.4)-1) date 2020-03-09 21:22:14*
%MOMM*%
%LPD*%
G04 APERTURE LIST*
%ADD10C,0.100000*%
G04 APERTURE END LIST*
D10*
G36*
X140617142Y-123048242D02*
G01*
X140765101Y-123109529D01*
X140898255Y-123198499D01*
X141011501Y-123311745D01*
X141100471Y-123444899D01*
X141161758Y-123592858D01*
X141193000Y-123749925D01*
X141193000Y-123910075D01*
X141161758Y-124067142D01*
X141100471Y-124215101D01*
X141011501Y-124348255D01*
X140898255Y-124461501D01*
X140765101Y-124550471D01*
X140617142Y-124611758D01*
X140460075Y-124643000D01*
X140299925Y-124643000D01*
X140142858Y-124611758D01*
X139994899Y-124550471D01*
X139861745Y-124461501D01*
X139748499Y-124348255D01*
X139659529Y-124215101D01*
X139598242Y-124067142D01*
X139567000Y-123910075D01*
X139567000Y-123749925D01*
X139598242Y-123592858D01*
X139659529Y-123444899D01*
X139748499Y-123311745D01*
X139861745Y-123198499D01*
X139994899Y-123109529D01*
X140142858Y-123048242D01*
X140299925Y-123017000D01*
X140460075Y-123017000D01*
X140617142Y-123048242D01*
X140617142Y-123048242D01*
G37*
G36*
X132997142Y-123048242D02*
G01*
X133145101Y-123109529D01*
X133278255Y-123198499D01*
X133391501Y-123311745D01*
X133480471Y-123444899D01*
X133541758Y-123592858D01*
X133573000Y-123749925D01*
X133573000Y-123910075D01*
X133541758Y-124067142D01*
X133480471Y-124215101D01*
X133391501Y-124348255D01*
X133278255Y-124461501D01*
X133145101Y-124550471D01*
X132997142Y-124611758D01*
X132840075Y-124643000D01*
X132679925Y-124643000D01*
X132522858Y-124611758D01*
X132374899Y-124550471D01*
X132241745Y-124461501D01*
X132128499Y-124348255D01*
X132039529Y-124215101D01*
X131978242Y-124067142D01*
X131947000Y-123910075D01*
X131947000Y-123749925D01*
X131978242Y-123592858D01*
X132039529Y-123444899D01*
X132128499Y-123311745D01*
X132241745Y-123198499D01*
X132374899Y-123109529D01*
X132522858Y-123048242D01*
X132679925Y-123017000D01*
X132840075Y-123017000D01*
X132997142Y-123048242D01*
X132997142Y-123048242D01*
G37*
G36*
X122837142Y-123048242D02*
G01*
X122985101Y-123109529D01*
X123118255Y-123198499D01*
X123231501Y-123311745D01*
X123320471Y-123444899D01*
X123381758Y-123592858D01*
X123413000Y-123749925D01*
X123413000Y-123910075D01*
X123381758Y-124067142D01*
X123320471Y-124215101D01*
X123231501Y-124348255D01*
X123118255Y-124461501D01*
X122985101Y-124550471D01*
X122837142Y-124611758D01*
X122680075Y-124643000D01*
X122519925Y-124643000D01*
X122362858Y-124611758D01*
X122214899Y-124550471D01*
X122081745Y-124461501D01*
X121968499Y-124348255D01*
X121879529Y-124215101D01*
X121818242Y-124067142D01*
X121787000Y-123910075D01*
X121787000Y-123749925D01*
X121818242Y-123592858D01*
X121879529Y-123444899D01*
X121968499Y-123311745D01*
X122081745Y-123198499D01*
X122214899Y-123109529D01*
X122362858Y-123048242D01*
X122519925Y-123017000D01*
X122680075Y-123017000D01*
X122837142Y-123048242D01*
X122837142Y-123048242D01*
G37*
G36*
X125377142Y-123048242D02*
G01*
X125525101Y-123109529D01*
X125658255Y-123198499D01*
X125771501Y-123311745D01*
X125860471Y-123444899D01*
X125921758Y-123592858D01*
X125953000Y-123749925D01*
X125953000Y-123910075D01*
X125921758Y-124067142D01*
X125860471Y-124215101D01*
X125771501Y-124348255D01*
X125658255Y-124461501D01*
X125525101Y-124550471D01*
X125377142Y-124611758D01*
X125220075Y-124643000D01*
X125059925Y-124643000D01*
X124902858Y-124611758D01*
X124754899Y-124550471D01*
X124621745Y-124461501D01*
X124508499Y-124348255D01*
X124419529Y-124215101D01*
X124358242Y-124067142D01*
X124327000Y-123910075D01*
X124327000Y-123749925D01*
X124358242Y-123592858D01*
X124419529Y-123444899D01*
X124508499Y-123311745D01*
X124621745Y-123198499D01*
X124754899Y-123109529D01*
X124902858Y-123048242D01*
X125059925Y-123017000D01*
X125220075Y-123017000D01*
X125377142Y-123048242D01*
X125377142Y-123048242D01*
G37*
G36*
X127917142Y-123048242D02*
G01*
X128065101Y-123109529D01*
X128198255Y-123198499D01*
X128311501Y-123311745D01*
X128400471Y-123444899D01*
X128461758Y-123592858D01*
X128493000Y-123749925D01*
X128493000Y-123910075D01*
X128461758Y-124067142D01*
X128400471Y-124215101D01*
X128311501Y-124348255D01*
X128198255Y-124461501D01*
X128065101Y-124550471D01*
X127917142Y-124611758D01*
X127760075Y-124643000D01*
X127599925Y-124643000D01*
X127442858Y-124611758D01*
X127294899Y-124550471D01*
X127161745Y-124461501D01*
X127048499Y-124348255D01*
X126959529Y-124215101D01*
X126898242Y-124067142D01*
X126867000Y-123910075D01*
X126867000Y-123749925D01*
X126898242Y-123592858D01*
X126959529Y-123444899D01*
X127048499Y-123311745D01*
X127161745Y-123198499D01*
X127294899Y-123109529D01*
X127442858Y-123048242D01*
X127599925Y-123017000D01*
X127760075Y-123017000D01*
X127917142Y-123048242D01*
X127917142Y-123048242D01*
G37*
G36*
X130457142Y-123048242D02*
G01*
X130605101Y-123109529D01*
X130738255Y-123198499D01*
X130851501Y-123311745D01*
X130940471Y-123444899D01*
X131001758Y-123592858D01*
X131033000Y-123749925D01*
X131033000Y-123910075D01*
X131001758Y-124067142D01*
X130940471Y-124215101D01*
X130851501Y-124348255D01*
X130738255Y-124461501D01*
X130605101Y-124550471D01*
X130457142Y-124611758D01*
X130300075Y-124643000D01*
X130139925Y-124643000D01*
X129982858Y-124611758D01*
X129834899Y-124550471D01*
X129701745Y-124461501D01*
X129588499Y-124348255D01*
X129499529Y-124215101D01*
X129438242Y-124067142D01*
X129407000Y-123910075D01*
X129407000Y-123749925D01*
X129438242Y-123592858D01*
X129499529Y-123444899D01*
X129588499Y-123311745D01*
X129701745Y-123198499D01*
X129834899Y-123109529D01*
X129982858Y-123048242D01*
X130139925Y-123017000D01*
X130300075Y-123017000D01*
X130457142Y-123048242D01*
X130457142Y-123048242D01*
G37*
G36*
X135537142Y-123048242D02*
G01*
X135685101Y-123109529D01*
X135818255Y-123198499D01*
X135931501Y-123311745D01*
X136020471Y-123444899D01*
X136081758Y-123592858D01*
X136113000Y-123749925D01*
X136113000Y-123910075D01*
X136081758Y-124067142D01*
X136020471Y-124215101D01*
X135931501Y-124348255D01*
X135818255Y-124461501D01*
X135685101Y-124550471D01*
X135537142Y-124611758D01*
X135380075Y-124643000D01*
X135219925Y-124643000D01*
X135062858Y-124611758D01*
X134914899Y-124550471D01*
X134781745Y-124461501D01*
X134668499Y-124348255D01*
X134579529Y-124215101D01*
X134518242Y-124067142D01*
X134487000Y-123910075D01*
X134487000Y-123749925D01*
X134518242Y-123592858D01*
X134579529Y-123444899D01*
X134668499Y-123311745D01*
X134781745Y-123198499D01*
X134914899Y-123109529D01*
X135062858Y-123048242D01*
X135219925Y-123017000D01*
X135380075Y-123017000D01*
X135537142Y-123048242D01*
X135537142Y-123048242D01*
G37*
G36*
X138077142Y-123048242D02*
G01*
X138225101Y-123109529D01*
X138358255Y-123198499D01*
X138471501Y-123311745D01*
X138560471Y-123444899D01*
X138621758Y-123592858D01*
X138653000Y-123749925D01*
X138653000Y-123910075D01*
X138621758Y-124067142D01*
X138560471Y-124215101D01*
X138471501Y-124348255D01*
X138358255Y-124461501D01*
X138225101Y-124550471D01*
X138077142Y-124611758D01*
X137920075Y-124643000D01*
X137759925Y-124643000D01*
X137602858Y-124611758D01*
X137454899Y-124550471D01*
X137321745Y-124461501D01*
X137208499Y-124348255D01*
X137119529Y-124215101D01*
X137058242Y-124067142D01*
X137027000Y-123910075D01*
X137027000Y-123749925D01*
X137058242Y-123592858D01*
X137119529Y-123444899D01*
X137208499Y-123311745D01*
X137321745Y-123198499D01*
X137454899Y-123109529D01*
X137602858Y-123048242D01*
X137759925Y-123017000D01*
X137920075Y-123017000D01*
X138077142Y-123048242D01*
X138077142Y-123048242D01*
G37*
G36*
X116375256Y-120391298D02*
G01*
X116481579Y-120412447D01*
X116782042Y-120536903D01*
X117052451Y-120717585D01*
X117282415Y-120947549D01*
X117463097Y-121217958D01*
X117587553Y-121518421D01*
X117651000Y-121837391D01*
X117651000Y-122162609D01*
X117587553Y-122481579D01*
X117463097Y-122782042D01*
X117282415Y-123052451D01*
X117052451Y-123282415D01*
X116782042Y-123463097D01*
X116481579Y-123587553D01*
X116375256Y-123608702D01*
X116162611Y-123651000D01*
X115837389Y-123651000D01*
X115624744Y-123608702D01*
X115518421Y-123587553D01*
X115217958Y-123463097D01*
X114947549Y-123282415D01*
X114717585Y-123052451D01*
X114536903Y-122782042D01*
X114412447Y-122481579D01*
X114349000Y-122162609D01*
X114349000Y-121837391D01*
X114412447Y-121518421D01*
X114536903Y-121217958D01*
X114717585Y-120947549D01*
X114947549Y-120717585D01*
X115217958Y-120536903D01*
X115518421Y-120412447D01*
X115624744Y-120391298D01*
X115837389Y-120349000D01*
X116162611Y-120349000D01*
X116375256Y-120391298D01*
X116375256Y-120391298D01*
G37*
G36*
X175375256Y-120391298D02*
G01*
X175481579Y-120412447D01*
X175782042Y-120536903D01*
X176052451Y-120717585D01*
X176282415Y-120947549D01*
X176463097Y-121217958D01*
X176587553Y-121518421D01*
X176651000Y-121837391D01*
X176651000Y-122162609D01*
X176587553Y-122481579D01*
X176463097Y-122782042D01*
X176282415Y-123052451D01*
X176052451Y-123282415D01*
X175782042Y-123463097D01*
X175481579Y-123587553D01*
X175375256Y-123608702D01*
X175162611Y-123651000D01*
X174837389Y-123651000D01*
X174624744Y-123608702D01*
X174518421Y-123587553D01*
X174217958Y-123463097D01*
X173947549Y-123282415D01*
X173717585Y-123052451D01*
X173536903Y-122782042D01*
X173412447Y-122481579D01*
X173349000Y-122162609D01*
X173349000Y-121837391D01*
X173412447Y-121518421D01*
X173536903Y-121217958D01*
X173717585Y-120947549D01*
X173947549Y-120717585D01*
X174217958Y-120536903D01*
X174518421Y-120412447D01*
X174624744Y-120391298D01*
X174837389Y-120349000D01*
X175162611Y-120349000D01*
X175375256Y-120391298D01*
X175375256Y-120391298D01*
G37*
G36*
X152267787Y-88453323D02*
G01*
X152397719Y-88507143D01*
X152438857Y-88524183D01*
X152592815Y-88627055D01*
X152723745Y-88757985D01*
X152819639Y-88901499D01*
X152826618Y-88911945D01*
X152897477Y-89083013D01*
X152933600Y-89264617D01*
X152933600Y-89449783D01*
X152897477Y-89631387D01*
X152826618Y-89802455D01*
X152826617Y-89802457D01*
X152723745Y-89956415D01*
X152592815Y-90087345D01*
X152438857Y-90190217D01*
X152438856Y-90190218D01*
X152438855Y-90190218D01*
X152267787Y-90261077D01*
X152086183Y-90297200D01*
X151901017Y-90297200D01*
X151719413Y-90261077D01*
X151548345Y-90190218D01*
X151548344Y-90190218D01*
X151548343Y-90190217D01*
X151394385Y-90087345D01*
X151263455Y-89956415D01*
X151160583Y-89802457D01*
X151160582Y-89802455D01*
X151089723Y-89631387D01*
X151053600Y-89449783D01*
X151053600Y-89264617D01*
X151089723Y-89083013D01*
X151160582Y-88911945D01*
X151167562Y-88901499D01*
X151263455Y-88757985D01*
X151394385Y-88627055D01*
X151548343Y-88524183D01*
X151589481Y-88507143D01*
X151719413Y-88453323D01*
X151901017Y-88417200D01*
X152086183Y-88417200D01*
X152267787Y-88453323D01*
X152267787Y-88453323D01*
G37*
G36*
X157347787Y-88453323D02*
G01*
X157477719Y-88507143D01*
X157518857Y-88524183D01*
X157672815Y-88627055D01*
X157803745Y-88757985D01*
X157899639Y-88901499D01*
X157906618Y-88911945D01*
X157977477Y-89083013D01*
X158013600Y-89264617D01*
X158013600Y-89449783D01*
X157977477Y-89631387D01*
X157906618Y-89802455D01*
X157906617Y-89802457D01*
X157803745Y-89956415D01*
X157672815Y-90087345D01*
X157518857Y-90190217D01*
X157518856Y-90190218D01*
X157518855Y-90190218D01*
X157347787Y-90261077D01*
X157166183Y-90297200D01*
X156981017Y-90297200D01*
X156799413Y-90261077D01*
X156628345Y-90190218D01*
X156628344Y-90190218D01*
X156628343Y-90190217D01*
X156474385Y-90087345D01*
X156343455Y-89956415D01*
X156240583Y-89802457D01*
X156240582Y-89802455D01*
X156169723Y-89631387D01*
X156133600Y-89449783D01*
X156133600Y-89264617D01*
X156169723Y-89083013D01*
X156240582Y-88911945D01*
X156247562Y-88901499D01*
X156343455Y-88757985D01*
X156474385Y-88627055D01*
X156628343Y-88524183D01*
X156669481Y-88507143D01*
X156799413Y-88453323D01*
X156981017Y-88417200D01*
X157166183Y-88417200D01*
X157347787Y-88453323D01*
X157347787Y-88453323D01*
G37*
G36*
X159887787Y-88453323D02*
G01*
X160017719Y-88507143D01*
X160058857Y-88524183D01*
X160212815Y-88627055D01*
X160343745Y-88757985D01*
X160439639Y-88901499D01*
X160446618Y-88911945D01*
X160517477Y-89083013D01*
X160553600Y-89264617D01*
X160553600Y-89449783D01*
X160517477Y-89631387D01*
X160446618Y-89802455D01*
X160446617Y-89802457D01*
X160343745Y-89956415D01*
X160212815Y-90087345D01*
X160058857Y-90190217D01*
X160058856Y-90190218D01*
X160058855Y-90190218D01*
X159887787Y-90261077D01*
X159706183Y-90297200D01*
X159521017Y-90297200D01*
X159339413Y-90261077D01*
X159168345Y-90190218D01*
X159168344Y-90190218D01*
X159168343Y-90190217D01*
X159014385Y-90087345D01*
X158883455Y-89956415D01*
X158780583Y-89802457D01*
X158780582Y-89802455D01*
X158709723Y-89631387D01*
X158673600Y-89449783D01*
X158673600Y-89264617D01*
X158709723Y-89083013D01*
X158780582Y-88911945D01*
X158787562Y-88901499D01*
X158883455Y-88757985D01*
X159014385Y-88627055D01*
X159168343Y-88524183D01*
X159209481Y-88507143D01*
X159339413Y-88453323D01*
X159521017Y-88417200D01*
X159706183Y-88417200D01*
X159887787Y-88453323D01*
X159887787Y-88453323D01*
G37*
G36*
X162427787Y-88453323D02*
G01*
X162557719Y-88507143D01*
X162598857Y-88524183D01*
X162752815Y-88627055D01*
X162883745Y-88757985D01*
X162979639Y-88901499D01*
X162986618Y-88911945D01*
X163057477Y-89083013D01*
X163093600Y-89264617D01*
X163093600Y-89449783D01*
X163057477Y-89631387D01*
X162986618Y-89802455D01*
X162986617Y-89802457D01*
X162883745Y-89956415D01*
X162752815Y-90087345D01*
X162598857Y-90190217D01*
X162598856Y-90190218D01*
X162598855Y-90190218D01*
X162427787Y-90261077D01*
X162246183Y-90297200D01*
X162061017Y-90297200D01*
X161879413Y-90261077D01*
X161708345Y-90190218D01*
X161708344Y-90190218D01*
X161708343Y-90190217D01*
X161554385Y-90087345D01*
X161423455Y-89956415D01*
X161320583Y-89802457D01*
X161320582Y-89802455D01*
X161249723Y-89631387D01*
X161213600Y-89449783D01*
X161213600Y-89264617D01*
X161249723Y-89083013D01*
X161320582Y-88911945D01*
X161327562Y-88901499D01*
X161423455Y-88757985D01*
X161554385Y-88627055D01*
X161708343Y-88524183D01*
X161749481Y-88507143D01*
X161879413Y-88453323D01*
X162061017Y-88417200D01*
X162246183Y-88417200D01*
X162427787Y-88453323D01*
X162427787Y-88453323D01*
G37*
G36*
X167507787Y-88453323D02*
G01*
X167637719Y-88507143D01*
X167678857Y-88524183D01*
X167832815Y-88627055D01*
X167963745Y-88757985D01*
X168059639Y-88901499D01*
X168066618Y-88911945D01*
X168137477Y-89083013D01*
X168173600Y-89264617D01*
X168173600Y-89449783D01*
X168137477Y-89631387D01*
X168066618Y-89802455D01*
X168066617Y-89802457D01*
X167963745Y-89956415D01*
X167832815Y-90087345D01*
X167678857Y-90190217D01*
X167678856Y-90190218D01*
X167678855Y-90190218D01*
X167507787Y-90261077D01*
X167326183Y-90297200D01*
X167141017Y-90297200D01*
X166959413Y-90261077D01*
X166788345Y-90190218D01*
X166788344Y-90190218D01*
X166788343Y-90190217D01*
X166634385Y-90087345D01*
X166503455Y-89956415D01*
X166400583Y-89802457D01*
X166400582Y-89802455D01*
X166329723Y-89631387D01*
X166293600Y-89449783D01*
X166293600Y-89264617D01*
X166329723Y-89083013D01*
X166400582Y-88911945D01*
X166407562Y-88901499D01*
X166503455Y-88757985D01*
X166634385Y-88627055D01*
X166788343Y-88524183D01*
X166829481Y-88507143D01*
X166959413Y-88453323D01*
X167141017Y-88417200D01*
X167326183Y-88417200D01*
X167507787Y-88453323D01*
X167507787Y-88453323D01*
G37*
G36*
X170047787Y-88453323D02*
G01*
X170177719Y-88507143D01*
X170218857Y-88524183D01*
X170372815Y-88627055D01*
X170503745Y-88757985D01*
X170599639Y-88901499D01*
X170606618Y-88911945D01*
X170677477Y-89083013D01*
X170713600Y-89264617D01*
X170713600Y-89449783D01*
X170677477Y-89631387D01*
X170606618Y-89802455D01*
X170606617Y-89802457D01*
X170503745Y-89956415D01*
X170372815Y-90087345D01*
X170218857Y-90190217D01*
X170218856Y-90190218D01*
X170218855Y-90190218D01*
X170047787Y-90261077D01*
X169866183Y-90297200D01*
X169681017Y-90297200D01*
X169499413Y-90261077D01*
X169328345Y-90190218D01*
X169328344Y-90190218D01*
X169328343Y-90190217D01*
X169174385Y-90087345D01*
X169043455Y-89956415D01*
X168940583Y-89802457D01*
X168940582Y-89802455D01*
X168869723Y-89631387D01*
X168833600Y-89449783D01*
X168833600Y-89264617D01*
X168869723Y-89083013D01*
X168940582Y-88911945D01*
X168947562Y-88901499D01*
X169043455Y-88757985D01*
X169174385Y-88627055D01*
X169328343Y-88524183D01*
X169369481Y-88507143D01*
X169499413Y-88453323D01*
X169681017Y-88417200D01*
X169866183Y-88417200D01*
X170047787Y-88453323D01*
X170047787Y-88453323D01*
G37*
G36*
X154807787Y-88453323D02*
G01*
X154937719Y-88507143D01*
X154978857Y-88524183D01*
X155132815Y-88627055D01*
X155263745Y-88757985D01*
X155359639Y-88901499D01*
X155366618Y-88911945D01*
X155437477Y-89083013D01*
X155473600Y-89264617D01*
X155473600Y-89449783D01*
X155437477Y-89631387D01*
X155366618Y-89802455D01*
X155366617Y-89802457D01*
X155263745Y-89956415D01*
X155132815Y-90087345D01*
X154978857Y-90190217D01*
X154978856Y-90190218D01*
X154978855Y-90190218D01*
X154807787Y-90261077D01*
X154626183Y-90297200D01*
X154441017Y-90297200D01*
X154259413Y-90261077D01*
X154088345Y-90190218D01*
X154088344Y-90190218D01*
X154088343Y-90190217D01*
X153934385Y-90087345D01*
X153803455Y-89956415D01*
X153700583Y-89802457D01*
X153700582Y-89802455D01*
X153629723Y-89631387D01*
X153593600Y-89449783D01*
X153593600Y-89264617D01*
X153629723Y-89083013D01*
X153700582Y-88911945D01*
X153707562Y-88901499D01*
X153803455Y-88757985D01*
X153934385Y-88627055D01*
X154088343Y-88524183D01*
X154129481Y-88507143D01*
X154259413Y-88453323D01*
X154441017Y-88417200D01*
X154626183Y-88417200D01*
X154807787Y-88453323D01*
X154807787Y-88453323D01*
G37*
G36*
X164967787Y-88453323D02*
G01*
X165097719Y-88507143D01*
X165138857Y-88524183D01*
X165292815Y-88627055D01*
X165423745Y-88757985D01*
X165519639Y-88901499D01*
X165526618Y-88911945D01*
X165597477Y-89083013D01*
X165633600Y-89264617D01*
X165633600Y-89449783D01*
X165597477Y-89631387D01*
X165526618Y-89802455D01*
X165526617Y-89802457D01*
X165423745Y-89956415D01*
X165292815Y-90087345D01*
X165138857Y-90190217D01*
X165138856Y-90190218D01*
X165138855Y-90190218D01*
X164967787Y-90261077D01*
X164786183Y-90297200D01*
X164601017Y-90297200D01*
X164419413Y-90261077D01*
X164248345Y-90190218D01*
X164248344Y-90190218D01*
X164248343Y-90190217D01*
X164094385Y-90087345D01*
X163963455Y-89956415D01*
X163860583Y-89802457D01*
X163860582Y-89802455D01*
X163789723Y-89631387D01*
X163753600Y-89449783D01*
X163753600Y-89264617D01*
X163789723Y-89083013D01*
X163860582Y-88911945D01*
X163867562Y-88901499D01*
X163963455Y-88757985D01*
X164094385Y-88627055D01*
X164248343Y-88524183D01*
X164289481Y-88507143D01*
X164419413Y-88453323D01*
X164601017Y-88417200D01*
X164786183Y-88417200D01*
X164967787Y-88453323D01*
X164967787Y-88453323D01*
G37*
G36*
X145697142Y-87488242D02*
G01*
X145845101Y-87549529D01*
X145978255Y-87638499D01*
X146091501Y-87751745D01*
X146180471Y-87884899D01*
X146241758Y-88032858D01*
X146273000Y-88189925D01*
X146273000Y-88350075D01*
X146241758Y-88507142D01*
X146180471Y-88655101D01*
X146091501Y-88788255D01*
X145978255Y-88901501D01*
X145845101Y-88990471D01*
X145697142Y-89051758D01*
X145540075Y-89083000D01*
X145379925Y-89083000D01*
X145222858Y-89051758D01*
X145074899Y-88990471D01*
X144941745Y-88901501D01*
X144828499Y-88788255D01*
X144739529Y-88655101D01*
X144678242Y-88507142D01*
X144647000Y-88350075D01*
X144647000Y-88189925D01*
X144678242Y-88032858D01*
X144739529Y-87884899D01*
X144828499Y-87751745D01*
X144941745Y-87638499D01*
X145074899Y-87549529D01*
X145222858Y-87488242D01*
X145379925Y-87457000D01*
X145540075Y-87457000D01*
X145697142Y-87488242D01*
X145697142Y-87488242D01*
G37*
G36*
X140617142Y-87488242D02*
G01*
X140765101Y-87549529D01*
X140898255Y-87638499D01*
X141011501Y-87751745D01*
X141100471Y-87884899D01*
X141161758Y-88032858D01*
X141193000Y-88189925D01*
X141193000Y-88350075D01*
X141161758Y-88507142D01*
X141100471Y-88655101D01*
X141011501Y-88788255D01*
X140898255Y-88901501D01*
X140765101Y-88990471D01*
X140617142Y-89051758D01*
X140460075Y-89083000D01*
X140299925Y-89083000D01*
X140142858Y-89051758D01*
X139994899Y-88990471D01*
X139861745Y-88901501D01*
X139748499Y-88788255D01*
X139659529Y-88655101D01*
X139598242Y-88507142D01*
X139567000Y-88350075D01*
X139567000Y-88189925D01*
X139598242Y-88032858D01*
X139659529Y-87884899D01*
X139748499Y-87751745D01*
X139861745Y-87638499D01*
X139994899Y-87549529D01*
X140142858Y-87488242D01*
X140299925Y-87457000D01*
X140460075Y-87457000D01*
X140617142Y-87488242D01*
X140617142Y-87488242D01*
G37*
G36*
X138077142Y-87488242D02*
G01*
X138225101Y-87549529D01*
X138358255Y-87638499D01*
X138471501Y-87751745D01*
X138560471Y-87884899D01*
X138621758Y-88032858D01*
X138653000Y-88189925D01*
X138653000Y-88350075D01*
X138621758Y-88507142D01*
X138560471Y-88655101D01*
X138471501Y-88788255D01*
X138358255Y-88901501D01*
X138225101Y-88990471D01*
X138077142Y-89051758D01*
X137920075Y-89083000D01*
X137759925Y-89083000D01*
X137602858Y-89051758D01*
X137454899Y-88990471D01*
X137321745Y-88901501D01*
X137208499Y-88788255D01*
X137119529Y-88655101D01*
X137058242Y-88507142D01*
X137027000Y-88350075D01*
X137027000Y-88189925D01*
X137058242Y-88032858D01*
X137119529Y-87884899D01*
X137208499Y-87751745D01*
X137321745Y-87638499D01*
X137454899Y-87549529D01*
X137602858Y-87488242D01*
X137759925Y-87457000D01*
X137920075Y-87457000D01*
X138077142Y-87488242D01*
X138077142Y-87488242D01*
G37*
G36*
X135537142Y-87488242D02*
G01*
X135685101Y-87549529D01*
X135818255Y-87638499D01*
X135931501Y-87751745D01*
X136020471Y-87884899D01*
X136081758Y-88032858D01*
X136113000Y-88189925D01*
X136113000Y-88350075D01*
X136081758Y-88507142D01*
X136020471Y-88655101D01*
X135931501Y-88788255D01*
X135818255Y-88901501D01*
X135685101Y-88990471D01*
X135537142Y-89051758D01*
X135380075Y-89083000D01*
X135219925Y-89083000D01*
X135062858Y-89051758D01*
X134914899Y-88990471D01*
X134781745Y-88901501D01*
X134668499Y-88788255D01*
X134579529Y-88655101D01*
X134518242Y-88507142D01*
X134487000Y-88350075D01*
X134487000Y-88189925D01*
X134518242Y-88032858D01*
X134579529Y-87884899D01*
X134668499Y-87751745D01*
X134781745Y-87638499D01*
X134914899Y-87549529D01*
X135062858Y-87488242D01*
X135219925Y-87457000D01*
X135380075Y-87457000D01*
X135537142Y-87488242D01*
X135537142Y-87488242D01*
G37*
G36*
X130457142Y-87488242D02*
G01*
X130605101Y-87549529D01*
X130738255Y-87638499D01*
X130851501Y-87751745D01*
X130940471Y-87884899D01*
X131001758Y-88032858D01*
X131033000Y-88189925D01*
X131033000Y-88350075D01*
X131001758Y-88507142D01*
X130940471Y-88655101D01*
X130851501Y-88788255D01*
X130738255Y-88901501D01*
X130605101Y-88990471D01*
X130457142Y-89051758D01*
X130300075Y-89083000D01*
X130139925Y-89083000D01*
X129982858Y-89051758D01*
X129834899Y-88990471D01*
X129701745Y-88901501D01*
X129588499Y-88788255D01*
X129499529Y-88655101D01*
X129438242Y-88507142D01*
X129407000Y-88350075D01*
X129407000Y-88189925D01*
X129438242Y-88032858D01*
X129499529Y-87884899D01*
X129588499Y-87751745D01*
X129701745Y-87638499D01*
X129834899Y-87549529D01*
X129982858Y-87488242D01*
X130139925Y-87457000D01*
X130300075Y-87457000D01*
X130457142Y-87488242D01*
X130457142Y-87488242D01*
G37*
G36*
X132997142Y-87488242D02*
G01*
X133145101Y-87549529D01*
X133278255Y-87638499D01*
X133391501Y-87751745D01*
X133480471Y-87884899D01*
X133541758Y-88032858D01*
X133573000Y-88189925D01*
X133573000Y-88350075D01*
X133541758Y-88507142D01*
X133480471Y-88655101D01*
X133391501Y-88788255D01*
X133278255Y-88901501D01*
X133145101Y-88990471D01*
X132997142Y-89051758D01*
X132840075Y-89083000D01*
X132679925Y-89083000D01*
X132522858Y-89051758D01*
X132374899Y-88990471D01*
X132241745Y-88901501D01*
X132128499Y-88788255D01*
X132039529Y-88655101D01*
X131978242Y-88507142D01*
X131947000Y-88350075D01*
X131947000Y-88189925D01*
X131978242Y-88032858D01*
X132039529Y-87884899D01*
X132128499Y-87751745D01*
X132241745Y-87638499D01*
X132374899Y-87549529D01*
X132522858Y-87488242D01*
X132679925Y-87457000D01*
X132840075Y-87457000D01*
X132997142Y-87488242D01*
X132997142Y-87488242D01*
G37*
G36*
X127917142Y-87488242D02*
G01*
X128065101Y-87549529D01*
X128198255Y-87638499D01*
X128311501Y-87751745D01*
X128400471Y-87884899D01*
X128461758Y-88032858D01*
X128493000Y-88189925D01*
X128493000Y-88350075D01*
X128461758Y-88507142D01*
X128400471Y-88655101D01*
X128311501Y-88788255D01*
X128198255Y-88901501D01*
X128065101Y-88990471D01*
X127917142Y-89051758D01*
X127760075Y-89083000D01*
X127599925Y-89083000D01*
X127442858Y-89051758D01*
X127294899Y-88990471D01*
X127161745Y-88901501D01*
X127048499Y-88788255D01*
X126959529Y-88655101D01*
X126898242Y-88507142D01*
X126867000Y-88350075D01*
X126867000Y-88189925D01*
X126898242Y-88032858D01*
X126959529Y-87884899D01*
X127048499Y-87751745D01*
X127161745Y-87638499D01*
X127294899Y-87549529D01*
X127442858Y-87488242D01*
X127599925Y-87457000D01*
X127760075Y-87457000D01*
X127917142Y-87488242D01*
X127917142Y-87488242D01*
G37*
G36*
X125377142Y-87488242D02*
G01*
X125525101Y-87549529D01*
X125658255Y-87638499D01*
X125771501Y-87751745D01*
X125860471Y-87884899D01*
X125921758Y-88032858D01*
X125953000Y-88189925D01*
X125953000Y-88350075D01*
X125921758Y-88507142D01*
X125860471Y-88655101D01*
X125771501Y-88788255D01*
X125658255Y-88901501D01*
X125525101Y-88990471D01*
X125377142Y-89051758D01*
X125220075Y-89083000D01*
X125059925Y-89083000D01*
X124902858Y-89051758D01*
X124754899Y-88990471D01*
X124621745Y-88901501D01*
X124508499Y-88788255D01*
X124419529Y-88655101D01*
X124358242Y-88507142D01*
X124327000Y-88350075D01*
X124327000Y-88189925D01*
X124358242Y-88032858D01*
X124419529Y-87884899D01*
X124508499Y-87751745D01*
X124621745Y-87638499D01*
X124754899Y-87549529D01*
X124902858Y-87488242D01*
X125059925Y-87457000D01*
X125220075Y-87457000D01*
X125377142Y-87488242D01*
X125377142Y-87488242D01*
G37*
G36*
X122837142Y-87488242D02*
G01*
X122985101Y-87549529D01*
X123118255Y-87638499D01*
X123231501Y-87751745D01*
X123320471Y-87884899D01*
X123381758Y-88032858D01*
X123413000Y-88189925D01*
X123413000Y-88350075D01*
X123381758Y-88507142D01*
X123320471Y-88655101D01*
X123231501Y-88788255D01*
X123118255Y-88901501D01*
X122985101Y-88990471D01*
X122837142Y-89051758D01*
X122680075Y-89083000D01*
X122519925Y-89083000D01*
X122362858Y-89051758D01*
X122214899Y-88990471D01*
X122081745Y-88901501D01*
X121968499Y-88788255D01*
X121879529Y-88655101D01*
X121818242Y-88507142D01*
X121787000Y-88350075D01*
X121787000Y-88189925D01*
X121818242Y-88032858D01*
X121879529Y-87884899D01*
X121968499Y-87751745D01*
X122081745Y-87638499D01*
X122214899Y-87549529D01*
X122362858Y-87488242D01*
X122519925Y-87457000D01*
X122680075Y-87457000D01*
X122837142Y-87488242D01*
X122837142Y-87488242D01*
G37*
G36*
X143157142Y-87488242D02*
G01*
X143305101Y-87549529D01*
X143438255Y-87638499D01*
X143551501Y-87751745D01*
X143640471Y-87884899D01*
X143701758Y-88032858D01*
X143733000Y-88189925D01*
X143733000Y-88350075D01*
X143701758Y-88507142D01*
X143640471Y-88655101D01*
X143551501Y-88788255D01*
X143438255Y-88901501D01*
X143305101Y-88990471D01*
X143157142Y-89051758D01*
X143000075Y-89083000D01*
X142839925Y-89083000D01*
X142682858Y-89051758D01*
X142534899Y-88990471D01*
X142401745Y-88901501D01*
X142288499Y-88788255D01*
X142199529Y-88655101D01*
X142138242Y-88507142D01*
X142107000Y-88350075D01*
X142107000Y-88189925D01*
X142138242Y-88032858D01*
X142199529Y-87884899D01*
X142288499Y-87751745D01*
X142401745Y-87638499D01*
X142534899Y-87549529D01*
X142682858Y-87488242D01*
X142839925Y-87457000D01*
X143000075Y-87457000D01*
X143157142Y-87488242D01*
X143157142Y-87488242D01*
G37*
G36*
X149415443Y-81880519D02*
G01*
X149481627Y-81887037D01*
X149651466Y-81938557D01*
X149807991Y-82022222D01*
X149843729Y-82051552D01*
X149945186Y-82134814D01*
X150028448Y-82236271D01*
X150057778Y-82272009D01*
X150141443Y-82428534D01*
X150192963Y-82598373D01*
X150210359Y-82775000D01*
X150192963Y-82951627D01*
X150141443Y-83121466D01*
X150057778Y-83277991D01*
X150028448Y-83313729D01*
X149945186Y-83415186D01*
X149843729Y-83498448D01*
X149807991Y-83527778D01*
X149651466Y-83611443D01*
X149481627Y-83662963D01*
X149415443Y-83669481D01*
X149349260Y-83676000D01*
X149260740Y-83676000D01*
X149194557Y-83669481D01*
X149128373Y-83662963D01*
X148958534Y-83611443D01*
X148802009Y-83527778D01*
X148766271Y-83498448D01*
X148664814Y-83415186D01*
X148581552Y-83313729D01*
X148552222Y-83277991D01*
X148468557Y-83121466D01*
X148417037Y-82951627D01*
X148399641Y-82775000D01*
X148417037Y-82598373D01*
X148468557Y-82428534D01*
X148552222Y-82272009D01*
X148581552Y-82236271D01*
X148664814Y-82134814D01*
X148766271Y-82051552D01*
X148802009Y-82022222D01*
X148958534Y-81938557D01*
X149128373Y-81887037D01*
X149194557Y-81880519D01*
X149260740Y-81874000D01*
X149349260Y-81874000D01*
X149415443Y-81880519D01*
X149415443Y-81880519D01*
G37*
G36*
X162115443Y-81880519D02*
G01*
X162181627Y-81887037D01*
X162351466Y-81938557D01*
X162507991Y-82022222D01*
X162543729Y-82051552D01*
X162645186Y-82134814D01*
X162728448Y-82236271D01*
X162757778Y-82272009D01*
X162841443Y-82428534D01*
X162892963Y-82598373D01*
X162910359Y-82775000D01*
X162892963Y-82951627D01*
X162841443Y-83121466D01*
X162757778Y-83277991D01*
X162728448Y-83313729D01*
X162645186Y-83415186D01*
X162543729Y-83498448D01*
X162507991Y-83527778D01*
X162351466Y-83611443D01*
X162181627Y-83662963D01*
X162115443Y-83669481D01*
X162049260Y-83676000D01*
X161960740Y-83676000D01*
X161894557Y-83669481D01*
X161828373Y-83662963D01*
X161658534Y-83611443D01*
X161502009Y-83527778D01*
X161466271Y-83498448D01*
X161364814Y-83415186D01*
X161281552Y-83313729D01*
X161252222Y-83277991D01*
X161168557Y-83121466D01*
X161117037Y-82951627D01*
X161099641Y-82775000D01*
X161117037Y-82598373D01*
X161168557Y-82428534D01*
X161252222Y-82272009D01*
X161281552Y-82236271D01*
X161364814Y-82134814D01*
X161466271Y-82051552D01*
X161502009Y-82022222D01*
X161658534Y-81938557D01*
X161828373Y-81887037D01*
X161894557Y-81880519D01*
X161960740Y-81874000D01*
X162049260Y-81874000D01*
X162115443Y-81880519D01*
X162115443Y-81880519D01*
G37*
G36*
X164655443Y-81880519D02*
G01*
X164721627Y-81887037D01*
X164891466Y-81938557D01*
X165047991Y-82022222D01*
X165083729Y-82051552D01*
X165185186Y-82134814D01*
X165268448Y-82236271D01*
X165297778Y-82272009D01*
X165381443Y-82428534D01*
X165432963Y-82598373D01*
X165450359Y-82775000D01*
X165432963Y-82951627D01*
X165381443Y-83121466D01*
X165297778Y-83277991D01*
X165268448Y-83313729D01*
X165185186Y-83415186D01*
X165083729Y-83498448D01*
X165047991Y-83527778D01*
X164891466Y-83611443D01*
X164721627Y-83662963D01*
X164655443Y-83669481D01*
X164589260Y-83676000D01*
X164500740Y-83676000D01*
X164434557Y-83669481D01*
X164368373Y-83662963D01*
X164198534Y-83611443D01*
X164042009Y-83527778D01*
X164006271Y-83498448D01*
X163904814Y-83415186D01*
X163821552Y-83313729D01*
X163792222Y-83277991D01*
X163708557Y-83121466D01*
X163657037Y-82951627D01*
X163639641Y-82775000D01*
X163657037Y-82598373D01*
X163708557Y-82428534D01*
X163792222Y-82272009D01*
X163821552Y-82236271D01*
X163904814Y-82134814D01*
X164006271Y-82051552D01*
X164042009Y-82022222D01*
X164198534Y-81938557D01*
X164368373Y-81887037D01*
X164434557Y-81880519D01*
X164500740Y-81874000D01*
X164589260Y-81874000D01*
X164655443Y-81880519D01*
X164655443Y-81880519D01*
G37*
G36*
X167195443Y-81880519D02*
G01*
X167261627Y-81887037D01*
X167431466Y-81938557D01*
X167587991Y-82022222D01*
X167623729Y-82051552D01*
X167725186Y-82134814D01*
X167808448Y-82236271D01*
X167837778Y-82272009D01*
X167921443Y-82428534D01*
X167972963Y-82598373D01*
X167990359Y-82775000D01*
X167972963Y-82951627D01*
X167921443Y-83121466D01*
X167837778Y-83277991D01*
X167808448Y-83313729D01*
X167725186Y-83415186D01*
X167623729Y-83498448D01*
X167587991Y-83527778D01*
X167431466Y-83611443D01*
X167261627Y-83662963D01*
X167195443Y-83669481D01*
X167129260Y-83676000D01*
X167040740Y-83676000D01*
X166974557Y-83669481D01*
X166908373Y-83662963D01*
X166738534Y-83611443D01*
X166582009Y-83527778D01*
X166546271Y-83498448D01*
X166444814Y-83415186D01*
X166361552Y-83313729D01*
X166332222Y-83277991D01*
X166248557Y-83121466D01*
X166197037Y-82951627D01*
X166179641Y-82775000D01*
X166197037Y-82598373D01*
X166248557Y-82428534D01*
X166332222Y-82272009D01*
X166361552Y-82236271D01*
X166444814Y-82134814D01*
X166546271Y-82051552D01*
X166582009Y-82022222D01*
X166738534Y-81938557D01*
X166908373Y-81887037D01*
X166974557Y-81880519D01*
X167040740Y-81874000D01*
X167129260Y-81874000D01*
X167195443Y-81880519D01*
X167195443Y-81880519D01*
G37*
G36*
X170526000Y-83676000D02*
G01*
X168724000Y-83676000D01*
X168724000Y-81874000D01*
X170526000Y-81874000D01*
X170526000Y-83676000D01*
X170526000Y-83676000D01*
G37*
G36*
X144335443Y-81880519D02*
G01*
X144401627Y-81887037D01*
X144571466Y-81938557D01*
X144727991Y-82022222D01*
X144763729Y-82051552D01*
X144865186Y-82134814D01*
X144948448Y-82236271D01*
X144977778Y-82272009D01*
X145061443Y-82428534D01*
X145112963Y-82598373D01*
X145130359Y-82775000D01*
X145112963Y-82951627D01*
X145061443Y-83121466D01*
X144977778Y-83277991D01*
X144948448Y-83313729D01*
X144865186Y-83415186D01*
X144763729Y-83498448D01*
X144727991Y-83527778D01*
X144571466Y-83611443D01*
X144401627Y-83662963D01*
X144335443Y-83669481D01*
X144269260Y-83676000D01*
X144180740Y-83676000D01*
X144114557Y-83669481D01*
X144048373Y-83662963D01*
X143878534Y-83611443D01*
X143722009Y-83527778D01*
X143686271Y-83498448D01*
X143584814Y-83415186D01*
X143501552Y-83313729D01*
X143472222Y-83277991D01*
X143388557Y-83121466D01*
X143337037Y-82951627D01*
X143319641Y-82775000D01*
X143337037Y-82598373D01*
X143388557Y-82428534D01*
X143472222Y-82272009D01*
X143501552Y-82236271D01*
X143584814Y-82134814D01*
X143686271Y-82051552D01*
X143722009Y-82022222D01*
X143878534Y-81938557D01*
X144048373Y-81887037D01*
X144114557Y-81880519D01*
X144180740Y-81874000D01*
X144269260Y-81874000D01*
X144335443Y-81880519D01*
X144335443Y-81880519D01*
G37*
G36*
X157035443Y-81880519D02*
G01*
X157101627Y-81887037D01*
X157271466Y-81938557D01*
X157427991Y-82022222D01*
X157463729Y-82051552D01*
X157565186Y-82134814D01*
X157648448Y-82236271D01*
X157677778Y-82272009D01*
X157761443Y-82428534D01*
X157812963Y-82598373D01*
X157830359Y-82775000D01*
X157812963Y-82951627D01*
X157761443Y-83121466D01*
X157677778Y-83277991D01*
X157648448Y-83313729D01*
X157565186Y-83415186D01*
X157463729Y-83498448D01*
X157427991Y-83527778D01*
X157271466Y-83611443D01*
X157101627Y-83662963D01*
X157035443Y-83669481D01*
X156969260Y-83676000D01*
X156880740Y-83676000D01*
X156814557Y-83669481D01*
X156748373Y-83662963D01*
X156578534Y-83611443D01*
X156422009Y-83527778D01*
X156386271Y-83498448D01*
X156284814Y-83415186D01*
X156201552Y-83313729D01*
X156172222Y-83277991D01*
X156088557Y-83121466D01*
X156037037Y-82951627D01*
X156019641Y-82775000D01*
X156037037Y-82598373D01*
X156088557Y-82428534D01*
X156172222Y-82272009D01*
X156201552Y-82236271D01*
X156284814Y-82134814D01*
X156386271Y-82051552D01*
X156422009Y-82022222D01*
X156578534Y-81938557D01*
X156748373Y-81887037D01*
X156814557Y-81880519D01*
X156880740Y-81874000D01*
X156969260Y-81874000D01*
X157035443Y-81880519D01*
X157035443Y-81880519D01*
G37*
G36*
X154495443Y-81880519D02*
G01*
X154561627Y-81887037D01*
X154731466Y-81938557D01*
X154887991Y-82022222D01*
X154923729Y-82051552D01*
X155025186Y-82134814D01*
X155108448Y-82236271D01*
X155137778Y-82272009D01*
X155221443Y-82428534D01*
X155272963Y-82598373D01*
X155290359Y-82775000D01*
X155272963Y-82951627D01*
X155221443Y-83121466D01*
X155137778Y-83277991D01*
X155108448Y-83313729D01*
X155025186Y-83415186D01*
X154923729Y-83498448D01*
X154887991Y-83527778D01*
X154731466Y-83611443D01*
X154561627Y-83662963D01*
X154495443Y-83669481D01*
X154429260Y-83676000D01*
X154340740Y-83676000D01*
X154274557Y-83669481D01*
X154208373Y-83662963D01*
X154038534Y-83611443D01*
X153882009Y-83527778D01*
X153846271Y-83498448D01*
X153744814Y-83415186D01*
X153661552Y-83313729D01*
X153632222Y-83277991D01*
X153548557Y-83121466D01*
X153497037Y-82951627D01*
X153479641Y-82775000D01*
X153497037Y-82598373D01*
X153548557Y-82428534D01*
X153632222Y-82272009D01*
X153661552Y-82236271D01*
X153744814Y-82134814D01*
X153846271Y-82051552D01*
X153882009Y-82022222D01*
X154038534Y-81938557D01*
X154208373Y-81887037D01*
X154274557Y-81880519D01*
X154340740Y-81874000D01*
X154429260Y-81874000D01*
X154495443Y-81880519D01*
X154495443Y-81880519D01*
G37*
G36*
X151955443Y-81880519D02*
G01*
X152021627Y-81887037D01*
X152191466Y-81938557D01*
X152347991Y-82022222D01*
X152383729Y-82051552D01*
X152485186Y-82134814D01*
X152568448Y-82236271D01*
X152597778Y-82272009D01*
X152681443Y-82428534D01*
X152732963Y-82598373D01*
X152750359Y-82775000D01*
X152732963Y-82951627D01*
X152681443Y-83121466D01*
X152597778Y-83277991D01*
X152568448Y-83313729D01*
X152485186Y-83415186D01*
X152383729Y-83498448D01*
X152347991Y-83527778D01*
X152191466Y-83611443D01*
X152021627Y-83662963D01*
X151955443Y-83669481D01*
X151889260Y-83676000D01*
X151800740Y-83676000D01*
X151734557Y-83669481D01*
X151668373Y-83662963D01*
X151498534Y-83611443D01*
X151342009Y-83527778D01*
X151306271Y-83498448D01*
X151204814Y-83415186D01*
X151121552Y-83313729D01*
X151092222Y-83277991D01*
X151008557Y-83121466D01*
X150957037Y-82951627D01*
X150939641Y-82775000D01*
X150957037Y-82598373D01*
X151008557Y-82428534D01*
X151092222Y-82272009D01*
X151121552Y-82236271D01*
X151204814Y-82134814D01*
X151306271Y-82051552D01*
X151342009Y-82022222D01*
X151498534Y-81938557D01*
X151668373Y-81887037D01*
X151734557Y-81880519D01*
X151800740Y-81874000D01*
X151889260Y-81874000D01*
X151955443Y-81880519D01*
X151955443Y-81880519D01*
G37*
G36*
X146875443Y-81880519D02*
G01*
X146941627Y-81887037D01*
X147111466Y-81938557D01*
X147267991Y-82022222D01*
X147303729Y-82051552D01*
X147405186Y-82134814D01*
X147488448Y-82236271D01*
X147517778Y-82272009D01*
X147601443Y-82428534D01*
X147652963Y-82598373D01*
X147670359Y-82775000D01*
X147652963Y-82951627D01*
X147601443Y-83121466D01*
X147517778Y-83277991D01*
X147488448Y-83313729D01*
X147405186Y-83415186D01*
X147303729Y-83498448D01*
X147267991Y-83527778D01*
X147111466Y-83611443D01*
X146941627Y-83662963D01*
X146875443Y-83669481D01*
X146809260Y-83676000D01*
X146720740Y-83676000D01*
X146654557Y-83669481D01*
X146588373Y-83662963D01*
X146418534Y-83611443D01*
X146262009Y-83527778D01*
X146226271Y-83498448D01*
X146124814Y-83415186D01*
X146041552Y-83313729D01*
X146012222Y-83277991D01*
X145928557Y-83121466D01*
X145877037Y-82951627D01*
X145859641Y-82775000D01*
X145877037Y-82598373D01*
X145928557Y-82428534D01*
X146012222Y-82272009D01*
X146041552Y-82236271D01*
X146124814Y-82134814D01*
X146226271Y-82051552D01*
X146262009Y-82022222D01*
X146418534Y-81938557D01*
X146588373Y-81887037D01*
X146654557Y-81880519D01*
X146720740Y-81874000D01*
X146809260Y-81874000D01*
X146875443Y-81880519D01*
X146875443Y-81880519D01*
G37*
G36*
X139255443Y-81880519D02*
G01*
X139321627Y-81887037D01*
X139491466Y-81938557D01*
X139647991Y-82022222D01*
X139683729Y-82051552D01*
X139785186Y-82134814D01*
X139868448Y-82236271D01*
X139897778Y-82272009D01*
X139981443Y-82428534D01*
X140032963Y-82598373D01*
X140050359Y-82775000D01*
X140032963Y-82951627D01*
X139981443Y-83121466D01*
X139897778Y-83277991D01*
X139868448Y-83313729D01*
X139785186Y-83415186D01*
X139683729Y-83498448D01*
X139647991Y-83527778D01*
X139491466Y-83611443D01*
X139321627Y-83662963D01*
X139255443Y-83669481D01*
X139189260Y-83676000D01*
X139100740Y-83676000D01*
X139034557Y-83669481D01*
X138968373Y-83662963D01*
X138798534Y-83611443D01*
X138642009Y-83527778D01*
X138606271Y-83498448D01*
X138504814Y-83415186D01*
X138421552Y-83313729D01*
X138392222Y-83277991D01*
X138308557Y-83121466D01*
X138257037Y-82951627D01*
X138239641Y-82775000D01*
X138257037Y-82598373D01*
X138308557Y-82428534D01*
X138392222Y-82272009D01*
X138421552Y-82236271D01*
X138504814Y-82134814D01*
X138606271Y-82051552D01*
X138642009Y-82022222D01*
X138798534Y-81938557D01*
X138968373Y-81887037D01*
X139034557Y-81880519D01*
X139100740Y-81874000D01*
X139189260Y-81874000D01*
X139255443Y-81880519D01*
X139255443Y-81880519D01*
G37*
G36*
X141795443Y-81880519D02*
G01*
X141861627Y-81887037D01*
X142031466Y-81938557D01*
X142187991Y-82022222D01*
X142223729Y-82051552D01*
X142325186Y-82134814D01*
X142408448Y-82236271D01*
X142437778Y-82272009D01*
X142521443Y-82428534D01*
X142572963Y-82598373D01*
X142590359Y-82775000D01*
X142572963Y-82951627D01*
X142521443Y-83121466D01*
X142437778Y-83277991D01*
X142408448Y-83313729D01*
X142325186Y-83415186D01*
X142223729Y-83498448D01*
X142187991Y-83527778D01*
X142031466Y-83611443D01*
X141861627Y-83662963D01*
X141795443Y-83669481D01*
X141729260Y-83676000D01*
X141640740Y-83676000D01*
X141574557Y-83669481D01*
X141508373Y-83662963D01*
X141338534Y-83611443D01*
X141182009Y-83527778D01*
X141146271Y-83498448D01*
X141044814Y-83415186D01*
X140961552Y-83313729D01*
X140932222Y-83277991D01*
X140848557Y-83121466D01*
X140797037Y-82951627D01*
X140779641Y-82775000D01*
X140797037Y-82598373D01*
X140848557Y-82428534D01*
X140932222Y-82272009D01*
X140961552Y-82236271D01*
X141044814Y-82134814D01*
X141146271Y-82051552D01*
X141182009Y-82022222D01*
X141338534Y-81938557D01*
X141508373Y-81887037D01*
X141574557Y-81880519D01*
X141640740Y-81874000D01*
X141729260Y-81874000D01*
X141795443Y-81880519D01*
X141795443Y-81880519D01*
G37*
G36*
X121475443Y-81880519D02*
G01*
X121541627Y-81887037D01*
X121711466Y-81938557D01*
X121867991Y-82022222D01*
X121903729Y-82051552D01*
X122005186Y-82134814D01*
X122088448Y-82236271D01*
X122117778Y-82272009D01*
X122201443Y-82428534D01*
X122252963Y-82598373D01*
X122270359Y-82775000D01*
X122252963Y-82951627D01*
X122201443Y-83121466D01*
X122117778Y-83277991D01*
X122088448Y-83313729D01*
X122005186Y-83415186D01*
X121903729Y-83498448D01*
X121867991Y-83527778D01*
X121711466Y-83611443D01*
X121541627Y-83662963D01*
X121475443Y-83669481D01*
X121409260Y-83676000D01*
X121320740Y-83676000D01*
X121254557Y-83669481D01*
X121188373Y-83662963D01*
X121018534Y-83611443D01*
X120862009Y-83527778D01*
X120826271Y-83498448D01*
X120724814Y-83415186D01*
X120641552Y-83313729D01*
X120612222Y-83277991D01*
X120528557Y-83121466D01*
X120477037Y-82951627D01*
X120459641Y-82775000D01*
X120477037Y-82598373D01*
X120528557Y-82428534D01*
X120612222Y-82272009D01*
X120641552Y-82236271D01*
X120724814Y-82134814D01*
X120826271Y-82051552D01*
X120862009Y-82022222D01*
X121018534Y-81938557D01*
X121188373Y-81887037D01*
X121254557Y-81880519D01*
X121320740Y-81874000D01*
X121409260Y-81874000D01*
X121475443Y-81880519D01*
X121475443Y-81880519D01*
G37*
G36*
X159575443Y-81880519D02*
G01*
X159641627Y-81887037D01*
X159811466Y-81938557D01*
X159967991Y-82022222D01*
X160003729Y-82051552D01*
X160105186Y-82134814D01*
X160188448Y-82236271D01*
X160217778Y-82272009D01*
X160301443Y-82428534D01*
X160352963Y-82598373D01*
X160370359Y-82775000D01*
X160352963Y-82951627D01*
X160301443Y-83121466D01*
X160217778Y-83277991D01*
X160188448Y-83313729D01*
X160105186Y-83415186D01*
X160003729Y-83498448D01*
X159967991Y-83527778D01*
X159811466Y-83611443D01*
X159641627Y-83662963D01*
X159575443Y-83669481D01*
X159509260Y-83676000D01*
X159420740Y-83676000D01*
X159354557Y-83669481D01*
X159288373Y-83662963D01*
X159118534Y-83611443D01*
X158962009Y-83527778D01*
X158926271Y-83498448D01*
X158824814Y-83415186D01*
X158741552Y-83313729D01*
X158712222Y-83277991D01*
X158628557Y-83121466D01*
X158577037Y-82951627D01*
X158559641Y-82775000D01*
X158577037Y-82598373D01*
X158628557Y-82428534D01*
X158712222Y-82272009D01*
X158741552Y-82236271D01*
X158824814Y-82134814D01*
X158926271Y-82051552D01*
X158962009Y-82022222D01*
X159118534Y-81938557D01*
X159288373Y-81887037D01*
X159354557Y-81880519D01*
X159420740Y-81874000D01*
X159509260Y-81874000D01*
X159575443Y-81880519D01*
X159575443Y-81880519D01*
G37*
G36*
X124015443Y-81880519D02*
G01*
X124081627Y-81887037D01*
X124251466Y-81938557D01*
X124407991Y-82022222D01*
X124443729Y-82051552D01*
X124545186Y-82134814D01*
X124628448Y-82236271D01*
X124657778Y-82272009D01*
X124741443Y-82428534D01*
X124792963Y-82598373D01*
X124810359Y-82775000D01*
X124792963Y-82951627D01*
X124741443Y-83121466D01*
X124657778Y-83277991D01*
X124628448Y-83313729D01*
X124545186Y-83415186D01*
X124443729Y-83498448D01*
X124407991Y-83527778D01*
X124251466Y-83611443D01*
X124081627Y-83662963D01*
X124015443Y-83669481D01*
X123949260Y-83676000D01*
X123860740Y-83676000D01*
X123794557Y-83669481D01*
X123728373Y-83662963D01*
X123558534Y-83611443D01*
X123402009Y-83527778D01*
X123366271Y-83498448D01*
X123264814Y-83415186D01*
X123181552Y-83313729D01*
X123152222Y-83277991D01*
X123068557Y-83121466D01*
X123017037Y-82951627D01*
X122999641Y-82775000D01*
X123017037Y-82598373D01*
X123068557Y-82428534D01*
X123152222Y-82272009D01*
X123181552Y-82236271D01*
X123264814Y-82134814D01*
X123366271Y-82051552D01*
X123402009Y-82022222D01*
X123558534Y-81938557D01*
X123728373Y-81887037D01*
X123794557Y-81880519D01*
X123860740Y-81874000D01*
X123949260Y-81874000D01*
X124015443Y-81880519D01*
X124015443Y-81880519D01*
G37*
G36*
X126555443Y-81880519D02*
G01*
X126621627Y-81887037D01*
X126791466Y-81938557D01*
X126947991Y-82022222D01*
X126983729Y-82051552D01*
X127085186Y-82134814D01*
X127168448Y-82236271D01*
X127197778Y-82272009D01*
X127281443Y-82428534D01*
X127332963Y-82598373D01*
X127350359Y-82775000D01*
X127332963Y-82951627D01*
X127281443Y-83121466D01*
X127197778Y-83277991D01*
X127168448Y-83313729D01*
X127085186Y-83415186D01*
X126983729Y-83498448D01*
X126947991Y-83527778D01*
X126791466Y-83611443D01*
X126621627Y-83662963D01*
X126555443Y-83669481D01*
X126489260Y-83676000D01*
X126400740Y-83676000D01*
X126334557Y-83669481D01*
X126268373Y-83662963D01*
X126098534Y-83611443D01*
X125942009Y-83527778D01*
X125906271Y-83498448D01*
X125804814Y-83415186D01*
X125721552Y-83313729D01*
X125692222Y-83277991D01*
X125608557Y-83121466D01*
X125557037Y-82951627D01*
X125539641Y-82775000D01*
X125557037Y-82598373D01*
X125608557Y-82428534D01*
X125692222Y-82272009D01*
X125721552Y-82236271D01*
X125804814Y-82134814D01*
X125906271Y-82051552D01*
X125942009Y-82022222D01*
X126098534Y-81938557D01*
X126268373Y-81887037D01*
X126334557Y-81880519D01*
X126400740Y-81874000D01*
X126489260Y-81874000D01*
X126555443Y-81880519D01*
X126555443Y-81880519D01*
G37*
G36*
X129095443Y-81880519D02*
G01*
X129161627Y-81887037D01*
X129331466Y-81938557D01*
X129487991Y-82022222D01*
X129523729Y-82051552D01*
X129625186Y-82134814D01*
X129708448Y-82236271D01*
X129737778Y-82272009D01*
X129821443Y-82428534D01*
X129872963Y-82598373D01*
X129890359Y-82775000D01*
X129872963Y-82951627D01*
X129821443Y-83121466D01*
X129737778Y-83277991D01*
X129708448Y-83313729D01*
X129625186Y-83415186D01*
X129523729Y-83498448D01*
X129487991Y-83527778D01*
X129331466Y-83611443D01*
X129161627Y-83662963D01*
X129095443Y-83669481D01*
X129029260Y-83676000D01*
X128940740Y-83676000D01*
X128874557Y-83669481D01*
X128808373Y-83662963D01*
X128638534Y-83611443D01*
X128482009Y-83527778D01*
X128446271Y-83498448D01*
X128344814Y-83415186D01*
X128261552Y-83313729D01*
X128232222Y-83277991D01*
X128148557Y-83121466D01*
X128097037Y-82951627D01*
X128079641Y-82775000D01*
X128097037Y-82598373D01*
X128148557Y-82428534D01*
X128232222Y-82272009D01*
X128261552Y-82236271D01*
X128344814Y-82134814D01*
X128446271Y-82051552D01*
X128482009Y-82022222D01*
X128638534Y-81938557D01*
X128808373Y-81887037D01*
X128874557Y-81880519D01*
X128940740Y-81874000D01*
X129029260Y-81874000D01*
X129095443Y-81880519D01*
X129095443Y-81880519D01*
G37*
G36*
X131635443Y-81880519D02*
G01*
X131701627Y-81887037D01*
X131871466Y-81938557D01*
X132027991Y-82022222D01*
X132063729Y-82051552D01*
X132165186Y-82134814D01*
X132248448Y-82236271D01*
X132277778Y-82272009D01*
X132361443Y-82428534D01*
X132412963Y-82598373D01*
X132430359Y-82775000D01*
X132412963Y-82951627D01*
X132361443Y-83121466D01*
X132277778Y-83277991D01*
X132248448Y-83313729D01*
X132165186Y-83415186D01*
X132063729Y-83498448D01*
X132027991Y-83527778D01*
X131871466Y-83611443D01*
X131701627Y-83662963D01*
X131635443Y-83669481D01*
X131569260Y-83676000D01*
X131480740Y-83676000D01*
X131414557Y-83669481D01*
X131348373Y-83662963D01*
X131178534Y-83611443D01*
X131022009Y-83527778D01*
X130986271Y-83498448D01*
X130884814Y-83415186D01*
X130801552Y-83313729D01*
X130772222Y-83277991D01*
X130688557Y-83121466D01*
X130637037Y-82951627D01*
X130619641Y-82775000D01*
X130637037Y-82598373D01*
X130688557Y-82428534D01*
X130772222Y-82272009D01*
X130801552Y-82236271D01*
X130884814Y-82134814D01*
X130986271Y-82051552D01*
X131022009Y-82022222D01*
X131178534Y-81938557D01*
X131348373Y-81887037D01*
X131414557Y-81880519D01*
X131480740Y-81874000D01*
X131569260Y-81874000D01*
X131635443Y-81880519D01*
X131635443Y-81880519D01*
G37*
G36*
X134175443Y-81880519D02*
G01*
X134241627Y-81887037D01*
X134411466Y-81938557D01*
X134567991Y-82022222D01*
X134603729Y-82051552D01*
X134705186Y-82134814D01*
X134788448Y-82236271D01*
X134817778Y-82272009D01*
X134901443Y-82428534D01*
X134952963Y-82598373D01*
X134970359Y-82775000D01*
X134952963Y-82951627D01*
X134901443Y-83121466D01*
X134817778Y-83277991D01*
X134788448Y-83313729D01*
X134705186Y-83415186D01*
X134603729Y-83498448D01*
X134567991Y-83527778D01*
X134411466Y-83611443D01*
X134241627Y-83662963D01*
X134175443Y-83669481D01*
X134109260Y-83676000D01*
X134020740Y-83676000D01*
X133954557Y-83669481D01*
X133888373Y-83662963D01*
X133718534Y-83611443D01*
X133562009Y-83527778D01*
X133526271Y-83498448D01*
X133424814Y-83415186D01*
X133341552Y-83313729D01*
X133312222Y-83277991D01*
X133228557Y-83121466D01*
X133177037Y-82951627D01*
X133159641Y-82775000D01*
X133177037Y-82598373D01*
X133228557Y-82428534D01*
X133312222Y-82272009D01*
X133341552Y-82236271D01*
X133424814Y-82134814D01*
X133526271Y-82051552D01*
X133562009Y-82022222D01*
X133718534Y-81938557D01*
X133888373Y-81887037D01*
X133954557Y-81880519D01*
X134020740Y-81874000D01*
X134109260Y-81874000D01*
X134175443Y-81880519D01*
X134175443Y-81880519D01*
G37*
G36*
X136715443Y-81880519D02*
G01*
X136781627Y-81887037D01*
X136951466Y-81938557D01*
X137107991Y-82022222D01*
X137143729Y-82051552D01*
X137245186Y-82134814D01*
X137328448Y-82236271D01*
X137357778Y-82272009D01*
X137441443Y-82428534D01*
X137492963Y-82598373D01*
X137510359Y-82775000D01*
X137492963Y-82951627D01*
X137441443Y-83121466D01*
X137357778Y-83277991D01*
X137328448Y-83313729D01*
X137245186Y-83415186D01*
X137143729Y-83498448D01*
X137107991Y-83527778D01*
X136951466Y-83611443D01*
X136781627Y-83662963D01*
X136715443Y-83669481D01*
X136649260Y-83676000D01*
X136560740Y-83676000D01*
X136494557Y-83669481D01*
X136428373Y-83662963D01*
X136258534Y-83611443D01*
X136102009Y-83527778D01*
X136066271Y-83498448D01*
X135964814Y-83415186D01*
X135881552Y-83313729D01*
X135852222Y-83277991D01*
X135768557Y-83121466D01*
X135717037Y-82951627D01*
X135699641Y-82775000D01*
X135717037Y-82598373D01*
X135768557Y-82428534D01*
X135852222Y-82272009D01*
X135881552Y-82236271D01*
X135964814Y-82134814D01*
X136066271Y-82051552D01*
X136102009Y-82022222D01*
X136258534Y-81938557D01*
X136428373Y-81887037D01*
X136494557Y-81880519D01*
X136560740Y-81874000D01*
X136649260Y-81874000D01*
X136715443Y-81880519D01*
X136715443Y-81880519D01*
G37*
G36*
X169735442Y-79340518D02*
G01*
X169801627Y-79347037D01*
X169971466Y-79398557D01*
X170127991Y-79482222D01*
X170163729Y-79511552D01*
X170265186Y-79594814D01*
X170348448Y-79696271D01*
X170377778Y-79732009D01*
X170461443Y-79888534D01*
X170512963Y-80058373D01*
X170530359Y-80235000D01*
X170512963Y-80411627D01*
X170461443Y-80581466D01*
X170377778Y-80737991D01*
X170348448Y-80773729D01*
X170265186Y-80875186D01*
X170163729Y-80958448D01*
X170127991Y-80987778D01*
X169971466Y-81071443D01*
X169801627Y-81122963D01*
X169735443Y-81129481D01*
X169669260Y-81136000D01*
X169580740Y-81136000D01*
X169514557Y-81129481D01*
X169448373Y-81122963D01*
X169278534Y-81071443D01*
X169122009Y-80987778D01*
X169086271Y-80958448D01*
X168984814Y-80875186D01*
X168901552Y-80773729D01*
X168872222Y-80737991D01*
X168788557Y-80581466D01*
X168737037Y-80411627D01*
X168719641Y-80235000D01*
X168737037Y-80058373D01*
X168788557Y-79888534D01*
X168872222Y-79732009D01*
X168901552Y-79696271D01*
X168984814Y-79594814D01*
X169086271Y-79511552D01*
X169122009Y-79482222D01*
X169278534Y-79398557D01*
X169448373Y-79347037D01*
X169514558Y-79340518D01*
X169580740Y-79334000D01*
X169669260Y-79334000D01*
X169735442Y-79340518D01*
X169735442Y-79340518D01*
G37*
G36*
X167195442Y-79340518D02*
G01*
X167261627Y-79347037D01*
X167431466Y-79398557D01*
X167587991Y-79482222D01*
X167623729Y-79511552D01*
X167725186Y-79594814D01*
X167808448Y-79696271D01*
X167837778Y-79732009D01*
X167921443Y-79888534D01*
X167972963Y-80058373D01*
X167990359Y-80235000D01*
X167972963Y-80411627D01*
X167921443Y-80581466D01*
X167837778Y-80737991D01*
X167808448Y-80773729D01*
X167725186Y-80875186D01*
X167623729Y-80958448D01*
X167587991Y-80987778D01*
X167431466Y-81071443D01*
X167261627Y-81122963D01*
X167195443Y-81129481D01*
X167129260Y-81136000D01*
X167040740Y-81136000D01*
X166974557Y-81129481D01*
X166908373Y-81122963D01*
X166738534Y-81071443D01*
X166582009Y-80987778D01*
X166546271Y-80958448D01*
X166444814Y-80875186D01*
X166361552Y-80773729D01*
X166332222Y-80737991D01*
X166248557Y-80581466D01*
X166197037Y-80411627D01*
X166179641Y-80235000D01*
X166197037Y-80058373D01*
X166248557Y-79888534D01*
X166332222Y-79732009D01*
X166361552Y-79696271D01*
X166444814Y-79594814D01*
X166546271Y-79511552D01*
X166582009Y-79482222D01*
X166738534Y-79398557D01*
X166908373Y-79347037D01*
X166974558Y-79340518D01*
X167040740Y-79334000D01*
X167129260Y-79334000D01*
X167195442Y-79340518D01*
X167195442Y-79340518D01*
G37*
G36*
X164655442Y-79340518D02*
G01*
X164721627Y-79347037D01*
X164891466Y-79398557D01*
X165047991Y-79482222D01*
X165083729Y-79511552D01*
X165185186Y-79594814D01*
X165268448Y-79696271D01*
X165297778Y-79732009D01*
X165381443Y-79888534D01*
X165432963Y-80058373D01*
X165450359Y-80235000D01*
X165432963Y-80411627D01*
X165381443Y-80581466D01*
X165297778Y-80737991D01*
X165268448Y-80773729D01*
X165185186Y-80875186D01*
X165083729Y-80958448D01*
X165047991Y-80987778D01*
X164891466Y-81071443D01*
X164721627Y-81122963D01*
X164655443Y-81129481D01*
X164589260Y-81136000D01*
X164500740Y-81136000D01*
X164434557Y-81129481D01*
X164368373Y-81122963D01*
X164198534Y-81071443D01*
X164042009Y-80987778D01*
X164006271Y-80958448D01*
X163904814Y-80875186D01*
X163821552Y-80773729D01*
X163792222Y-80737991D01*
X163708557Y-80581466D01*
X163657037Y-80411627D01*
X163639641Y-80235000D01*
X163657037Y-80058373D01*
X163708557Y-79888534D01*
X163792222Y-79732009D01*
X163821552Y-79696271D01*
X163904814Y-79594814D01*
X164006271Y-79511552D01*
X164042009Y-79482222D01*
X164198534Y-79398557D01*
X164368373Y-79347037D01*
X164434558Y-79340518D01*
X164500740Y-79334000D01*
X164589260Y-79334000D01*
X164655442Y-79340518D01*
X164655442Y-79340518D01*
G37*
G36*
X162115442Y-79340518D02*
G01*
X162181627Y-79347037D01*
X162351466Y-79398557D01*
X162507991Y-79482222D01*
X162543729Y-79511552D01*
X162645186Y-79594814D01*
X162728448Y-79696271D01*
X162757778Y-79732009D01*
X162841443Y-79888534D01*
X162892963Y-80058373D01*
X162910359Y-80235000D01*
X162892963Y-80411627D01*
X162841443Y-80581466D01*
X162757778Y-80737991D01*
X162728448Y-80773729D01*
X162645186Y-80875186D01*
X162543729Y-80958448D01*
X162507991Y-80987778D01*
X162351466Y-81071443D01*
X162181627Y-81122963D01*
X162115443Y-81129481D01*
X162049260Y-81136000D01*
X161960740Y-81136000D01*
X161894557Y-81129481D01*
X161828373Y-81122963D01*
X161658534Y-81071443D01*
X161502009Y-80987778D01*
X161466271Y-80958448D01*
X161364814Y-80875186D01*
X161281552Y-80773729D01*
X161252222Y-80737991D01*
X161168557Y-80581466D01*
X161117037Y-80411627D01*
X161099641Y-80235000D01*
X161117037Y-80058373D01*
X161168557Y-79888534D01*
X161252222Y-79732009D01*
X161281552Y-79696271D01*
X161364814Y-79594814D01*
X161466271Y-79511552D01*
X161502009Y-79482222D01*
X161658534Y-79398557D01*
X161828373Y-79347037D01*
X161894558Y-79340518D01*
X161960740Y-79334000D01*
X162049260Y-79334000D01*
X162115442Y-79340518D01*
X162115442Y-79340518D01*
G37*
G36*
X157035442Y-79340518D02*
G01*
X157101627Y-79347037D01*
X157271466Y-79398557D01*
X157427991Y-79482222D01*
X157463729Y-79511552D01*
X157565186Y-79594814D01*
X157648448Y-79696271D01*
X157677778Y-79732009D01*
X157761443Y-79888534D01*
X157812963Y-80058373D01*
X157830359Y-80235000D01*
X157812963Y-80411627D01*
X157761443Y-80581466D01*
X157677778Y-80737991D01*
X157648448Y-80773729D01*
X157565186Y-80875186D01*
X157463729Y-80958448D01*
X157427991Y-80987778D01*
X157271466Y-81071443D01*
X157101627Y-81122963D01*
X157035443Y-81129481D01*
X156969260Y-81136000D01*
X156880740Y-81136000D01*
X156814557Y-81129481D01*
X156748373Y-81122963D01*
X156578534Y-81071443D01*
X156422009Y-80987778D01*
X156386271Y-80958448D01*
X156284814Y-80875186D01*
X156201552Y-80773729D01*
X156172222Y-80737991D01*
X156088557Y-80581466D01*
X156037037Y-80411627D01*
X156019641Y-80235000D01*
X156037037Y-80058373D01*
X156088557Y-79888534D01*
X156172222Y-79732009D01*
X156201552Y-79696271D01*
X156284814Y-79594814D01*
X156386271Y-79511552D01*
X156422009Y-79482222D01*
X156578534Y-79398557D01*
X156748373Y-79347037D01*
X156814558Y-79340518D01*
X156880740Y-79334000D01*
X156969260Y-79334000D01*
X157035442Y-79340518D01*
X157035442Y-79340518D01*
G37*
G36*
X154495442Y-79340518D02*
G01*
X154561627Y-79347037D01*
X154731466Y-79398557D01*
X154887991Y-79482222D01*
X154923729Y-79511552D01*
X155025186Y-79594814D01*
X155108448Y-79696271D01*
X155137778Y-79732009D01*
X155221443Y-79888534D01*
X155272963Y-80058373D01*
X155290359Y-80235000D01*
X155272963Y-80411627D01*
X155221443Y-80581466D01*
X155137778Y-80737991D01*
X155108448Y-80773729D01*
X155025186Y-80875186D01*
X154923729Y-80958448D01*
X154887991Y-80987778D01*
X154731466Y-81071443D01*
X154561627Y-81122963D01*
X154495443Y-81129481D01*
X154429260Y-81136000D01*
X154340740Y-81136000D01*
X154274557Y-81129481D01*
X154208373Y-81122963D01*
X154038534Y-81071443D01*
X153882009Y-80987778D01*
X153846271Y-80958448D01*
X153744814Y-80875186D01*
X153661552Y-80773729D01*
X153632222Y-80737991D01*
X153548557Y-80581466D01*
X153497037Y-80411627D01*
X153479641Y-80235000D01*
X153497037Y-80058373D01*
X153548557Y-79888534D01*
X153632222Y-79732009D01*
X153661552Y-79696271D01*
X153744814Y-79594814D01*
X153846271Y-79511552D01*
X153882009Y-79482222D01*
X154038534Y-79398557D01*
X154208373Y-79347037D01*
X154274558Y-79340518D01*
X154340740Y-79334000D01*
X154429260Y-79334000D01*
X154495442Y-79340518D01*
X154495442Y-79340518D01*
G37*
G36*
X151955442Y-79340518D02*
G01*
X152021627Y-79347037D01*
X152191466Y-79398557D01*
X152347991Y-79482222D01*
X152383729Y-79511552D01*
X152485186Y-79594814D01*
X152568448Y-79696271D01*
X152597778Y-79732009D01*
X152681443Y-79888534D01*
X152732963Y-80058373D01*
X152750359Y-80235000D01*
X152732963Y-80411627D01*
X152681443Y-80581466D01*
X152597778Y-80737991D01*
X152568448Y-80773729D01*
X152485186Y-80875186D01*
X152383729Y-80958448D01*
X152347991Y-80987778D01*
X152191466Y-81071443D01*
X152021627Y-81122963D01*
X151955443Y-81129481D01*
X151889260Y-81136000D01*
X151800740Y-81136000D01*
X151734557Y-81129481D01*
X151668373Y-81122963D01*
X151498534Y-81071443D01*
X151342009Y-80987778D01*
X151306271Y-80958448D01*
X151204814Y-80875186D01*
X151121552Y-80773729D01*
X151092222Y-80737991D01*
X151008557Y-80581466D01*
X150957037Y-80411627D01*
X150939641Y-80235000D01*
X150957037Y-80058373D01*
X151008557Y-79888534D01*
X151092222Y-79732009D01*
X151121552Y-79696271D01*
X151204814Y-79594814D01*
X151306271Y-79511552D01*
X151342009Y-79482222D01*
X151498534Y-79398557D01*
X151668373Y-79347037D01*
X151734558Y-79340518D01*
X151800740Y-79334000D01*
X151889260Y-79334000D01*
X151955442Y-79340518D01*
X151955442Y-79340518D01*
G37*
G36*
X149415442Y-79340518D02*
G01*
X149481627Y-79347037D01*
X149651466Y-79398557D01*
X149807991Y-79482222D01*
X149843729Y-79511552D01*
X149945186Y-79594814D01*
X150028448Y-79696271D01*
X150057778Y-79732009D01*
X150141443Y-79888534D01*
X150192963Y-80058373D01*
X150210359Y-80235000D01*
X150192963Y-80411627D01*
X150141443Y-80581466D01*
X150057778Y-80737991D01*
X150028448Y-80773729D01*
X149945186Y-80875186D01*
X149843729Y-80958448D01*
X149807991Y-80987778D01*
X149651466Y-81071443D01*
X149481627Y-81122963D01*
X149415443Y-81129481D01*
X149349260Y-81136000D01*
X149260740Y-81136000D01*
X149194557Y-81129481D01*
X149128373Y-81122963D01*
X148958534Y-81071443D01*
X148802009Y-80987778D01*
X148766271Y-80958448D01*
X148664814Y-80875186D01*
X148581552Y-80773729D01*
X148552222Y-80737991D01*
X148468557Y-80581466D01*
X148417037Y-80411627D01*
X148399641Y-80235000D01*
X148417037Y-80058373D01*
X148468557Y-79888534D01*
X148552222Y-79732009D01*
X148581552Y-79696271D01*
X148664814Y-79594814D01*
X148766271Y-79511552D01*
X148802009Y-79482222D01*
X148958534Y-79398557D01*
X149128373Y-79347037D01*
X149194558Y-79340518D01*
X149260740Y-79334000D01*
X149349260Y-79334000D01*
X149415442Y-79340518D01*
X149415442Y-79340518D01*
G37*
G36*
X146875442Y-79340518D02*
G01*
X146941627Y-79347037D01*
X147111466Y-79398557D01*
X147267991Y-79482222D01*
X147303729Y-79511552D01*
X147405186Y-79594814D01*
X147488448Y-79696271D01*
X147517778Y-79732009D01*
X147601443Y-79888534D01*
X147652963Y-80058373D01*
X147670359Y-80235000D01*
X147652963Y-80411627D01*
X147601443Y-80581466D01*
X147517778Y-80737991D01*
X147488448Y-80773729D01*
X147405186Y-80875186D01*
X147303729Y-80958448D01*
X147267991Y-80987778D01*
X147111466Y-81071443D01*
X146941627Y-81122963D01*
X146875443Y-81129481D01*
X146809260Y-81136000D01*
X146720740Y-81136000D01*
X146654557Y-81129481D01*
X146588373Y-81122963D01*
X146418534Y-81071443D01*
X146262009Y-80987778D01*
X146226271Y-80958448D01*
X146124814Y-80875186D01*
X146041552Y-80773729D01*
X146012222Y-80737991D01*
X145928557Y-80581466D01*
X145877037Y-80411627D01*
X145859641Y-80235000D01*
X145877037Y-80058373D01*
X145928557Y-79888534D01*
X146012222Y-79732009D01*
X146041552Y-79696271D01*
X146124814Y-79594814D01*
X146226271Y-79511552D01*
X146262009Y-79482222D01*
X146418534Y-79398557D01*
X146588373Y-79347037D01*
X146654558Y-79340518D01*
X146720740Y-79334000D01*
X146809260Y-79334000D01*
X146875442Y-79340518D01*
X146875442Y-79340518D01*
G37*
G36*
X144335442Y-79340518D02*
G01*
X144401627Y-79347037D01*
X144571466Y-79398557D01*
X144727991Y-79482222D01*
X144763729Y-79511552D01*
X144865186Y-79594814D01*
X144948448Y-79696271D01*
X144977778Y-79732009D01*
X145061443Y-79888534D01*
X145112963Y-80058373D01*
X145130359Y-80235000D01*
X145112963Y-80411627D01*
X145061443Y-80581466D01*
X144977778Y-80737991D01*
X144948448Y-80773729D01*
X144865186Y-80875186D01*
X144763729Y-80958448D01*
X144727991Y-80987778D01*
X144571466Y-81071443D01*
X144401627Y-81122963D01*
X144335443Y-81129481D01*
X144269260Y-81136000D01*
X144180740Y-81136000D01*
X144114557Y-81129481D01*
X144048373Y-81122963D01*
X143878534Y-81071443D01*
X143722009Y-80987778D01*
X143686271Y-80958448D01*
X143584814Y-80875186D01*
X143501552Y-80773729D01*
X143472222Y-80737991D01*
X143388557Y-80581466D01*
X143337037Y-80411627D01*
X143319641Y-80235000D01*
X143337037Y-80058373D01*
X143388557Y-79888534D01*
X143472222Y-79732009D01*
X143501552Y-79696271D01*
X143584814Y-79594814D01*
X143686271Y-79511552D01*
X143722009Y-79482222D01*
X143878534Y-79398557D01*
X144048373Y-79347037D01*
X144114558Y-79340518D01*
X144180740Y-79334000D01*
X144269260Y-79334000D01*
X144335442Y-79340518D01*
X144335442Y-79340518D01*
G37*
G36*
X159575442Y-79340518D02*
G01*
X159641627Y-79347037D01*
X159811466Y-79398557D01*
X159967991Y-79482222D01*
X160003729Y-79511552D01*
X160105186Y-79594814D01*
X160188448Y-79696271D01*
X160217778Y-79732009D01*
X160301443Y-79888534D01*
X160352963Y-80058373D01*
X160370359Y-80235000D01*
X160352963Y-80411627D01*
X160301443Y-80581466D01*
X160217778Y-80737991D01*
X160188448Y-80773729D01*
X160105186Y-80875186D01*
X160003729Y-80958448D01*
X159967991Y-80987778D01*
X159811466Y-81071443D01*
X159641627Y-81122963D01*
X159575443Y-81129481D01*
X159509260Y-81136000D01*
X159420740Y-81136000D01*
X159354557Y-81129481D01*
X159288373Y-81122963D01*
X159118534Y-81071443D01*
X158962009Y-80987778D01*
X158926271Y-80958448D01*
X158824814Y-80875186D01*
X158741552Y-80773729D01*
X158712222Y-80737991D01*
X158628557Y-80581466D01*
X158577037Y-80411627D01*
X158559641Y-80235000D01*
X158577037Y-80058373D01*
X158628557Y-79888534D01*
X158712222Y-79732009D01*
X158741552Y-79696271D01*
X158824814Y-79594814D01*
X158926271Y-79511552D01*
X158962009Y-79482222D01*
X159118534Y-79398557D01*
X159288373Y-79347037D01*
X159354558Y-79340518D01*
X159420740Y-79334000D01*
X159509260Y-79334000D01*
X159575442Y-79340518D01*
X159575442Y-79340518D01*
G37*
G36*
X121475442Y-79340518D02*
G01*
X121541627Y-79347037D01*
X121711466Y-79398557D01*
X121867991Y-79482222D01*
X121903729Y-79511552D01*
X122005186Y-79594814D01*
X122088448Y-79696271D01*
X122117778Y-79732009D01*
X122201443Y-79888534D01*
X122252963Y-80058373D01*
X122270359Y-80235000D01*
X122252963Y-80411627D01*
X122201443Y-80581466D01*
X122117778Y-80737991D01*
X122088448Y-80773729D01*
X122005186Y-80875186D01*
X121903729Y-80958448D01*
X121867991Y-80987778D01*
X121711466Y-81071443D01*
X121541627Y-81122963D01*
X121475443Y-81129481D01*
X121409260Y-81136000D01*
X121320740Y-81136000D01*
X121254557Y-81129481D01*
X121188373Y-81122963D01*
X121018534Y-81071443D01*
X120862009Y-80987778D01*
X120826271Y-80958448D01*
X120724814Y-80875186D01*
X120641552Y-80773729D01*
X120612222Y-80737991D01*
X120528557Y-80581466D01*
X120477037Y-80411627D01*
X120459641Y-80235000D01*
X120477037Y-80058373D01*
X120528557Y-79888534D01*
X120612222Y-79732009D01*
X120641552Y-79696271D01*
X120724814Y-79594814D01*
X120826271Y-79511552D01*
X120862009Y-79482222D01*
X121018534Y-79398557D01*
X121188373Y-79347037D01*
X121254558Y-79340518D01*
X121320740Y-79334000D01*
X121409260Y-79334000D01*
X121475442Y-79340518D01*
X121475442Y-79340518D01*
G37*
G36*
X126555442Y-79340518D02*
G01*
X126621627Y-79347037D01*
X126791466Y-79398557D01*
X126947991Y-79482222D01*
X126983729Y-79511552D01*
X127085186Y-79594814D01*
X127168448Y-79696271D01*
X127197778Y-79732009D01*
X127281443Y-79888534D01*
X127332963Y-80058373D01*
X127350359Y-80235000D01*
X127332963Y-80411627D01*
X127281443Y-80581466D01*
X127197778Y-80737991D01*
X127168448Y-80773729D01*
X127085186Y-80875186D01*
X126983729Y-80958448D01*
X126947991Y-80987778D01*
X126791466Y-81071443D01*
X126621627Y-81122963D01*
X126555443Y-81129481D01*
X126489260Y-81136000D01*
X126400740Y-81136000D01*
X126334557Y-81129481D01*
X126268373Y-81122963D01*
X126098534Y-81071443D01*
X125942009Y-80987778D01*
X125906271Y-80958448D01*
X125804814Y-80875186D01*
X125721552Y-80773729D01*
X125692222Y-80737991D01*
X125608557Y-80581466D01*
X125557037Y-80411627D01*
X125539641Y-80235000D01*
X125557037Y-80058373D01*
X125608557Y-79888534D01*
X125692222Y-79732009D01*
X125721552Y-79696271D01*
X125804814Y-79594814D01*
X125906271Y-79511552D01*
X125942009Y-79482222D01*
X126098534Y-79398557D01*
X126268373Y-79347037D01*
X126334558Y-79340518D01*
X126400740Y-79334000D01*
X126489260Y-79334000D01*
X126555442Y-79340518D01*
X126555442Y-79340518D01*
G37*
G36*
X124015442Y-79340518D02*
G01*
X124081627Y-79347037D01*
X124251466Y-79398557D01*
X124407991Y-79482222D01*
X124443729Y-79511552D01*
X124545186Y-79594814D01*
X124628448Y-79696271D01*
X124657778Y-79732009D01*
X124741443Y-79888534D01*
X124792963Y-80058373D01*
X124810359Y-80235000D01*
X124792963Y-80411627D01*
X124741443Y-80581466D01*
X124657778Y-80737991D01*
X124628448Y-80773729D01*
X124545186Y-80875186D01*
X124443729Y-80958448D01*
X124407991Y-80987778D01*
X124251466Y-81071443D01*
X124081627Y-81122963D01*
X124015443Y-81129481D01*
X123949260Y-81136000D01*
X123860740Y-81136000D01*
X123794557Y-81129481D01*
X123728373Y-81122963D01*
X123558534Y-81071443D01*
X123402009Y-80987778D01*
X123366271Y-80958448D01*
X123264814Y-80875186D01*
X123181552Y-80773729D01*
X123152222Y-80737991D01*
X123068557Y-80581466D01*
X123017037Y-80411627D01*
X122999641Y-80235000D01*
X123017037Y-80058373D01*
X123068557Y-79888534D01*
X123152222Y-79732009D01*
X123181552Y-79696271D01*
X123264814Y-79594814D01*
X123366271Y-79511552D01*
X123402009Y-79482222D01*
X123558534Y-79398557D01*
X123728373Y-79347037D01*
X123794558Y-79340518D01*
X123860740Y-79334000D01*
X123949260Y-79334000D01*
X124015442Y-79340518D01*
X124015442Y-79340518D01*
G37*
G36*
X131635442Y-79340518D02*
G01*
X131701627Y-79347037D01*
X131871466Y-79398557D01*
X132027991Y-79482222D01*
X132063729Y-79511552D01*
X132165186Y-79594814D01*
X132248448Y-79696271D01*
X132277778Y-79732009D01*
X132361443Y-79888534D01*
X132412963Y-80058373D01*
X132430359Y-80235000D01*
X132412963Y-80411627D01*
X132361443Y-80581466D01*
X132277778Y-80737991D01*
X132248448Y-80773729D01*
X132165186Y-80875186D01*
X132063729Y-80958448D01*
X132027991Y-80987778D01*
X131871466Y-81071443D01*
X131701627Y-81122963D01*
X131635443Y-81129481D01*
X131569260Y-81136000D01*
X131480740Y-81136000D01*
X131414557Y-81129481D01*
X131348373Y-81122963D01*
X131178534Y-81071443D01*
X131022009Y-80987778D01*
X130986271Y-80958448D01*
X130884814Y-80875186D01*
X130801552Y-80773729D01*
X130772222Y-80737991D01*
X130688557Y-80581466D01*
X130637037Y-80411627D01*
X130619641Y-80235000D01*
X130637037Y-80058373D01*
X130688557Y-79888534D01*
X130772222Y-79732009D01*
X130801552Y-79696271D01*
X130884814Y-79594814D01*
X130986271Y-79511552D01*
X131022009Y-79482222D01*
X131178534Y-79398557D01*
X131348373Y-79347037D01*
X131414558Y-79340518D01*
X131480740Y-79334000D01*
X131569260Y-79334000D01*
X131635442Y-79340518D01*
X131635442Y-79340518D01*
G37*
G36*
X134175442Y-79340518D02*
G01*
X134241627Y-79347037D01*
X134411466Y-79398557D01*
X134567991Y-79482222D01*
X134603729Y-79511552D01*
X134705186Y-79594814D01*
X134788448Y-79696271D01*
X134817778Y-79732009D01*
X134901443Y-79888534D01*
X134952963Y-80058373D01*
X134970359Y-80235000D01*
X134952963Y-80411627D01*
X134901443Y-80581466D01*
X134817778Y-80737991D01*
X134788448Y-80773729D01*
X134705186Y-80875186D01*
X134603729Y-80958448D01*
X134567991Y-80987778D01*
X134411466Y-81071443D01*
X134241627Y-81122963D01*
X134175443Y-81129481D01*
X134109260Y-81136000D01*
X134020740Y-81136000D01*
X133954557Y-81129481D01*
X133888373Y-81122963D01*
X133718534Y-81071443D01*
X133562009Y-80987778D01*
X133526271Y-80958448D01*
X133424814Y-80875186D01*
X133341552Y-80773729D01*
X133312222Y-80737991D01*
X133228557Y-80581466D01*
X133177037Y-80411627D01*
X133159641Y-80235000D01*
X133177037Y-80058373D01*
X133228557Y-79888534D01*
X133312222Y-79732009D01*
X133341552Y-79696271D01*
X133424814Y-79594814D01*
X133526271Y-79511552D01*
X133562009Y-79482222D01*
X133718534Y-79398557D01*
X133888373Y-79347037D01*
X133954558Y-79340518D01*
X134020740Y-79334000D01*
X134109260Y-79334000D01*
X134175442Y-79340518D01*
X134175442Y-79340518D01*
G37*
G36*
X136715442Y-79340518D02*
G01*
X136781627Y-79347037D01*
X136951466Y-79398557D01*
X137107991Y-79482222D01*
X137143729Y-79511552D01*
X137245186Y-79594814D01*
X137328448Y-79696271D01*
X137357778Y-79732009D01*
X137441443Y-79888534D01*
X137492963Y-80058373D01*
X137510359Y-80235000D01*
X137492963Y-80411627D01*
X137441443Y-80581466D01*
X137357778Y-80737991D01*
X137328448Y-80773729D01*
X137245186Y-80875186D01*
X137143729Y-80958448D01*
X137107991Y-80987778D01*
X136951466Y-81071443D01*
X136781627Y-81122963D01*
X136715443Y-81129481D01*
X136649260Y-81136000D01*
X136560740Y-81136000D01*
X136494557Y-81129481D01*
X136428373Y-81122963D01*
X136258534Y-81071443D01*
X136102009Y-80987778D01*
X136066271Y-80958448D01*
X135964814Y-80875186D01*
X135881552Y-80773729D01*
X135852222Y-80737991D01*
X135768557Y-80581466D01*
X135717037Y-80411627D01*
X135699641Y-80235000D01*
X135717037Y-80058373D01*
X135768557Y-79888534D01*
X135852222Y-79732009D01*
X135881552Y-79696271D01*
X135964814Y-79594814D01*
X136066271Y-79511552D01*
X136102009Y-79482222D01*
X136258534Y-79398557D01*
X136428373Y-79347037D01*
X136494558Y-79340518D01*
X136560740Y-79334000D01*
X136649260Y-79334000D01*
X136715442Y-79340518D01*
X136715442Y-79340518D01*
G37*
G36*
X139255442Y-79340518D02*
G01*
X139321627Y-79347037D01*
X139491466Y-79398557D01*
X139647991Y-79482222D01*
X139683729Y-79511552D01*
X139785186Y-79594814D01*
X139868448Y-79696271D01*
X139897778Y-79732009D01*
X139981443Y-79888534D01*
X140032963Y-80058373D01*
X140050359Y-80235000D01*
X140032963Y-80411627D01*
X139981443Y-80581466D01*
X139897778Y-80737991D01*
X139868448Y-80773729D01*
X139785186Y-80875186D01*
X139683729Y-80958448D01*
X139647991Y-80987778D01*
X139491466Y-81071443D01*
X139321627Y-81122963D01*
X139255443Y-81129481D01*
X139189260Y-81136000D01*
X139100740Y-81136000D01*
X139034557Y-81129481D01*
X138968373Y-81122963D01*
X138798534Y-81071443D01*
X138642009Y-80987778D01*
X138606271Y-80958448D01*
X138504814Y-80875186D01*
X138421552Y-80773729D01*
X138392222Y-80737991D01*
X138308557Y-80581466D01*
X138257037Y-80411627D01*
X138239641Y-80235000D01*
X138257037Y-80058373D01*
X138308557Y-79888534D01*
X138392222Y-79732009D01*
X138421552Y-79696271D01*
X138504814Y-79594814D01*
X138606271Y-79511552D01*
X138642009Y-79482222D01*
X138798534Y-79398557D01*
X138968373Y-79347037D01*
X139034558Y-79340518D01*
X139100740Y-79334000D01*
X139189260Y-79334000D01*
X139255442Y-79340518D01*
X139255442Y-79340518D01*
G37*
G36*
X129095442Y-79340518D02*
G01*
X129161627Y-79347037D01*
X129331466Y-79398557D01*
X129487991Y-79482222D01*
X129523729Y-79511552D01*
X129625186Y-79594814D01*
X129708448Y-79696271D01*
X129737778Y-79732009D01*
X129821443Y-79888534D01*
X129872963Y-80058373D01*
X129890359Y-80235000D01*
X129872963Y-80411627D01*
X129821443Y-80581466D01*
X129737778Y-80737991D01*
X129708448Y-80773729D01*
X129625186Y-80875186D01*
X129523729Y-80958448D01*
X129487991Y-80987778D01*
X129331466Y-81071443D01*
X129161627Y-81122963D01*
X129095443Y-81129481D01*
X129029260Y-81136000D01*
X128940740Y-81136000D01*
X128874557Y-81129481D01*
X128808373Y-81122963D01*
X128638534Y-81071443D01*
X128482009Y-80987778D01*
X128446271Y-80958448D01*
X128344814Y-80875186D01*
X128261552Y-80773729D01*
X128232222Y-80737991D01*
X128148557Y-80581466D01*
X128097037Y-80411627D01*
X128079641Y-80235000D01*
X128097037Y-80058373D01*
X128148557Y-79888534D01*
X128232222Y-79732009D01*
X128261552Y-79696271D01*
X128344814Y-79594814D01*
X128446271Y-79511552D01*
X128482009Y-79482222D01*
X128638534Y-79398557D01*
X128808373Y-79347037D01*
X128874558Y-79340518D01*
X128940740Y-79334000D01*
X129029260Y-79334000D01*
X129095442Y-79340518D01*
X129095442Y-79340518D01*
G37*
G36*
X141795442Y-79340518D02*
G01*
X141861627Y-79347037D01*
X142031466Y-79398557D01*
X142187991Y-79482222D01*
X142223729Y-79511552D01*
X142325186Y-79594814D01*
X142408448Y-79696271D01*
X142437778Y-79732009D01*
X142521443Y-79888534D01*
X142572963Y-80058373D01*
X142590359Y-80235000D01*
X142572963Y-80411627D01*
X142521443Y-80581466D01*
X142437778Y-80737991D01*
X142408448Y-80773729D01*
X142325186Y-80875186D01*
X142223729Y-80958448D01*
X142187991Y-80987778D01*
X142031466Y-81071443D01*
X141861627Y-81122963D01*
X141795443Y-81129481D01*
X141729260Y-81136000D01*
X141640740Y-81136000D01*
X141574557Y-81129481D01*
X141508373Y-81122963D01*
X141338534Y-81071443D01*
X141182009Y-80987778D01*
X141146271Y-80958448D01*
X141044814Y-80875186D01*
X140961552Y-80773729D01*
X140932222Y-80737991D01*
X140848557Y-80581466D01*
X140797037Y-80411627D01*
X140779641Y-80235000D01*
X140797037Y-80058373D01*
X140848557Y-79888534D01*
X140932222Y-79732009D01*
X140961552Y-79696271D01*
X141044814Y-79594814D01*
X141146271Y-79511552D01*
X141182009Y-79482222D01*
X141338534Y-79398557D01*
X141508373Y-79347037D01*
X141574558Y-79340518D01*
X141640740Y-79334000D01*
X141729260Y-79334000D01*
X141795442Y-79340518D01*
X141795442Y-79340518D01*
G37*
G36*
X152244369Y-74194971D02*
G01*
X152406195Y-74262002D01*
X152551829Y-74359311D01*
X152675689Y-74483171D01*
X152772998Y-74628805D01*
X152840029Y-74790631D01*
X152874200Y-74962420D01*
X152874200Y-75137580D01*
X152840029Y-75309369D01*
X152772998Y-75471195D01*
X152675689Y-75616829D01*
X152551829Y-75740689D01*
X152406195Y-75837998D01*
X152244369Y-75905029D01*
X152072580Y-75939200D01*
X151897420Y-75939200D01*
X151725631Y-75905029D01*
X151563805Y-75837998D01*
X151418171Y-75740689D01*
X151294311Y-75616829D01*
X151197002Y-75471195D01*
X151129971Y-75309369D01*
X151095800Y-75137580D01*
X151095800Y-74962420D01*
X151129971Y-74790631D01*
X151197002Y-74628805D01*
X151294311Y-74483171D01*
X151418171Y-74359311D01*
X151563805Y-74262002D01*
X151725631Y-74194971D01*
X151897420Y-74160800D01*
X152072580Y-74160800D01*
X152244369Y-74194971D01*
X152244369Y-74194971D01*
G37*
G36*
X164944369Y-74194971D02*
G01*
X165106195Y-74262002D01*
X165251829Y-74359311D01*
X165375689Y-74483171D01*
X165472998Y-74628805D01*
X165540029Y-74790631D01*
X165574200Y-74962420D01*
X165574200Y-75137580D01*
X165540029Y-75309369D01*
X165472998Y-75471195D01*
X165375689Y-75616829D01*
X165251829Y-75740689D01*
X165106195Y-75837998D01*
X164944369Y-75905029D01*
X164772580Y-75939200D01*
X164597420Y-75939200D01*
X164425631Y-75905029D01*
X164263805Y-75837998D01*
X164118171Y-75740689D01*
X163994311Y-75616829D01*
X163897002Y-75471195D01*
X163829971Y-75309369D01*
X163795800Y-75137580D01*
X163795800Y-74962420D01*
X163829971Y-74790631D01*
X163897002Y-74628805D01*
X163994311Y-74483171D01*
X164118171Y-74359311D01*
X164263805Y-74262002D01*
X164425631Y-74194971D01*
X164597420Y-74160800D01*
X164772580Y-74160800D01*
X164944369Y-74194971D01*
X164944369Y-74194971D01*
G37*
G36*
X162404369Y-74194971D02*
G01*
X162566195Y-74262002D01*
X162711829Y-74359311D01*
X162835689Y-74483171D01*
X162932998Y-74628805D01*
X163000029Y-74790631D01*
X163034200Y-74962420D01*
X163034200Y-75137580D01*
X163000029Y-75309369D01*
X162932998Y-75471195D01*
X162835689Y-75616829D01*
X162711829Y-75740689D01*
X162566195Y-75837998D01*
X162404369Y-75905029D01*
X162232580Y-75939200D01*
X162057420Y-75939200D01*
X161885631Y-75905029D01*
X161723805Y-75837998D01*
X161578171Y-75740689D01*
X161454311Y-75616829D01*
X161357002Y-75471195D01*
X161289971Y-75309369D01*
X161255800Y-75137580D01*
X161255800Y-74962420D01*
X161289971Y-74790631D01*
X161357002Y-74628805D01*
X161454311Y-74483171D01*
X161578171Y-74359311D01*
X161723805Y-74262002D01*
X161885631Y-74194971D01*
X162057420Y-74160800D01*
X162232580Y-74160800D01*
X162404369Y-74194971D01*
X162404369Y-74194971D01*
G37*
G36*
X159864369Y-74194971D02*
G01*
X160026195Y-74262002D01*
X160171829Y-74359311D01*
X160295689Y-74483171D01*
X160392998Y-74628805D01*
X160460029Y-74790631D01*
X160494200Y-74962420D01*
X160494200Y-75137580D01*
X160460029Y-75309369D01*
X160392998Y-75471195D01*
X160295689Y-75616829D01*
X160171829Y-75740689D01*
X160026195Y-75837998D01*
X159864369Y-75905029D01*
X159692580Y-75939200D01*
X159517420Y-75939200D01*
X159345631Y-75905029D01*
X159183805Y-75837998D01*
X159038171Y-75740689D01*
X158914311Y-75616829D01*
X158817002Y-75471195D01*
X158749971Y-75309369D01*
X158715800Y-75137580D01*
X158715800Y-74962420D01*
X158749971Y-74790631D01*
X158817002Y-74628805D01*
X158914311Y-74483171D01*
X159038171Y-74359311D01*
X159183805Y-74262002D01*
X159345631Y-74194971D01*
X159517420Y-74160800D01*
X159692580Y-74160800D01*
X159864369Y-74194971D01*
X159864369Y-74194971D01*
G37*
G36*
X157324369Y-74194971D02*
G01*
X157486195Y-74262002D01*
X157631829Y-74359311D01*
X157755689Y-74483171D01*
X157852998Y-74628805D01*
X157920029Y-74790631D01*
X157954200Y-74962420D01*
X157954200Y-75137580D01*
X157920029Y-75309369D01*
X157852998Y-75471195D01*
X157755689Y-75616829D01*
X157631829Y-75740689D01*
X157486195Y-75837998D01*
X157324369Y-75905029D01*
X157152580Y-75939200D01*
X156977420Y-75939200D01*
X156805631Y-75905029D01*
X156643805Y-75837998D01*
X156498171Y-75740689D01*
X156374311Y-75616829D01*
X156277002Y-75471195D01*
X156209971Y-75309369D01*
X156175800Y-75137580D01*
X156175800Y-74962420D01*
X156209971Y-74790631D01*
X156277002Y-74628805D01*
X156374311Y-74483171D01*
X156498171Y-74359311D01*
X156643805Y-74262002D01*
X156805631Y-74194971D01*
X156977420Y-74160800D01*
X157152580Y-74160800D01*
X157324369Y-74194971D01*
X157324369Y-74194971D01*
G37*
G36*
X154784369Y-74194971D02*
G01*
X154946195Y-74262002D01*
X155091829Y-74359311D01*
X155215689Y-74483171D01*
X155312998Y-74628805D01*
X155380029Y-74790631D01*
X155414200Y-74962420D01*
X155414200Y-75137580D01*
X155380029Y-75309369D01*
X155312998Y-75471195D01*
X155215689Y-75616829D01*
X155091829Y-75740689D01*
X154946195Y-75837998D01*
X154784369Y-75905029D01*
X154612580Y-75939200D01*
X154437420Y-75939200D01*
X154265631Y-75905029D01*
X154103805Y-75837998D01*
X153958171Y-75740689D01*
X153834311Y-75616829D01*
X153737002Y-75471195D01*
X153669971Y-75309369D01*
X153635800Y-75137580D01*
X153635800Y-74962420D01*
X153669971Y-74790631D01*
X153737002Y-74628805D01*
X153834311Y-74483171D01*
X153958171Y-74359311D01*
X154103805Y-74262002D01*
X154265631Y-74194971D01*
X154437420Y-74160800D01*
X154612580Y-74160800D01*
X154784369Y-74194971D01*
X154784369Y-74194971D01*
G37*
G36*
X116375256Y-57391298D02*
G01*
X116481579Y-57412447D01*
X116694037Y-57500450D01*
X116763854Y-57529369D01*
X116782042Y-57536903D01*
X117052451Y-57717585D01*
X117282415Y-57947549D01*
X117463097Y-58217958D01*
X117587553Y-58518421D01*
X117651000Y-58837391D01*
X117651000Y-59162609D01*
X117587553Y-59481579D01*
X117463097Y-59782042D01*
X117282415Y-60052451D01*
X117052451Y-60282415D01*
X116782042Y-60463097D01*
X116481579Y-60587553D01*
X116375256Y-60608702D01*
X116162611Y-60651000D01*
X115837389Y-60651000D01*
X115624744Y-60608702D01*
X115518421Y-60587553D01*
X115217958Y-60463097D01*
X114947549Y-60282415D01*
X114717585Y-60052451D01*
X114536903Y-59782042D01*
X114412447Y-59481579D01*
X114349000Y-59162609D01*
X114349000Y-58837391D01*
X114412447Y-58518421D01*
X114536903Y-58217958D01*
X114717585Y-57947549D01*
X114947549Y-57717585D01*
X115217958Y-57536903D01*
X115236147Y-57529369D01*
X115305963Y-57500450D01*
X115518421Y-57412447D01*
X115624744Y-57391298D01*
X115837389Y-57349000D01*
X116162611Y-57349000D01*
X116375256Y-57391298D01*
X116375256Y-57391298D01*
G37*
G36*
X154784369Y-56414971D02*
G01*
X154946195Y-56482002D01*
X155091829Y-56579311D01*
X155215689Y-56703171D01*
X155312998Y-56848805D01*
X155380029Y-57010631D01*
X155414200Y-57182420D01*
X155414200Y-57357580D01*
X155380029Y-57529369D01*
X155312998Y-57691195D01*
X155215689Y-57836829D01*
X155091829Y-57960689D01*
X154946195Y-58057998D01*
X154784369Y-58125029D01*
X154612580Y-58159200D01*
X154437420Y-58159200D01*
X154265631Y-58125029D01*
X154103805Y-58057998D01*
X153958171Y-57960689D01*
X153834311Y-57836829D01*
X153737002Y-57691195D01*
X153669971Y-57529369D01*
X153635800Y-57357580D01*
X153635800Y-57182420D01*
X153669971Y-57010631D01*
X153737002Y-56848805D01*
X153834311Y-56703171D01*
X153958171Y-56579311D01*
X154103805Y-56482002D01*
X154265631Y-56414971D01*
X154437420Y-56380800D01*
X154612580Y-56380800D01*
X154784369Y-56414971D01*
X154784369Y-56414971D01*
G37*
G36*
X157324369Y-56414971D02*
G01*
X157486195Y-56482002D01*
X157631829Y-56579311D01*
X157755689Y-56703171D01*
X157852998Y-56848805D01*
X157920029Y-57010631D01*
X157954200Y-57182420D01*
X157954200Y-57357580D01*
X157920029Y-57529369D01*
X157852998Y-57691195D01*
X157755689Y-57836829D01*
X157631829Y-57960689D01*
X157486195Y-58057998D01*
X157324369Y-58125029D01*
X157152580Y-58159200D01*
X156977420Y-58159200D01*
X156805631Y-58125029D01*
X156643805Y-58057998D01*
X156498171Y-57960689D01*
X156374311Y-57836829D01*
X156277002Y-57691195D01*
X156209971Y-57529369D01*
X156175800Y-57357580D01*
X156175800Y-57182420D01*
X156209971Y-57010631D01*
X156277002Y-56848805D01*
X156374311Y-56703171D01*
X156498171Y-56579311D01*
X156643805Y-56482002D01*
X156805631Y-56414971D01*
X156977420Y-56380800D01*
X157152580Y-56380800D01*
X157324369Y-56414971D01*
X157324369Y-56414971D01*
G37*
G36*
X159864369Y-56414971D02*
G01*
X160026195Y-56482002D01*
X160171829Y-56579311D01*
X160295689Y-56703171D01*
X160392998Y-56848805D01*
X160460029Y-57010631D01*
X160494200Y-57182420D01*
X160494200Y-57357580D01*
X160460029Y-57529369D01*
X160392998Y-57691195D01*
X160295689Y-57836829D01*
X160171829Y-57960689D01*
X160026195Y-58057998D01*
X159864369Y-58125029D01*
X159692580Y-58159200D01*
X159517420Y-58159200D01*
X159345631Y-58125029D01*
X159183805Y-58057998D01*
X159038171Y-57960689D01*
X158914311Y-57836829D01*
X158817002Y-57691195D01*
X158749971Y-57529369D01*
X158715800Y-57357580D01*
X158715800Y-57182420D01*
X158749971Y-57010631D01*
X158817002Y-56848805D01*
X158914311Y-56703171D01*
X159038171Y-56579311D01*
X159183805Y-56482002D01*
X159345631Y-56414971D01*
X159517420Y-56380800D01*
X159692580Y-56380800D01*
X159864369Y-56414971D01*
X159864369Y-56414971D01*
G37*
G36*
X162404369Y-56414971D02*
G01*
X162566195Y-56482002D01*
X162711829Y-56579311D01*
X162835689Y-56703171D01*
X162932998Y-56848805D01*
X163000029Y-57010631D01*
X163034200Y-57182420D01*
X163034200Y-57357580D01*
X163000029Y-57529369D01*
X162932998Y-57691195D01*
X162835689Y-57836829D01*
X162711829Y-57960689D01*
X162566195Y-58057998D01*
X162404369Y-58125029D01*
X162232580Y-58159200D01*
X162057420Y-58159200D01*
X161885631Y-58125029D01*
X161723805Y-58057998D01*
X161578171Y-57960689D01*
X161454311Y-57836829D01*
X161357002Y-57691195D01*
X161289971Y-57529369D01*
X161255800Y-57357580D01*
X161255800Y-57182420D01*
X161289971Y-57010631D01*
X161357002Y-56848805D01*
X161454311Y-56703171D01*
X161578171Y-56579311D01*
X161723805Y-56482002D01*
X161885631Y-56414971D01*
X162057420Y-56380800D01*
X162232580Y-56380800D01*
X162404369Y-56414971D01*
X162404369Y-56414971D01*
G37*
M02*
