G04 #@! TF.GenerationSoftware,KiCad,Pcbnew,(5.1.4)-1*
G04 #@! TF.CreationDate,2020-03-08T13:48:27-05:00*
G04 #@! TF.ProjectId,BigBrother,42696742-726f-4746-9865-722e6b696361,rev?*
G04 #@! TF.SameCoordinates,Original*
G04 #@! TF.FileFunction,Legend,Top*
G04 #@! TF.FilePolarity,Positive*
%FSLAX46Y46*%
G04 Gerber Fmt 4.6, Leading zero omitted, Abs format (unit mm)*
G04 Created by KiCad (PCBNEW (5.1.4)-1) date 2020-03-08 13:48:27*
%MOMM*%
%LPD*%
G04 APERTURE LIST*
%ADD10C,0.120000*%
%ADD11C,0.150000*%
G04 APERTURE END LIST*
D10*
X120035000Y-84105000D02*
X120035000Y-78905000D01*
X168355000Y-84105000D02*
X120035000Y-84105000D01*
X170955000Y-78905000D02*
X120035000Y-78905000D01*
X168355000Y-84105000D02*
X168355000Y-81505000D01*
X168355000Y-81505000D02*
X170955000Y-81505000D01*
X170955000Y-81505000D02*
X170955000Y-78905000D01*
X169625000Y-84105000D02*
X170955000Y-84105000D01*
X170955000Y-84105000D02*
X170955000Y-82775000D01*
X178000000Y-78000000D02*
X178000000Y-108000000D01*
X178000000Y-78000000D02*
X113000000Y-78000000D01*
X178000000Y-108000000D02*
X113025400Y-108000000D01*
X113000000Y-78000000D02*
X113000000Y-108000000D01*
X171670000Y-56000000D02*
X145000000Y-56000000D01*
X171670000Y-76320000D02*
X171670000Y-56000000D01*
X145000000Y-76320000D02*
X171670000Y-76320000D01*
X145000000Y-56000000D02*
X145000000Y-76320000D01*
D11*
X118497380Y-81838333D02*
X119211666Y-81838333D01*
X119354523Y-81885952D01*
X119449761Y-81981190D01*
X119497380Y-82124047D01*
X119497380Y-82219285D01*
X119497380Y-80838333D02*
X119497380Y-81409761D01*
X119497380Y-81124047D02*
X118497380Y-81124047D01*
X118640238Y-81219285D01*
X118735476Y-81314523D01*
X118783095Y-81409761D01*
X157573095Y-65612380D02*
X157573095Y-66421904D01*
X157620714Y-66517142D01*
X157668333Y-66564761D01*
X157763571Y-66612380D01*
X157954047Y-66612380D01*
X158049285Y-66564761D01*
X158096904Y-66517142D01*
X158144523Y-66421904D01*
X158144523Y-65612380D01*
X159144523Y-66612380D02*
X158573095Y-66612380D01*
X158858809Y-66612380D02*
X158858809Y-65612380D01*
X158763571Y-65755238D01*
X158668333Y-65850476D01*
X158573095Y-65898095D01*
M02*
