G04 #@! TF.GenerationSoftware,KiCad,Pcbnew,(5.1.4)-1*
G04 #@! TF.CreationDate,2020-03-09T21:22:14-05:00*
G04 #@! TF.ProjectId,BigBrother,42696742-726f-4746-9865-722e6b696361,rev?*
G04 #@! TF.SameCoordinates,Original*
G04 #@! TF.FileFunction,Copper,L2,Bot*
G04 #@! TF.FilePolarity,Positive*
%FSLAX46Y46*%
G04 Gerber Fmt 4.6, Leading zero omitted, Abs format (unit mm)*
G04 Created by KiCad (PCBNEW (5.1.4)-1) date 2020-03-09 21:22:14*
%MOMM*%
%LPD*%
G04 APERTURE LIST*
%ADD10R,1.700000X1.700000*%
%ADD11O,1.700000X1.700000*%
%ADD12C,1.676400*%
%ADD13C,1.778000*%
%ADD14C,1.524000*%
%ADD15C,0.250000*%
%ADD16C,0.254000*%
G04 APERTURE END LIST*
D10*
X169625000Y-82775000D03*
D11*
X169625000Y-80235000D03*
X167085000Y-82775000D03*
X167085000Y-80235000D03*
X164545000Y-82775000D03*
X164545000Y-80235000D03*
X162005000Y-82775000D03*
X162005000Y-80235000D03*
X159465000Y-82775000D03*
X159465000Y-80235000D03*
X156925000Y-82775000D03*
X156925000Y-80235000D03*
X154385000Y-82775000D03*
X154385000Y-80235000D03*
X151845000Y-82775000D03*
X151845000Y-80235000D03*
X149305000Y-82775000D03*
X149305000Y-80235000D03*
X146765000Y-82775000D03*
X146765000Y-80235000D03*
X144225000Y-82775000D03*
X144225000Y-80235000D03*
X141685000Y-82775000D03*
X141685000Y-80235000D03*
X139145000Y-82775000D03*
X139145000Y-80235000D03*
X136605000Y-82775000D03*
X136605000Y-80235000D03*
X134065000Y-82775000D03*
X134065000Y-80235000D03*
X131525000Y-82775000D03*
X131525000Y-80235000D03*
X128985000Y-82775000D03*
X128985000Y-80235000D03*
X126445000Y-82775000D03*
X126445000Y-80235000D03*
X123905000Y-82775000D03*
X123905000Y-80235000D03*
X121365000Y-82775000D03*
X121365000Y-80235000D03*
D12*
X162145000Y-57270000D03*
X159605000Y-57270000D03*
X157065000Y-57270000D03*
X154525000Y-57270000D03*
X151985000Y-75050000D03*
X154525000Y-75050000D03*
X157065000Y-75050000D03*
X159605000Y-75050000D03*
X162145000Y-75050000D03*
X164685000Y-75050000D03*
D13*
X169773600Y-89357200D03*
X167233600Y-89357200D03*
X164693600Y-89357200D03*
X162153600Y-89357200D03*
X159613600Y-89357200D03*
X157073600Y-89357200D03*
X154533600Y-89357200D03*
X151993600Y-89357200D03*
D14*
X132760000Y-123830000D03*
X145460000Y-88270000D03*
X122600000Y-123830000D03*
X125140000Y-123830000D03*
X127680000Y-123830000D03*
X130220000Y-123830000D03*
X135300000Y-123830000D03*
X137840000Y-123830000D03*
X140380000Y-123830000D03*
X122600000Y-88270000D03*
X125140000Y-88270000D03*
X127680000Y-88270000D03*
X132760000Y-88270000D03*
X130220000Y-88270000D03*
X135300000Y-88270000D03*
X137840000Y-88270000D03*
X140380000Y-88270000D03*
X142920000Y-88270000D03*
D15*
X149305000Y-86668600D02*
X151993600Y-89357200D01*
X149305000Y-82775000D02*
X149305000Y-86668600D01*
X156925000Y-80235000D02*
X160160000Y-77000000D01*
X162735000Y-77000000D02*
X164685000Y-75050000D01*
X160160000Y-77000000D02*
X162735000Y-77000000D01*
D16*
G36*
X178315001Y-125315000D02*
G01*
X112685000Y-125315000D01*
X112685000Y-121779872D01*
X113765000Y-121779872D01*
X113765000Y-122220128D01*
X113850890Y-122651925D01*
X114019369Y-123058669D01*
X114263962Y-123424729D01*
X114575271Y-123736038D01*
X114941331Y-123980631D01*
X115348075Y-124149110D01*
X115779872Y-124235000D01*
X116220128Y-124235000D01*
X116651925Y-124149110D01*
X117058669Y-123980631D01*
X117424729Y-123736038D01*
X117468359Y-123692408D01*
X121203000Y-123692408D01*
X121203000Y-123967592D01*
X121256686Y-124237490D01*
X121361995Y-124491727D01*
X121514880Y-124720535D01*
X121709465Y-124915120D01*
X121938273Y-125068005D01*
X122192510Y-125173314D01*
X122462408Y-125227000D01*
X122737592Y-125227000D01*
X123007490Y-125173314D01*
X123261727Y-125068005D01*
X123490535Y-124915120D01*
X123685120Y-124720535D01*
X123838005Y-124491727D01*
X123870000Y-124414485D01*
X123901995Y-124491727D01*
X124054880Y-124720535D01*
X124249465Y-124915120D01*
X124478273Y-125068005D01*
X124732510Y-125173314D01*
X125002408Y-125227000D01*
X125277592Y-125227000D01*
X125547490Y-125173314D01*
X125801727Y-125068005D01*
X126030535Y-124915120D01*
X126225120Y-124720535D01*
X126378005Y-124491727D01*
X126410000Y-124414485D01*
X126441995Y-124491727D01*
X126594880Y-124720535D01*
X126789465Y-124915120D01*
X127018273Y-125068005D01*
X127272510Y-125173314D01*
X127542408Y-125227000D01*
X127817592Y-125227000D01*
X128087490Y-125173314D01*
X128341727Y-125068005D01*
X128570535Y-124915120D01*
X128765120Y-124720535D01*
X128918005Y-124491727D01*
X128950000Y-124414485D01*
X128981995Y-124491727D01*
X129134880Y-124720535D01*
X129329465Y-124915120D01*
X129558273Y-125068005D01*
X129812510Y-125173314D01*
X130082408Y-125227000D01*
X130357592Y-125227000D01*
X130627490Y-125173314D01*
X130881727Y-125068005D01*
X131110535Y-124915120D01*
X131305120Y-124720535D01*
X131458005Y-124491727D01*
X131490000Y-124414485D01*
X131521995Y-124491727D01*
X131674880Y-124720535D01*
X131869465Y-124915120D01*
X132098273Y-125068005D01*
X132352510Y-125173314D01*
X132622408Y-125227000D01*
X132897592Y-125227000D01*
X133167490Y-125173314D01*
X133421727Y-125068005D01*
X133650535Y-124915120D01*
X133845120Y-124720535D01*
X133998005Y-124491727D01*
X134030000Y-124414485D01*
X134061995Y-124491727D01*
X134214880Y-124720535D01*
X134409465Y-124915120D01*
X134638273Y-125068005D01*
X134892510Y-125173314D01*
X135162408Y-125227000D01*
X135437592Y-125227000D01*
X135707490Y-125173314D01*
X135961727Y-125068005D01*
X136190535Y-124915120D01*
X136385120Y-124720535D01*
X136538005Y-124491727D01*
X136570000Y-124414485D01*
X136601995Y-124491727D01*
X136754880Y-124720535D01*
X136949465Y-124915120D01*
X137178273Y-125068005D01*
X137432510Y-125173314D01*
X137702408Y-125227000D01*
X137977592Y-125227000D01*
X138247490Y-125173314D01*
X138501727Y-125068005D01*
X138730535Y-124915120D01*
X138925120Y-124720535D01*
X139078005Y-124491727D01*
X139110000Y-124414485D01*
X139141995Y-124491727D01*
X139294880Y-124720535D01*
X139489465Y-124915120D01*
X139718273Y-125068005D01*
X139972510Y-125173314D01*
X140242408Y-125227000D01*
X140517592Y-125227000D01*
X140787490Y-125173314D01*
X141041727Y-125068005D01*
X141270535Y-124915120D01*
X141465120Y-124720535D01*
X141618005Y-124491727D01*
X141723314Y-124237490D01*
X141777000Y-123967592D01*
X141777000Y-123692408D01*
X141723314Y-123422510D01*
X141618005Y-123168273D01*
X141465120Y-122939465D01*
X141270535Y-122744880D01*
X141041727Y-122591995D01*
X140787490Y-122486686D01*
X140517592Y-122433000D01*
X140242408Y-122433000D01*
X139972510Y-122486686D01*
X139718273Y-122591995D01*
X139489465Y-122744880D01*
X139294880Y-122939465D01*
X139141995Y-123168273D01*
X139110000Y-123245515D01*
X139078005Y-123168273D01*
X138925120Y-122939465D01*
X138730535Y-122744880D01*
X138501727Y-122591995D01*
X138247490Y-122486686D01*
X137977592Y-122433000D01*
X137702408Y-122433000D01*
X137432510Y-122486686D01*
X137178273Y-122591995D01*
X136949465Y-122744880D01*
X136754880Y-122939465D01*
X136601995Y-123168273D01*
X136570000Y-123245515D01*
X136538005Y-123168273D01*
X136385120Y-122939465D01*
X136190535Y-122744880D01*
X135961727Y-122591995D01*
X135707490Y-122486686D01*
X135437592Y-122433000D01*
X135162408Y-122433000D01*
X134892510Y-122486686D01*
X134638273Y-122591995D01*
X134409465Y-122744880D01*
X134214880Y-122939465D01*
X134061995Y-123168273D01*
X134030000Y-123245515D01*
X133998005Y-123168273D01*
X133845120Y-122939465D01*
X133650535Y-122744880D01*
X133421727Y-122591995D01*
X133167490Y-122486686D01*
X132897592Y-122433000D01*
X132622408Y-122433000D01*
X132352510Y-122486686D01*
X132098273Y-122591995D01*
X131869465Y-122744880D01*
X131674880Y-122939465D01*
X131521995Y-123168273D01*
X131490000Y-123245515D01*
X131458005Y-123168273D01*
X131305120Y-122939465D01*
X131110535Y-122744880D01*
X130881727Y-122591995D01*
X130627490Y-122486686D01*
X130357592Y-122433000D01*
X130082408Y-122433000D01*
X129812510Y-122486686D01*
X129558273Y-122591995D01*
X129329465Y-122744880D01*
X129134880Y-122939465D01*
X128981995Y-123168273D01*
X128950000Y-123245515D01*
X128918005Y-123168273D01*
X128765120Y-122939465D01*
X128570535Y-122744880D01*
X128341727Y-122591995D01*
X128087490Y-122486686D01*
X127817592Y-122433000D01*
X127542408Y-122433000D01*
X127272510Y-122486686D01*
X127018273Y-122591995D01*
X126789465Y-122744880D01*
X126594880Y-122939465D01*
X126441995Y-123168273D01*
X126410000Y-123245515D01*
X126378005Y-123168273D01*
X126225120Y-122939465D01*
X126030535Y-122744880D01*
X125801727Y-122591995D01*
X125547490Y-122486686D01*
X125277592Y-122433000D01*
X125002408Y-122433000D01*
X124732510Y-122486686D01*
X124478273Y-122591995D01*
X124249465Y-122744880D01*
X124054880Y-122939465D01*
X123901995Y-123168273D01*
X123870000Y-123245515D01*
X123838005Y-123168273D01*
X123685120Y-122939465D01*
X123490535Y-122744880D01*
X123261727Y-122591995D01*
X123007490Y-122486686D01*
X122737592Y-122433000D01*
X122462408Y-122433000D01*
X122192510Y-122486686D01*
X121938273Y-122591995D01*
X121709465Y-122744880D01*
X121514880Y-122939465D01*
X121361995Y-123168273D01*
X121256686Y-123422510D01*
X121203000Y-123692408D01*
X117468359Y-123692408D01*
X117736038Y-123424729D01*
X117980631Y-123058669D01*
X118149110Y-122651925D01*
X118235000Y-122220128D01*
X118235000Y-121779872D01*
X172765000Y-121779872D01*
X172765000Y-122220128D01*
X172850890Y-122651925D01*
X173019369Y-123058669D01*
X173263962Y-123424729D01*
X173575271Y-123736038D01*
X173941331Y-123980631D01*
X174348075Y-124149110D01*
X174779872Y-124235000D01*
X175220128Y-124235000D01*
X175651925Y-124149110D01*
X176058669Y-123980631D01*
X176424729Y-123736038D01*
X176736038Y-123424729D01*
X176980631Y-123058669D01*
X177149110Y-122651925D01*
X177235000Y-122220128D01*
X177235000Y-121779872D01*
X177149110Y-121348075D01*
X176980631Y-120941331D01*
X176736038Y-120575271D01*
X176424729Y-120263962D01*
X176058669Y-120019369D01*
X175651925Y-119850890D01*
X175220128Y-119765000D01*
X174779872Y-119765000D01*
X174348075Y-119850890D01*
X173941331Y-120019369D01*
X173575271Y-120263962D01*
X173263962Y-120575271D01*
X173019369Y-120941331D01*
X172850890Y-121348075D01*
X172765000Y-121779872D01*
X118235000Y-121779872D01*
X118149110Y-121348075D01*
X117980631Y-120941331D01*
X117736038Y-120575271D01*
X117424729Y-120263962D01*
X117058669Y-120019369D01*
X116651925Y-119850890D01*
X116220128Y-119765000D01*
X115779872Y-119765000D01*
X115348075Y-119850890D01*
X114941331Y-120019369D01*
X114575271Y-120263962D01*
X114263962Y-120575271D01*
X114019369Y-120941331D01*
X113850890Y-121348075D01*
X113765000Y-121779872D01*
X112685000Y-121779872D01*
X112685000Y-88132408D01*
X121203000Y-88132408D01*
X121203000Y-88407592D01*
X121256686Y-88677490D01*
X121361995Y-88931727D01*
X121514880Y-89160535D01*
X121709465Y-89355120D01*
X121938273Y-89508005D01*
X122192510Y-89613314D01*
X122462408Y-89667000D01*
X122737592Y-89667000D01*
X123007490Y-89613314D01*
X123261727Y-89508005D01*
X123490535Y-89355120D01*
X123685120Y-89160535D01*
X123838005Y-88931727D01*
X123870000Y-88854485D01*
X123901995Y-88931727D01*
X124054880Y-89160535D01*
X124249465Y-89355120D01*
X124478273Y-89508005D01*
X124732510Y-89613314D01*
X125002408Y-89667000D01*
X125277592Y-89667000D01*
X125547490Y-89613314D01*
X125801727Y-89508005D01*
X126030535Y-89355120D01*
X126225120Y-89160535D01*
X126378005Y-88931727D01*
X126410000Y-88854485D01*
X126441995Y-88931727D01*
X126594880Y-89160535D01*
X126789465Y-89355120D01*
X127018273Y-89508005D01*
X127272510Y-89613314D01*
X127542408Y-89667000D01*
X127817592Y-89667000D01*
X128087490Y-89613314D01*
X128341727Y-89508005D01*
X128570535Y-89355120D01*
X128765120Y-89160535D01*
X128918005Y-88931727D01*
X128950000Y-88854485D01*
X128981995Y-88931727D01*
X129134880Y-89160535D01*
X129329465Y-89355120D01*
X129558273Y-89508005D01*
X129812510Y-89613314D01*
X130082408Y-89667000D01*
X130357592Y-89667000D01*
X130627490Y-89613314D01*
X130881727Y-89508005D01*
X131110535Y-89355120D01*
X131305120Y-89160535D01*
X131458005Y-88931727D01*
X131490000Y-88854485D01*
X131521995Y-88931727D01*
X131674880Y-89160535D01*
X131869465Y-89355120D01*
X132098273Y-89508005D01*
X132352510Y-89613314D01*
X132622408Y-89667000D01*
X132897592Y-89667000D01*
X133167490Y-89613314D01*
X133421727Y-89508005D01*
X133650535Y-89355120D01*
X133845120Y-89160535D01*
X133998005Y-88931727D01*
X134030000Y-88854485D01*
X134061995Y-88931727D01*
X134214880Y-89160535D01*
X134409465Y-89355120D01*
X134638273Y-89508005D01*
X134892510Y-89613314D01*
X135162408Y-89667000D01*
X135437592Y-89667000D01*
X135707490Y-89613314D01*
X135961727Y-89508005D01*
X136190535Y-89355120D01*
X136385120Y-89160535D01*
X136538005Y-88931727D01*
X136570000Y-88854485D01*
X136601995Y-88931727D01*
X136754880Y-89160535D01*
X136949465Y-89355120D01*
X137178273Y-89508005D01*
X137432510Y-89613314D01*
X137702408Y-89667000D01*
X137977592Y-89667000D01*
X138247490Y-89613314D01*
X138501727Y-89508005D01*
X138730535Y-89355120D01*
X138850090Y-89235565D01*
X139594040Y-89235565D01*
X139661020Y-89475656D01*
X139910048Y-89592756D01*
X140177135Y-89659023D01*
X140452017Y-89671910D01*
X140724133Y-89630922D01*
X140983023Y-89537636D01*
X141098980Y-89475656D01*
X141165960Y-89235565D01*
X140380000Y-88449605D01*
X139594040Y-89235565D01*
X138850090Y-89235565D01*
X138925120Y-89160535D01*
X139078005Y-88931727D01*
X139107692Y-88860057D01*
X139112364Y-88873023D01*
X139174344Y-88988980D01*
X139414435Y-89055960D01*
X140200395Y-88270000D01*
X140559605Y-88270000D01*
X141345565Y-89055960D01*
X141585656Y-88988980D01*
X141649485Y-88853240D01*
X141681995Y-88931727D01*
X141834880Y-89160535D01*
X142029465Y-89355120D01*
X142258273Y-89508005D01*
X142512510Y-89613314D01*
X142782408Y-89667000D01*
X143057592Y-89667000D01*
X143327490Y-89613314D01*
X143581727Y-89508005D01*
X143810535Y-89355120D01*
X144005120Y-89160535D01*
X144158005Y-88931727D01*
X144190000Y-88854485D01*
X144221995Y-88931727D01*
X144374880Y-89160535D01*
X144569465Y-89355120D01*
X144798273Y-89508005D01*
X145052510Y-89613314D01*
X145322408Y-89667000D01*
X145597592Y-89667000D01*
X145867490Y-89613314D01*
X146121727Y-89508005D01*
X146350535Y-89355120D01*
X146545120Y-89160535D01*
X146698005Y-88931727D01*
X146803314Y-88677490D01*
X146857000Y-88407592D01*
X146857000Y-88132408D01*
X146803314Y-87862510D01*
X146698005Y-87608273D01*
X146545120Y-87379465D01*
X146350535Y-87184880D01*
X146121727Y-87031995D01*
X145867490Y-86926686D01*
X145597592Y-86873000D01*
X145322408Y-86873000D01*
X145052510Y-86926686D01*
X144798273Y-87031995D01*
X144569465Y-87184880D01*
X144374880Y-87379465D01*
X144221995Y-87608273D01*
X144190000Y-87685515D01*
X144158005Y-87608273D01*
X144005120Y-87379465D01*
X143810535Y-87184880D01*
X143581727Y-87031995D01*
X143327490Y-86926686D01*
X143057592Y-86873000D01*
X142782408Y-86873000D01*
X142512510Y-86926686D01*
X142258273Y-87031995D01*
X142029465Y-87184880D01*
X141834880Y-87379465D01*
X141681995Y-87608273D01*
X141652308Y-87679943D01*
X141647636Y-87666977D01*
X141585656Y-87551020D01*
X141345565Y-87484040D01*
X140559605Y-88270000D01*
X140200395Y-88270000D01*
X139414435Y-87484040D01*
X139174344Y-87551020D01*
X139110515Y-87686760D01*
X139078005Y-87608273D01*
X138925120Y-87379465D01*
X138850090Y-87304435D01*
X139594040Y-87304435D01*
X140380000Y-88090395D01*
X141165960Y-87304435D01*
X141098980Y-87064344D01*
X140849952Y-86947244D01*
X140582865Y-86880977D01*
X140307983Y-86868090D01*
X140035867Y-86909078D01*
X139776977Y-87002364D01*
X139661020Y-87064344D01*
X139594040Y-87304435D01*
X138850090Y-87304435D01*
X138730535Y-87184880D01*
X138501727Y-87031995D01*
X138247490Y-86926686D01*
X137977592Y-86873000D01*
X137702408Y-86873000D01*
X137432510Y-86926686D01*
X137178273Y-87031995D01*
X136949465Y-87184880D01*
X136754880Y-87379465D01*
X136601995Y-87608273D01*
X136570000Y-87685515D01*
X136538005Y-87608273D01*
X136385120Y-87379465D01*
X136190535Y-87184880D01*
X135961727Y-87031995D01*
X135707490Y-86926686D01*
X135437592Y-86873000D01*
X135162408Y-86873000D01*
X134892510Y-86926686D01*
X134638273Y-87031995D01*
X134409465Y-87184880D01*
X134214880Y-87379465D01*
X134061995Y-87608273D01*
X134030000Y-87685515D01*
X133998005Y-87608273D01*
X133845120Y-87379465D01*
X133650535Y-87184880D01*
X133421727Y-87031995D01*
X133167490Y-86926686D01*
X132897592Y-86873000D01*
X132622408Y-86873000D01*
X132352510Y-86926686D01*
X132098273Y-87031995D01*
X131869465Y-87184880D01*
X131674880Y-87379465D01*
X131521995Y-87608273D01*
X131490000Y-87685515D01*
X131458005Y-87608273D01*
X131305120Y-87379465D01*
X131110535Y-87184880D01*
X130881727Y-87031995D01*
X130627490Y-86926686D01*
X130357592Y-86873000D01*
X130082408Y-86873000D01*
X129812510Y-86926686D01*
X129558273Y-87031995D01*
X129329465Y-87184880D01*
X129134880Y-87379465D01*
X128981995Y-87608273D01*
X128950000Y-87685515D01*
X128918005Y-87608273D01*
X128765120Y-87379465D01*
X128570535Y-87184880D01*
X128341727Y-87031995D01*
X128087490Y-86926686D01*
X127817592Y-86873000D01*
X127542408Y-86873000D01*
X127272510Y-86926686D01*
X127018273Y-87031995D01*
X126789465Y-87184880D01*
X126594880Y-87379465D01*
X126441995Y-87608273D01*
X126410000Y-87685515D01*
X126378005Y-87608273D01*
X126225120Y-87379465D01*
X126030535Y-87184880D01*
X125801727Y-87031995D01*
X125547490Y-86926686D01*
X125277592Y-86873000D01*
X125002408Y-86873000D01*
X124732510Y-86926686D01*
X124478273Y-87031995D01*
X124249465Y-87184880D01*
X124054880Y-87379465D01*
X123901995Y-87608273D01*
X123870000Y-87685515D01*
X123838005Y-87608273D01*
X123685120Y-87379465D01*
X123490535Y-87184880D01*
X123261727Y-87031995D01*
X123007490Y-86926686D01*
X122737592Y-86873000D01*
X122462408Y-86873000D01*
X122192510Y-86926686D01*
X121938273Y-87031995D01*
X121709465Y-87184880D01*
X121514880Y-87379465D01*
X121361995Y-87608273D01*
X121256686Y-87862510D01*
X121203000Y-88132408D01*
X112685000Y-88132408D01*
X112685000Y-83131891D01*
X119923519Y-83131891D01*
X120020843Y-83406252D01*
X120169822Y-83656355D01*
X120364731Y-83872588D01*
X120598080Y-84046641D01*
X120860901Y-84171825D01*
X121008110Y-84216476D01*
X121238000Y-84095155D01*
X121238000Y-82902000D01*
X120044186Y-82902000D01*
X119923519Y-83131891D01*
X112685000Y-83131891D01*
X112685000Y-80235000D01*
X119872815Y-80235000D01*
X119901487Y-80526111D01*
X119986401Y-80806034D01*
X120124294Y-81064014D01*
X120309866Y-81290134D01*
X120535986Y-81475706D01*
X120593756Y-81506584D01*
X120364731Y-81677412D01*
X120169822Y-81893645D01*
X120020843Y-82143748D01*
X119923519Y-82418109D01*
X120044186Y-82648000D01*
X121238000Y-82648000D01*
X121238000Y-82628000D01*
X121492000Y-82628000D01*
X121492000Y-82648000D01*
X121512000Y-82648000D01*
X121512000Y-82902000D01*
X121492000Y-82902000D01*
X121492000Y-84095155D01*
X121721890Y-84216476D01*
X121869099Y-84171825D01*
X122131920Y-84046641D01*
X122365269Y-83872588D01*
X122560178Y-83656355D01*
X122629799Y-83539477D01*
X122664294Y-83604014D01*
X122849866Y-83830134D01*
X123075986Y-84015706D01*
X123333966Y-84153599D01*
X123613889Y-84238513D01*
X123832050Y-84260000D01*
X123977950Y-84260000D01*
X124196111Y-84238513D01*
X124476034Y-84153599D01*
X124734014Y-84015706D01*
X124960134Y-83830134D01*
X125145706Y-83604014D01*
X125175000Y-83549209D01*
X125204294Y-83604014D01*
X125389866Y-83830134D01*
X125615986Y-84015706D01*
X125873966Y-84153599D01*
X126153889Y-84238513D01*
X126372050Y-84260000D01*
X126517950Y-84260000D01*
X126736111Y-84238513D01*
X127016034Y-84153599D01*
X127274014Y-84015706D01*
X127500134Y-83830134D01*
X127685706Y-83604014D01*
X127715000Y-83549209D01*
X127744294Y-83604014D01*
X127929866Y-83830134D01*
X128155986Y-84015706D01*
X128413966Y-84153599D01*
X128693889Y-84238513D01*
X128912050Y-84260000D01*
X129057950Y-84260000D01*
X129276111Y-84238513D01*
X129556034Y-84153599D01*
X129814014Y-84015706D01*
X130040134Y-83830134D01*
X130225706Y-83604014D01*
X130255000Y-83549209D01*
X130284294Y-83604014D01*
X130469866Y-83830134D01*
X130695986Y-84015706D01*
X130953966Y-84153599D01*
X131233889Y-84238513D01*
X131452050Y-84260000D01*
X131597950Y-84260000D01*
X131816111Y-84238513D01*
X132096034Y-84153599D01*
X132354014Y-84015706D01*
X132580134Y-83830134D01*
X132765706Y-83604014D01*
X132795000Y-83549209D01*
X132824294Y-83604014D01*
X133009866Y-83830134D01*
X133235986Y-84015706D01*
X133493966Y-84153599D01*
X133773889Y-84238513D01*
X133992050Y-84260000D01*
X134137950Y-84260000D01*
X134356111Y-84238513D01*
X134636034Y-84153599D01*
X134894014Y-84015706D01*
X135120134Y-83830134D01*
X135305706Y-83604014D01*
X135335000Y-83549209D01*
X135364294Y-83604014D01*
X135549866Y-83830134D01*
X135775986Y-84015706D01*
X136033966Y-84153599D01*
X136313889Y-84238513D01*
X136532050Y-84260000D01*
X136677950Y-84260000D01*
X136896111Y-84238513D01*
X137176034Y-84153599D01*
X137434014Y-84015706D01*
X137660134Y-83830134D01*
X137845706Y-83604014D01*
X137880201Y-83539477D01*
X137949822Y-83656355D01*
X138144731Y-83872588D01*
X138378080Y-84046641D01*
X138640901Y-84171825D01*
X138788110Y-84216476D01*
X139018000Y-84095155D01*
X139018000Y-82902000D01*
X138998000Y-82902000D01*
X138998000Y-82648000D01*
X139018000Y-82648000D01*
X139018000Y-82628000D01*
X139272000Y-82628000D01*
X139272000Y-82648000D01*
X139292000Y-82648000D01*
X139292000Y-82902000D01*
X139272000Y-82902000D01*
X139272000Y-84095155D01*
X139501890Y-84216476D01*
X139649099Y-84171825D01*
X139911920Y-84046641D01*
X140145269Y-83872588D01*
X140340178Y-83656355D01*
X140409799Y-83539477D01*
X140444294Y-83604014D01*
X140629866Y-83830134D01*
X140855986Y-84015706D01*
X141113966Y-84153599D01*
X141393889Y-84238513D01*
X141612050Y-84260000D01*
X141757950Y-84260000D01*
X141976111Y-84238513D01*
X142256034Y-84153599D01*
X142514014Y-84015706D01*
X142740134Y-83830134D01*
X142925706Y-83604014D01*
X142955000Y-83549209D01*
X142984294Y-83604014D01*
X143169866Y-83830134D01*
X143395986Y-84015706D01*
X143653966Y-84153599D01*
X143933889Y-84238513D01*
X144152050Y-84260000D01*
X144297950Y-84260000D01*
X144516111Y-84238513D01*
X144796034Y-84153599D01*
X145054014Y-84015706D01*
X145280134Y-83830134D01*
X145465706Y-83604014D01*
X145495000Y-83549209D01*
X145524294Y-83604014D01*
X145709866Y-83830134D01*
X145935986Y-84015706D01*
X146193966Y-84153599D01*
X146473889Y-84238513D01*
X146692050Y-84260000D01*
X146837950Y-84260000D01*
X147056111Y-84238513D01*
X147336034Y-84153599D01*
X147594014Y-84015706D01*
X147820134Y-83830134D01*
X148005706Y-83604014D01*
X148035000Y-83549209D01*
X148064294Y-83604014D01*
X148249866Y-83830134D01*
X148475986Y-84015706D01*
X148545000Y-84052595D01*
X148545001Y-86631268D01*
X148541324Y-86668600D01*
X148555998Y-86817585D01*
X148599454Y-86960846D01*
X148670026Y-87092876D01*
X148741201Y-87179602D01*
X148765000Y-87208601D01*
X148793998Y-87232399D01*
X150519223Y-88957625D01*
X150469600Y-89207099D01*
X150469600Y-89507301D01*
X150528166Y-89801734D01*
X150643049Y-90079085D01*
X150809832Y-90328693D01*
X151022107Y-90540968D01*
X151271715Y-90707751D01*
X151549066Y-90822634D01*
X151843499Y-90881200D01*
X152143701Y-90881200D01*
X152438134Y-90822634D01*
X152715485Y-90707751D01*
X152965093Y-90540968D01*
X153177368Y-90328693D01*
X153263600Y-90199638D01*
X153349832Y-90328693D01*
X153562107Y-90540968D01*
X153811715Y-90707751D01*
X154089066Y-90822634D01*
X154383499Y-90881200D01*
X154683701Y-90881200D01*
X154978134Y-90822634D01*
X155255485Y-90707751D01*
X155505093Y-90540968D01*
X155632630Y-90413431D01*
X156196974Y-90413431D01*
X156279327Y-90666489D01*
X156550018Y-90796286D01*
X156840830Y-90870780D01*
X157140588Y-90887108D01*
X157437771Y-90844643D01*
X157720959Y-90745016D01*
X157867873Y-90666489D01*
X157950226Y-90413431D01*
X157073600Y-89536805D01*
X156196974Y-90413431D01*
X155632630Y-90413431D01*
X155717368Y-90328693D01*
X155823017Y-90170578D01*
X156017369Y-90233826D01*
X156893995Y-89357200D01*
X157253205Y-89357200D01*
X158129831Y-90233826D01*
X158324183Y-90170578D01*
X158429832Y-90328693D01*
X158642107Y-90540968D01*
X158891715Y-90707751D01*
X159169066Y-90822634D01*
X159463499Y-90881200D01*
X159763701Y-90881200D01*
X160058134Y-90822634D01*
X160335485Y-90707751D01*
X160585093Y-90540968D01*
X160797368Y-90328693D01*
X160883600Y-90199638D01*
X160969832Y-90328693D01*
X161182107Y-90540968D01*
X161431715Y-90707751D01*
X161709066Y-90822634D01*
X162003499Y-90881200D01*
X162303701Y-90881200D01*
X162598134Y-90822634D01*
X162875485Y-90707751D01*
X163125093Y-90540968D01*
X163337368Y-90328693D01*
X163423600Y-90199638D01*
X163509832Y-90328693D01*
X163722107Y-90540968D01*
X163971715Y-90707751D01*
X164249066Y-90822634D01*
X164543499Y-90881200D01*
X164843701Y-90881200D01*
X165138134Y-90822634D01*
X165415485Y-90707751D01*
X165665093Y-90540968D01*
X165877368Y-90328693D01*
X165963600Y-90199638D01*
X166049832Y-90328693D01*
X166262107Y-90540968D01*
X166511715Y-90707751D01*
X166789066Y-90822634D01*
X167083499Y-90881200D01*
X167383701Y-90881200D01*
X167678134Y-90822634D01*
X167955485Y-90707751D01*
X168205093Y-90540968D01*
X168417368Y-90328693D01*
X168503600Y-90199638D01*
X168589832Y-90328693D01*
X168802107Y-90540968D01*
X169051715Y-90707751D01*
X169329066Y-90822634D01*
X169623499Y-90881200D01*
X169923701Y-90881200D01*
X170218134Y-90822634D01*
X170495485Y-90707751D01*
X170745093Y-90540968D01*
X170957368Y-90328693D01*
X171124151Y-90079085D01*
X171239034Y-89801734D01*
X171297600Y-89507301D01*
X171297600Y-89207099D01*
X171239034Y-88912666D01*
X171124151Y-88635315D01*
X170957368Y-88385707D01*
X170745093Y-88173432D01*
X170495485Y-88006649D01*
X170218134Y-87891766D01*
X169923701Y-87833200D01*
X169623499Y-87833200D01*
X169329066Y-87891766D01*
X169051715Y-88006649D01*
X168802107Y-88173432D01*
X168589832Y-88385707D01*
X168503600Y-88514762D01*
X168417368Y-88385707D01*
X168205093Y-88173432D01*
X167955485Y-88006649D01*
X167678134Y-87891766D01*
X167383701Y-87833200D01*
X167083499Y-87833200D01*
X166789066Y-87891766D01*
X166511715Y-88006649D01*
X166262107Y-88173432D01*
X166049832Y-88385707D01*
X165963600Y-88514762D01*
X165877368Y-88385707D01*
X165665093Y-88173432D01*
X165415485Y-88006649D01*
X165138134Y-87891766D01*
X164843701Y-87833200D01*
X164543499Y-87833200D01*
X164249066Y-87891766D01*
X163971715Y-88006649D01*
X163722107Y-88173432D01*
X163509832Y-88385707D01*
X163423600Y-88514762D01*
X163337368Y-88385707D01*
X163125093Y-88173432D01*
X162875485Y-88006649D01*
X162598134Y-87891766D01*
X162303701Y-87833200D01*
X162003499Y-87833200D01*
X161709066Y-87891766D01*
X161431715Y-88006649D01*
X161182107Y-88173432D01*
X160969832Y-88385707D01*
X160883600Y-88514762D01*
X160797368Y-88385707D01*
X160585093Y-88173432D01*
X160335485Y-88006649D01*
X160058134Y-87891766D01*
X159763701Y-87833200D01*
X159463499Y-87833200D01*
X159169066Y-87891766D01*
X158891715Y-88006649D01*
X158642107Y-88173432D01*
X158429832Y-88385707D01*
X158324183Y-88543822D01*
X158129831Y-88480574D01*
X157253205Y-89357200D01*
X156893995Y-89357200D01*
X156017369Y-88480574D01*
X155823017Y-88543822D01*
X155717368Y-88385707D01*
X155632630Y-88300969D01*
X156196974Y-88300969D01*
X157073600Y-89177595D01*
X157950226Y-88300969D01*
X157867873Y-88047911D01*
X157597182Y-87918114D01*
X157306370Y-87843620D01*
X157006612Y-87827292D01*
X156709429Y-87869757D01*
X156426241Y-87969384D01*
X156279327Y-88047911D01*
X156196974Y-88300969D01*
X155632630Y-88300969D01*
X155505093Y-88173432D01*
X155255485Y-88006649D01*
X154978134Y-87891766D01*
X154683701Y-87833200D01*
X154383499Y-87833200D01*
X154089066Y-87891766D01*
X153811715Y-88006649D01*
X153562107Y-88173432D01*
X153349832Y-88385707D01*
X153263600Y-88514762D01*
X153177368Y-88385707D01*
X152965093Y-88173432D01*
X152715485Y-88006649D01*
X152438134Y-87891766D01*
X152143701Y-87833200D01*
X151843499Y-87833200D01*
X151594025Y-87882823D01*
X150065000Y-86353799D01*
X150065000Y-84052595D01*
X150134014Y-84015706D01*
X150360134Y-83830134D01*
X150545706Y-83604014D01*
X150575000Y-83549209D01*
X150604294Y-83604014D01*
X150789866Y-83830134D01*
X151015986Y-84015706D01*
X151273966Y-84153599D01*
X151553889Y-84238513D01*
X151772050Y-84260000D01*
X151917950Y-84260000D01*
X152136111Y-84238513D01*
X152416034Y-84153599D01*
X152674014Y-84015706D01*
X152900134Y-83830134D01*
X153085706Y-83604014D01*
X153115000Y-83549209D01*
X153144294Y-83604014D01*
X153329866Y-83830134D01*
X153555986Y-84015706D01*
X153813966Y-84153599D01*
X154093889Y-84238513D01*
X154312050Y-84260000D01*
X154457950Y-84260000D01*
X154676111Y-84238513D01*
X154956034Y-84153599D01*
X155214014Y-84015706D01*
X155440134Y-83830134D01*
X155625706Y-83604014D01*
X155655000Y-83549209D01*
X155684294Y-83604014D01*
X155869866Y-83830134D01*
X156095986Y-84015706D01*
X156353966Y-84153599D01*
X156633889Y-84238513D01*
X156852050Y-84260000D01*
X156997950Y-84260000D01*
X157216111Y-84238513D01*
X157496034Y-84153599D01*
X157754014Y-84015706D01*
X157980134Y-83830134D01*
X158165706Y-83604014D01*
X158200201Y-83539477D01*
X158269822Y-83656355D01*
X158464731Y-83872588D01*
X158698080Y-84046641D01*
X158960901Y-84171825D01*
X159108110Y-84216476D01*
X159338000Y-84095155D01*
X159338000Y-82902000D01*
X159318000Y-82902000D01*
X159318000Y-82648000D01*
X159338000Y-82648000D01*
X159338000Y-82628000D01*
X159592000Y-82628000D01*
X159592000Y-82648000D01*
X159612000Y-82648000D01*
X159612000Y-82902000D01*
X159592000Y-82902000D01*
X159592000Y-84095155D01*
X159821890Y-84216476D01*
X159969099Y-84171825D01*
X160231920Y-84046641D01*
X160465269Y-83872588D01*
X160660178Y-83656355D01*
X160729799Y-83539477D01*
X160764294Y-83604014D01*
X160949866Y-83830134D01*
X161175986Y-84015706D01*
X161433966Y-84153599D01*
X161713889Y-84238513D01*
X161932050Y-84260000D01*
X162077950Y-84260000D01*
X162296111Y-84238513D01*
X162576034Y-84153599D01*
X162834014Y-84015706D01*
X163060134Y-83830134D01*
X163245706Y-83604014D01*
X163275000Y-83549209D01*
X163304294Y-83604014D01*
X163489866Y-83830134D01*
X163715986Y-84015706D01*
X163973966Y-84153599D01*
X164253889Y-84238513D01*
X164472050Y-84260000D01*
X164617950Y-84260000D01*
X164836111Y-84238513D01*
X165116034Y-84153599D01*
X165374014Y-84015706D01*
X165600134Y-83830134D01*
X165785706Y-83604014D01*
X165815000Y-83549209D01*
X165844294Y-83604014D01*
X166029866Y-83830134D01*
X166255986Y-84015706D01*
X166513966Y-84153599D01*
X166793889Y-84238513D01*
X167012050Y-84260000D01*
X167157950Y-84260000D01*
X167376111Y-84238513D01*
X167656034Y-84153599D01*
X167914014Y-84015706D01*
X168140134Y-83830134D01*
X168164607Y-83800313D01*
X168185498Y-83869180D01*
X168244463Y-83979494D01*
X168323815Y-84076185D01*
X168420506Y-84155537D01*
X168530820Y-84214502D01*
X168650518Y-84250812D01*
X168775000Y-84263072D01*
X170475000Y-84263072D01*
X170599482Y-84250812D01*
X170719180Y-84214502D01*
X170829494Y-84155537D01*
X170926185Y-84076185D01*
X171005537Y-83979494D01*
X171064502Y-83869180D01*
X171100812Y-83749482D01*
X171113072Y-83625000D01*
X171113072Y-81925000D01*
X171100812Y-81800518D01*
X171064502Y-81680820D01*
X171005537Y-81570506D01*
X170926185Y-81473815D01*
X170829494Y-81394463D01*
X170719180Y-81335498D01*
X170650313Y-81314607D01*
X170680134Y-81290134D01*
X170865706Y-81064014D01*
X171003599Y-80806034D01*
X171088513Y-80526111D01*
X171117185Y-80235000D01*
X171088513Y-79943889D01*
X171003599Y-79663966D01*
X170865706Y-79405986D01*
X170680134Y-79179866D01*
X170454014Y-78994294D01*
X170196034Y-78856401D01*
X169916111Y-78771487D01*
X169697950Y-78750000D01*
X169552050Y-78750000D01*
X169333889Y-78771487D01*
X169053966Y-78856401D01*
X168795986Y-78994294D01*
X168569866Y-79179866D01*
X168384294Y-79405986D01*
X168355000Y-79460791D01*
X168325706Y-79405986D01*
X168140134Y-79179866D01*
X167914014Y-78994294D01*
X167656034Y-78856401D01*
X167376111Y-78771487D01*
X167157950Y-78750000D01*
X167012050Y-78750000D01*
X166793889Y-78771487D01*
X166513966Y-78856401D01*
X166255986Y-78994294D01*
X166029866Y-79179866D01*
X165844294Y-79405986D01*
X165809799Y-79470523D01*
X165740178Y-79353645D01*
X165545269Y-79137412D01*
X165311920Y-78963359D01*
X165049099Y-78838175D01*
X164901890Y-78793524D01*
X164672000Y-78914845D01*
X164672000Y-80108000D01*
X164692000Y-80108000D01*
X164692000Y-80362000D01*
X164672000Y-80362000D01*
X164672000Y-80382000D01*
X164418000Y-80382000D01*
X164418000Y-80362000D01*
X164398000Y-80362000D01*
X164398000Y-80108000D01*
X164418000Y-80108000D01*
X164418000Y-78914845D01*
X164188110Y-78793524D01*
X164040901Y-78838175D01*
X163778080Y-78963359D01*
X163544731Y-79137412D01*
X163349822Y-79353645D01*
X163280201Y-79470523D01*
X163245706Y-79405986D01*
X163060134Y-79179866D01*
X162834014Y-78994294D01*
X162576034Y-78856401D01*
X162296111Y-78771487D01*
X162077950Y-78750000D01*
X161932050Y-78750000D01*
X161713889Y-78771487D01*
X161433966Y-78856401D01*
X161175986Y-78994294D01*
X160949866Y-79179866D01*
X160764294Y-79405986D01*
X160735000Y-79460791D01*
X160705706Y-79405986D01*
X160520134Y-79179866D01*
X160294014Y-78994294D01*
X160036034Y-78856401D01*
X159756111Y-78771487D01*
X159537950Y-78750000D01*
X159484802Y-78750000D01*
X160474802Y-77760000D01*
X162697678Y-77760000D01*
X162735000Y-77763676D01*
X162772322Y-77760000D01*
X162772333Y-77760000D01*
X162883986Y-77749003D01*
X163027247Y-77705546D01*
X163159276Y-77634974D01*
X163275001Y-77540001D01*
X163298804Y-77510998D01*
X164328627Y-76481175D01*
X164539902Y-76523200D01*
X164830098Y-76523200D01*
X165114717Y-76466586D01*
X165382822Y-76355533D01*
X165624110Y-76194309D01*
X165829309Y-75989110D01*
X165990533Y-75747822D01*
X166101586Y-75479717D01*
X166158200Y-75195098D01*
X166158200Y-74904902D01*
X166101586Y-74620283D01*
X165990533Y-74352178D01*
X165829309Y-74110890D01*
X165624110Y-73905691D01*
X165382822Y-73744467D01*
X165114717Y-73633414D01*
X164830098Y-73576800D01*
X164539902Y-73576800D01*
X164255283Y-73633414D01*
X163987178Y-73744467D01*
X163745890Y-73905691D01*
X163540691Y-74110890D01*
X163415000Y-74298999D01*
X163289309Y-74110890D01*
X163084110Y-73905691D01*
X162842822Y-73744467D01*
X162574717Y-73633414D01*
X162290098Y-73576800D01*
X161999902Y-73576800D01*
X161715283Y-73633414D01*
X161447178Y-73744467D01*
X161205890Y-73905691D01*
X161000691Y-74110890D01*
X160875000Y-74298999D01*
X160749309Y-74110890D01*
X160544110Y-73905691D01*
X160302822Y-73744467D01*
X160034717Y-73633414D01*
X159750098Y-73576800D01*
X159459902Y-73576800D01*
X159175283Y-73633414D01*
X158907178Y-73744467D01*
X158665890Y-73905691D01*
X158460691Y-74110890D01*
X158337711Y-74294943D01*
X158332844Y-74285838D01*
X158084975Y-74209630D01*
X157244605Y-75050000D01*
X158084975Y-75890370D01*
X158332844Y-75814162D01*
X158337399Y-75804592D01*
X158460691Y-75989110D01*
X158665890Y-76194309D01*
X158907178Y-76355533D01*
X159175283Y-76466586D01*
X159459902Y-76523200D01*
X159561998Y-76523200D01*
X157290996Y-78794203D01*
X157216111Y-78771487D01*
X156997950Y-78750000D01*
X156852050Y-78750000D01*
X156633889Y-78771487D01*
X156353966Y-78856401D01*
X156095986Y-78994294D01*
X155869866Y-79179866D01*
X155684294Y-79405986D01*
X155649799Y-79470523D01*
X155580178Y-79353645D01*
X155385269Y-79137412D01*
X155151920Y-78963359D01*
X154889099Y-78838175D01*
X154741890Y-78793524D01*
X154512000Y-78914845D01*
X154512000Y-80108000D01*
X154532000Y-80108000D01*
X154532000Y-80362000D01*
X154512000Y-80362000D01*
X154512000Y-80382000D01*
X154258000Y-80382000D01*
X154258000Y-80362000D01*
X154238000Y-80362000D01*
X154238000Y-80108000D01*
X154258000Y-80108000D01*
X154258000Y-78914845D01*
X154028110Y-78793524D01*
X153880901Y-78838175D01*
X153618080Y-78963359D01*
X153384731Y-79137412D01*
X153189822Y-79353645D01*
X153120201Y-79470523D01*
X153085706Y-79405986D01*
X152900134Y-79179866D01*
X152674014Y-78994294D01*
X152416034Y-78856401D01*
X152136111Y-78771487D01*
X151917950Y-78750000D01*
X151772050Y-78750000D01*
X151553889Y-78771487D01*
X151273966Y-78856401D01*
X151015986Y-78994294D01*
X150789866Y-79179866D01*
X150604294Y-79405986D01*
X150575000Y-79460791D01*
X150545706Y-79405986D01*
X150360134Y-79179866D01*
X150134014Y-78994294D01*
X149876034Y-78856401D01*
X149596111Y-78771487D01*
X149377950Y-78750000D01*
X149232050Y-78750000D01*
X149013889Y-78771487D01*
X148733966Y-78856401D01*
X148475986Y-78994294D01*
X148249866Y-79179866D01*
X148064294Y-79405986D01*
X148029799Y-79470523D01*
X147960178Y-79353645D01*
X147765269Y-79137412D01*
X147531920Y-78963359D01*
X147269099Y-78838175D01*
X147121890Y-78793524D01*
X146892000Y-78914845D01*
X146892000Y-80108000D01*
X146912000Y-80108000D01*
X146912000Y-80362000D01*
X146892000Y-80362000D01*
X146892000Y-80382000D01*
X146638000Y-80382000D01*
X146638000Y-80362000D01*
X146618000Y-80362000D01*
X146618000Y-80108000D01*
X146638000Y-80108000D01*
X146638000Y-78914845D01*
X146408110Y-78793524D01*
X146260901Y-78838175D01*
X145998080Y-78963359D01*
X145764731Y-79137412D01*
X145569822Y-79353645D01*
X145500201Y-79470523D01*
X145465706Y-79405986D01*
X145280134Y-79179866D01*
X145054014Y-78994294D01*
X144796034Y-78856401D01*
X144516111Y-78771487D01*
X144297950Y-78750000D01*
X144152050Y-78750000D01*
X143933889Y-78771487D01*
X143653966Y-78856401D01*
X143395986Y-78994294D01*
X143169866Y-79179866D01*
X142984294Y-79405986D01*
X142955000Y-79460791D01*
X142925706Y-79405986D01*
X142740134Y-79179866D01*
X142514014Y-78994294D01*
X142256034Y-78856401D01*
X141976111Y-78771487D01*
X141757950Y-78750000D01*
X141612050Y-78750000D01*
X141393889Y-78771487D01*
X141113966Y-78856401D01*
X140855986Y-78994294D01*
X140629866Y-79179866D01*
X140444294Y-79405986D01*
X140415000Y-79460791D01*
X140385706Y-79405986D01*
X140200134Y-79179866D01*
X139974014Y-78994294D01*
X139716034Y-78856401D01*
X139436111Y-78771487D01*
X139217950Y-78750000D01*
X139072050Y-78750000D01*
X138853889Y-78771487D01*
X138573966Y-78856401D01*
X138315986Y-78994294D01*
X138089866Y-79179866D01*
X137904294Y-79405986D01*
X137875000Y-79460791D01*
X137845706Y-79405986D01*
X137660134Y-79179866D01*
X137434014Y-78994294D01*
X137176034Y-78856401D01*
X136896111Y-78771487D01*
X136677950Y-78750000D01*
X136532050Y-78750000D01*
X136313889Y-78771487D01*
X136033966Y-78856401D01*
X135775986Y-78994294D01*
X135549866Y-79179866D01*
X135364294Y-79405986D01*
X135329799Y-79470523D01*
X135260178Y-79353645D01*
X135065269Y-79137412D01*
X134831920Y-78963359D01*
X134569099Y-78838175D01*
X134421890Y-78793524D01*
X134192000Y-78914845D01*
X134192000Y-80108000D01*
X134212000Y-80108000D01*
X134212000Y-80362000D01*
X134192000Y-80362000D01*
X134192000Y-80382000D01*
X133938000Y-80382000D01*
X133938000Y-80362000D01*
X133918000Y-80362000D01*
X133918000Y-80108000D01*
X133938000Y-80108000D01*
X133938000Y-78914845D01*
X133708110Y-78793524D01*
X133560901Y-78838175D01*
X133298080Y-78963359D01*
X133064731Y-79137412D01*
X132869822Y-79353645D01*
X132800201Y-79470523D01*
X132765706Y-79405986D01*
X132580134Y-79179866D01*
X132354014Y-78994294D01*
X132096034Y-78856401D01*
X131816111Y-78771487D01*
X131597950Y-78750000D01*
X131452050Y-78750000D01*
X131233889Y-78771487D01*
X130953966Y-78856401D01*
X130695986Y-78994294D01*
X130469866Y-79179866D01*
X130284294Y-79405986D01*
X130249799Y-79470523D01*
X130180178Y-79353645D01*
X129985269Y-79137412D01*
X129751920Y-78963359D01*
X129489099Y-78838175D01*
X129341890Y-78793524D01*
X129112000Y-78914845D01*
X129112000Y-80108000D01*
X129132000Y-80108000D01*
X129132000Y-80362000D01*
X129112000Y-80362000D01*
X129112000Y-80382000D01*
X128858000Y-80382000D01*
X128858000Y-80362000D01*
X128838000Y-80362000D01*
X128838000Y-80108000D01*
X128858000Y-80108000D01*
X128858000Y-78914845D01*
X128628110Y-78793524D01*
X128480901Y-78838175D01*
X128218080Y-78963359D01*
X127984731Y-79137412D01*
X127789822Y-79353645D01*
X127720201Y-79470523D01*
X127685706Y-79405986D01*
X127500134Y-79179866D01*
X127274014Y-78994294D01*
X127016034Y-78856401D01*
X126736111Y-78771487D01*
X126517950Y-78750000D01*
X126372050Y-78750000D01*
X126153889Y-78771487D01*
X125873966Y-78856401D01*
X125615986Y-78994294D01*
X125389866Y-79179866D01*
X125204294Y-79405986D01*
X125175000Y-79460791D01*
X125145706Y-79405986D01*
X124960134Y-79179866D01*
X124734014Y-78994294D01*
X124476034Y-78856401D01*
X124196111Y-78771487D01*
X123977950Y-78750000D01*
X123832050Y-78750000D01*
X123613889Y-78771487D01*
X123333966Y-78856401D01*
X123075986Y-78994294D01*
X122849866Y-79179866D01*
X122664294Y-79405986D01*
X122635000Y-79460791D01*
X122605706Y-79405986D01*
X122420134Y-79179866D01*
X122194014Y-78994294D01*
X121936034Y-78856401D01*
X121656111Y-78771487D01*
X121437950Y-78750000D01*
X121292050Y-78750000D01*
X121073889Y-78771487D01*
X120793966Y-78856401D01*
X120535986Y-78994294D01*
X120309866Y-79179866D01*
X120124294Y-79405986D01*
X119986401Y-79663966D01*
X119901487Y-79943889D01*
X119872815Y-80235000D01*
X112685000Y-80235000D01*
X112685000Y-74904902D01*
X150511800Y-74904902D01*
X150511800Y-75195098D01*
X150568414Y-75479717D01*
X150679467Y-75747822D01*
X150840691Y-75989110D01*
X151045890Y-76194309D01*
X151287178Y-76355533D01*
X151555283Y-76466586D01*
X151839902Y-76523200D01*
X152130098Y-76523200D01*
X152414717Y-76466586D01*
X152682822Y-76355533D01*
X152924110Y-76194309D01*
X153129309Y-75989110D01*
X153255000Y-75801001D01*
X153380691Y-75989110D01*
X153585890Y-76194309D01*
X153827178Y-76355533D01*
X154095283Y-76466586D01*
X154379902Y-76523200D01*
X154670098Y-76523200D01*
X154954717Y-76466586D01*
X155222822Y-76355533D01*
X155464110Y-76194309D01*
X155588444Y-76069975D01*
X156224630Y-76069975D01*
X156300838Y-76317844D01*
X156562865Y-76442563D01*
X156844189Y-76513768D01*
X157133999Y-76528719D01*
X157421157Y-76486845D01*
X157694628Y-76389754D01*
X157829162Y-76317844D01*
X157905370Y-76069975D01*
X157065000Y-75229605D01*
X156224630Y-76069975D01*
X155588444Y-76069975D01*
X155669309Y-75989110D01*
X155792289Y-75805057D01*
X155797156Y-75814162D01*
X156045025Y-75890370D01*
X156885395Y-75050000D01*
X156045025Y-74209630D01*
X155797156Y-74285838D01*
X155792601Y-74295408D01*
X155669309Y-74110890D01*
X155588444Y-74030025D01*
X156224630Y-74030025D01*
X157065000Y-74870395D01*
X157905370Y-74030025D01*
X157829162Y-73782156D01*
X157567135Y-73657437D01*
X157285811Y-73586232D01*
X156996001Y-73571281D01*
X156708843Y-73613155D01*
X156435372Y-73710246D01*
X156300838Y-73782156D01*
X156224630Y-74030025D01*
X155588444Y-74030025D01*
X155464110Y-73905691D01*
X155222822Y-73744467D01*
X154954717Y-73633414D01*
X154670098Y-73576800D01*
X154379902Y-73576800D01*
X154095283Y-73633414D01*
X153827178Y-73744467D01*
X153585890Y-73905691D01*
X153380691Y-74110890D01*
X153255000Y-74298999D01*
X153129309Y-74110890D01*
X152924110Y-73905691D01*
X152682822Y-73744467D01*
X152414717Y-73633414D01*
X152130098Y-73576800D01*
X151839902Y-73576800D01*
X151555283Y-73633414D01*
X151287178Y-73744467D01*
X151045890Y-73905691D01*
X150840691Y-74110890D01*
X150679467Y-74352178D01*
X150568414Y-74620283D01*
X150511800Y-74904902D01*
X112685000Y-74904902D01*
X112685000Y-58779872D01*
X113765000Y-58779872D01*
X113765000Y-59220128D01*
X113850890Y-59651925D01*
X114019369Y-60058669D01*
X114263962Y-60424729D01*
X114575271Y-60736038D01*
X114941331Y-60980631D01*
X115348075Y-61149110D01*
X115779872Y-61235000D01*
X116220128Y-61235000D01*
X116651925Y-61149110D01*
X117058669Y-60980631D01*
X117424729Y-60736038D01*
X117736038Y-60424729D01*
X117980631Y-60058669D01*
X118149110Y-59651925D01*
X118235000Y-59220128D01*
X118235000Y-58779872D01*
X118149110Y-58348075D01*
X117980631Y-57941331D01*
X117736038Y-57575271D01*
X117424729Y-57263962D01*
X117216611Y-57124902D01*
X153051800Y-57124902D01*
X153051800Y-57415098D01*
X153108414Y-57699717D01*
X153219467Y-57967822D01*
X153380691Y-58209110D01*
X153585890Y-58414309D01*
X153827178Y-58575533D01*
X154095283Y-58686586D01*
X154379902Y-58743200D01*
X154670098Y-58743200D01*
X154954717Y-58686586D01*
X155222822Y-58575533D01*
X155464110Y-58414309D01*
X155669309Y-58209110D01*
X155795000Y-58021001D01*
X155920691Y-58209110D01*
X156125890Y-58414309D01*
X156367178Y-58575533D01*
X156635283Y-58686586D01*
X156919902Y-58743200D01*
X157210098Y-58743200D01*
X157494717Y-58686586D01*
X157762822Y-58575533D01*
X158004110Y-58414309D01*
X158209309Y-58209110D01*
X158335000Y-58021001D01*
X158460691Y-58209110D01*
X158665890Y-58414309D01*
X158907178Y-58575533D01*
X159175283Y-58686586D01*
X159459902Y-58743200D01*
X159750098Y-58743200D01*
X160034717Y-58686586D01*
X160302822Y-58575533D01*
X160544110Y-58414309D01*
X160749309Y-58209110D01*
X160875000Y-58021001D01*
X161000691Y-58209110D01*
X161205890Y-58414309D01*
X161447178Y-58575533D01*
X161715283Y-58686586D01*
X161999902Y-58743200D01*
X162290098Y-58743200D01*
X162574717Y-58686586D01*
X162842822Y-58575533D01*
X163084110Y-58414309D01*
X163289309Y-58209110D01*
X163450533Y-57967822D01*
X163561586Y-57699717D01*
X163618200Y-57415098D01*
X163618200Y-57124902D01*
X163561586Y-56840283D01*
X163450533Y-56572178D01*
X163289309Y-56330890D01*
X163084110Y-56125691D01*
X162842822Y-55964467D01*
X162574717Y-55853414D01*
X162290098Y-55796800D01*
X161999902Y-55796800D01*
X161715283Y-55853414D01*
X161447178Y-55964467D01*
X161205890Y-56125691D01*
X161000691Y-56330890D01*
X160875000Y-56518999D01*
X160749309Y-56330890D01*
X160544110Y-56125691D01*
X160302822Y-55964467D01*
X160034717Y-55853414D01*
X159750098Y-55796800D01*
X159459902Y-55796800D01*
X159175283Y-55853414D01*
X158907178Y-55964467D01*
X158665890Y-56125691D01*
X158460691Y-56330890D01*
X158335000Y-56518999D01*
X158209309Y-56330890D01*
X158004110Y-56125691D01*
X157762822Y-55964467D01*
X157494717Y-55853414D01*
X157210098Y-55796800D01*
X156919902Y-55796800D01*
X156635283Y-55853414D01*
X156367178Y-55964467D01*
X156125890Y-56125691D01*
X155920691Y-56330890D01*
X155795000Y-56518999D01*
X155669309Y-56330890D01*
X155464110Y-56125691D01*
X155222822Y-55964467D01*
X154954717Y-55853414D01*
X154670098Y-55796800D01*
X154379902Y-55796800D01*
X154095283Y-55853414D01*
X153827178Y-55964467D01*
X153585890Y-56125691D01*
X153380691Y-56330890D01*
X153219467Y-56572178D01*
X153108414Y-56840283D01*
X153051800Y-57124902D01*
X117216611Y-57124902D01*
X117058669Y-57019369D01*
X116651925Y-56850890D01*
X116220128Y-56765000D01*
X115779872Y-56765000D01*
X115348075Y-56850890D01*
X114941331Y-57019369D01*
X114575271Y-57263962D01*
X114263962Y-57575271D01*
X114019369Y-57941331D01*
X113850890Y-58348075D01*
X113765000Y-58779872D01*
X112685000Y-58779872D01*
X112685000Y-55685000D01*
X178315000Y-55685000D01*
X178315001Y-125315000D01*
X178315001Y-125315000D01*
G37*
X178315001Y-125315000D02*
X112685000Y-125315000D01*
X112685000Y-121779872D01*
X113765000Y-121779872D01*
X113765000Y-122220128D01*
X113850890Y-122651925D01*
X114019369Y-123058669D01*
X114263962Y-123424729D01*
X114575271Y-123736038D01*
X114941331Y-123980631D01*
X115348075Y-124149110D01*
X115779872Y-124235000D01*
X116220128Y-124235000D01*
X116651925Y-124149110D01*
X117058669Y-123980631D01*
X117424729Y-123736038D01*
X117468359Y-123692408D01*
X121203000Y-123692408D01*
X121203000Y-123967592D01*
X121256686Y-124237490D01*
X121361995Y-124491727D01*
X121514880Y-124720535D01*
X121709465Y-124915120D01*
X121938273Y-125068005D01*
X122192510Y-125173314D01*
X122462408Y-125227000D01*
X122737592Y-125227000D01*
X123007490Y-125173314D01*
X123261727Y-125068005D01*
X123490535Y-124915120D01*
X123685120Y-124720535D01*
X123838005Y-124491727D01*
X123870000Y-124414485D01*
X123901995Y-124491727D01*
X124054880Y-124720535D01*
X124249465Y-124915120D01*
X124478273Y-125068005D01*
X124732510Y-125173314D01*
X125002408Y-125227000D01*
X125277592Y-125227000D01*
X125547490Y-125173314D01*
X125801727Y-125068005D01*
X126030535Y-124915120D01*
X126225120Y-124720535D01*
X126378005Y-124491727D01*
X126410000Y-124414485D01*
X126441995Y-124491727D01*
X126594880Y-124720535D01*
X126789465Y-124915120D01*
X127018273Y-125068005D01*
X127272510Y-125173314D01*
X127542408Y-125227000D01*
X127817592Y-125227000D01*
X128087490Y-125173314D01*
X128341727Y-125068005D01*
X128570535Y-124915120D01*
X128765120Y-124720535D01*
X128918005Y-124491727D01*
X128950000Y-124414485D01*
X128981995Y-124491727D01*
X129134880Y-124720535D01*
X129329465Y-124915120D01*
X129558273Y-125068005D01*
X129812510Y-125173314D01*
X130082408Y-125227000D01*
X130357592Y-125227000D01*
X130627490Y-125173314D01*
X130881727Y-125068005D01*
X131110535Y-124915120D01*
X131305120Y-124720535D01*
X131458005Y-124491727D01*
X131490000Y-124414485D01*
X131521995Y-124491727D01*
X131674880Y-124720535D01*
X131869465Y-124915120D01*
X132098273Y-125068005D01*
X132352510Y-125173314D01*
X132622408Y-125227000D01*
X132897592Y-125227000D01*
X133167490Y-125173314D01*
X133421727Y-125068005D01*
X133650535Y-124915120D01*
X133845120Y-124720535D01*
X133998005Y-124491727D01*
X134030000Y-124414485D01*
X134061995Y-124491727D01*
X134214880Y-124720535D01*
X134409465Y-124915120D01*
X134638273Y-125068005D01*
X134892510Y-125173314D01*
X135162408Y-125227000D01*
X135437592Y-125227000D01*
X135707490Y-125173314D01*
X135961727Y-125068005D01*
X136190535Y-124915120D01*
X136385120Y-124720535D01*
X136538005Y-124491727D01*
X136570000Y-124414485D01*
X136601995Y-124491727D01*
X136754880Y-124720535D01*
X136949465Y-124915120D01*
X137178273Y-125068005D01*
X137432510Y-125173314D01*
X137702408Y-125227000D01*
X137977592Y-125227000D01*
X138247490Y-125173314D01*
X138501727Y-125068005D01*
X138730535Y-124915120D01*
X138925120Y-124720535D01*
X139078005Y-124491727D01*
X139110000Y-124414485D01*
X139141995Y-124491727D01*
X139294880Y-124720535D01*
X139489465Y-124915120D01*
X139718273Y-125068005D01*
X139972510Y-125173314D01*
X140242408Y-125227000D01*
X140517592Y-125227000D01*
X140787490Y-125173314D01*
X141041727Y-125068005D01*
X141270535Y-124915120D01*
X141465120Y-124720535D01*
X141618005Y-124491727D01*
X141723314Y-124237490D01*
X141777000Y-123967592D01*
X141777000Y-123692408D01*
X141723314Y-123422510D01*
X141618005Y-123168273D01*
X141465120Y-122939465D01*
X141270535Y-122744880D01*
X141041727Y-122591995D01*
X140787490Y-122486686D01*
X140517592Y-122433000D01*
X140242408Y-122433000D01*
X139972510Y-122486686D01*
X139718273Y-122591995D01*
X139489465Y-122744880D01*
X139294880Y-122939465D01*
X139141995Y-123168273D01*
X139110000Y-123245515D01*
X139078005Y-123168273D01*
X138925120Y-122939465D01*
X138730535Y-122744880D01*
X138501727Y-122591995D01*
X138247490Y-122486686D01*
X137977592Y-122433000D01*
X137702408Y-122433000D01*
X137432510Y-122486686D01*
X137178273Y-122591995D01*
X136949465Y-122744880D01*
X136754880Y-122939465D01*
X136601995Y-123168273D01*
X136570000Y-123245515D01*
X136538005Y-123168273D01*
X136385120Y-122939465D01*
X136190535Y-122744880D01*
X135961727Y-122591995D01*
X135707490Y-122486686D01*
X135437592Y-122433000D01*
X135162408Y-122433000D01*
X134892510Y-122486686D01*
X134638273Y-122591995D01*
X134409465Y-122744880D01*
X134214880Y-122939465D01*
X134061995Y-123168273D01*
X134030000Y-123245515D01*
X133998005Y-123168273D01*
X133845120Y-122939465D01*
X133650535Y-122744880D01*
X133421727Y-122591995D01*
X133167490Y-122486686D01*
X132897592Y-122433000D01*
X132622408Y-122433000D01*
X132352510Y-122486686D01*
X132098273Y-122591995D01*
X131869465Y-122744880D01*
X131674880Y-122939465D01*
X131521995Y-123168273D01*
X131490000Y-123245515D01*
X131458005Y-123168273D01*
X131305120Y-122939465D01*
X131110535Y-122744880D01*
X130881727Y-122591995D01*
X130627490Y-122486686D01*
X130357592Y-122433000D01*
X130082408Y-122433000D01*
X129812510Y-122486686D01*
X129558273Y-122591995D01*
X129329465Y-122744880D01*
X129134880Y-122939465D01*
X128981995Y-123168273D01*
X128950000Y-123245515D01*
X128918005Y-123168273D01*
X128765120Y-122939465D01*
X128570535Y-122744880D01*
X128341727Y-122591995D01*
X128087490Y-122486686D01*
X127817592Y-122433000D01*
X127542408Y-122433000D01*
X127272510Y-122486686D01*
X127018273Y-122591995D01*
X126789465Y-122744880D01*
X126594880Y-122939465D01*
X126441995Y-123168273D01*
X126410000Y-123245515D01*
X126378005Y-123168273D01*
X126225120Y-122939465D01*
X126030535Y-122744880D01*
X125801727Y-122591995D01*
X125547490Y-122486686D01*
X125277592Y-122433000D01*
X125002408Y-122433000D01*
X124732510Y-122486686D01*
X124478273Y-122591995D01*
X124249465Y-122744880D01*
X124054880Y-122939465D01*
X123901995Y-123168273D01*
X123870000Y-123245515D01*
X123838005Y-123168273D01*
X123685120Y-122939465D01*
X123490535Y-122744880D01*
X123261727Y-122591995D01*
X123007490Y-122486686D01*
X122737592Y-122433000D01*
X122462408Y-122433000D01*
X122192510Y-122486686D01*
X121938273Y-122591995D01*
X121709465Y-122744880D01*
X121514880Y-122939465D01*
X121361995Y-123168273D01*
X121256686Y-123422510D01*
X121203000Y-123692408D01*
X117468359Y-123692408D01*
X117736038Y-123424729D01*
X117980631Y-123058669D01*
X118149110Y-122651925D01*
X118235000Y-122220128D01*
X118235000Y-121779872D01*
X172765000Y-121779872D01*
X172765000Y-122220128D01*
X172850890Y-122651925D01*
X173019369Y-123058669D01*
X173263962Y-123424729D01*
X173575271Y-123736038D01*
X173941331Y-123980631D01*
X174348075Y-124149110D01*
X174779872Y-124235000D01*
X175220128Y-124235000D01*
X175651925Y-124149110D01*
X176058669Y-123980631D01*
X176424729Y-123736038D01*
X176736038Y-123424729D01*
X176980631Y-123058669D01*
X177149110Y-122651925D01*
X177235000Y-122220128D01*
X177235000Y-121779872D01*
X177149110Y-121348075D01*
X176980631Y-120941331D01*
X176736038Y-120575271D01*
X176424729Y-120263962D01*
X176058669Y-120019369D01*
X175651925Y-119850890D01*
X175220128Y-119765000D01*
X174779872Y-119765000D01*
X174348075Y-119850890D01*
X173941331Y-120019369D01*
X173575271Y-120263962D01*
X173263962Y-120575271D01*
X173019369Y-120941331D01*
X172850890Y-121348075D01*
X172765000Y-121779872D01*
X118235000Y-121779872D01*
X118149110Y-121348075D01*
X117980631Y-120941331D01*
X117736038Y-120575271D01*
X117424729Y-120263962D01*
X117058669Y-120019369D01*
X116651925Y-119850890D01*
X116220128Y-119765000D01*
X115779872Y-119765000D01*
X115348075Y-119850890D01*
X114941331Y-120019369D01*
X114575271Y-120263962D01*
X114263962Y-120575271D01*
X114019369Y-120941331D01*
X113850890Y-121348075D01*
X113765000Y-121779872D01*
X112685000Y-121779872D01*
X112685000Y-88132408D01*
X121203000Y-88132408D01*
X121203000Y-88407592D01*
X121256686Y-88677490D01*
X121361995Y-88931727D01*
X121514880Y-89160535D01*
X121709465Y-89355120D01*
X121938273Y-89508005D01*
X122192510Y-89613314D01*
X122462408Y-89667000D01*
X122737592Y-89667000D01*
X123007490Y-89613314D01*
X123261727Y-89508005D01*
X123490535Y-89355120D01*
X123685120Y-89160535D01*
X123838005Y-88931727D01*
X123870000Y-88854485D01*
X123901995Y-88931727D01*
X124054880Y-89160535D01*
X124249465Y-89355120D01*
X124478273Y-89508005D01*
X124732510Y-89613314D01*
X125002408Y-89667000D01*
X125277592Y-89667000D01*
X125547490Y-89613314D01*
X125801727Y-89508005D01*
X126030535Y-89355120D01*
X126225120Y-89160535D01*
X126378005Y-88931727D01*
X126410000Y-88854485D01*
X126441995Y-88931727D01*
X126594880Y-89160535D01*
X126789465Y-89355120D01*
X127018273Y-89508005D01*
X127272510Y-89613314D01*
X127542408Y-89667000D01*
X127817592Y-89667000D01*
X128087490Y-89613314D01*
X128341727Y-89508005D01*
X128570535Y-89355120D01*
X128765120Y-89160535D01*
X128918005Y-88931727D01*
X128950000Y-88854485D01*
X128981995Y-88931727D01*
X129134880Y-89160535D01*
X129329465Y-89355120D01*
X129558273Y-89508005D01*
X129812510Y-89613314D01*
X130082408Y-89667000D01*
X130357592Y-89667000D01*
X130627490Y-89613314D01*
X130881727Y-89508005D01*
X131110535Y-89355120D01*
X131305120Y-89160535D01*
X131458005Y-88931727D01*
X131490000Y-88854485D01*
X131521995Y-88931727D01*
X131674880Y-89160535D01*
X131869465Y-89355120D01*
X132098273Y-89508005D01*
X132352510Y-89613314D01*
X132622408Y-89667000D01*
X132897592Y-89667000D01*
X133167490Y-89613314D01*
X133421727Y-89508005D01*
X133650535Y-89355120D01*
X133845120Y-89160535D01*
X133998005Y-88931727D01*
X134030000Y-88854485D01*
X134061995Y-88931727D01*
X134214880Y-89160535D01*
X134409465Y-89355120D01*
X134638273Y-89508005D01*
X134892510Y-89613314D01*
X135162408Y-89667000D01*
X135437592Y-89667000D01*
X135707490Y-89613314D01*
X135961727Y-89508005D01*
X136190535Y-89355120D01*
X136385120Y-89160535D01*
X136538005Y-88931727D01*
X136570000Y-88854485D01*
X136601995Y-88931727D01*
X136754880Y-89160535D01*
X136949465Y-89355120D01*
X137178273Y-89508005D01*
X137432510Y-89613314D01*
X137702408Y-89667000D01*
X137977592Y-89667000D01*
X138247490Y-89613314D01*
X138501727Y-89508005D01*
X138730535Y-89355120D01*
X138850090Y-89235565D01*
X139594040Y-89235565D01*
X139661020Y-89475656D01*
X139910048Y-89592756D01*
X140177135Y-89659023D01*
X140452017Y-89671910D01*
X140724133Y-89630922D01*
X140983023Y-89537636D01*
X141098980Y-89475656D01*
X141165960Y-89235565D01*
X140380000Y-88449605D01*
X139594040Y-89235565D01*
X138850090Y-89235565D01*
X138925120Y-89160535D01*
X139078005Y-88931727D01*
X139107692Y-88860057D01*
X139112364Y-88873023D01*
X139174344Y-88988980D01*
X139414435Y-89055960D01*
X140200395Y-88270000D01*
X140559605Y-88270000D01*
X141345565Y-89055960D01*
X141585656Y-88988980D01*
X141649485Y-88853240D01*
X141681995Y-88931727D01*
X141834880Y-89160535D01*
X142029465Y-89355120D01*
X142258273Y-89508005D01*
X142512510Y-89613314D01*
X142782408Y-89667000D01*
X143057592Y-89667000D01*
X143327490Y-89613314D01*
X143581727Y-89508005D01*
X143810535Y-89355120D01*
X144005120Y-89160535D01*
X144158005Y-88931727D01*
X144190000Y-88854485D01*
X144221995Y-88931727D01*
X144374880Y-89160535D01*
X144569465Y-89355120D01*
X144798273Y-89508005D01*
X145052510Y-89613314D01*
X145322408Y-89667000D01*
X145597592Y-89667000D01*
X145867490Y-89613314D01*
X146121727Y-89508005D01*
X146350535Y-89355120D01*
X146545120Y-89160535D01*
X146698005Y-88931727D01*
X146803314Y-88677490D01*
X146857000Y-88407592D01*
X146857000Y-88132408D01*
X146803314Y-87862510D01*
X146698005Y-87608273D01*
X146545120Y-87379465D01*
X146350535Y-87184880D01*
X146121727Y-87031995D01*
X145867490Y-86926686D01*
X145597592Y-86873000D01*
X145322408Y-86873000D01*
X145052510Y-86926686D01*
X144798273Y-87031995D01*
X144569465Y-87184880D01*
X144374880Y-87379465D01*
X144221995Y-87608273D01*
X144190000Y-87685515D01*
X144158005Y-87608273D01*
X144005120Y-87379465D01*
X143810535Y-87184880D01*
X143581727Y-87031995D01*
X143327490Y-86926686D01*
X143057592Y-86873000D01*
X142782408Y-86873000D01*
X142512510Y-86926686D01*
X142258273Y-87031995D01*
X142029465Y-87184880D01*
X141834880Y-87379465D01*
X141681995Y-87608273D01*
X141652308Y-87679943D01*
X141647636Y-87666977D01*
X141585656Y-87551020D01*
X141345565Y-87484040D01*
X140559605Y-88270000D01*
X140200395Y-88270000D01*
X139414435Y-87484040D01*
X139174344Y-87551020D01*
X139110515Y-87686760D01*
X139078005Y-87608273D01*
X138925120Y-87379465D01*
X138850090Y-87304435D01*
X139594040Y-87304435D01*
X140380000Y-88090395D01*
X141165960Y-87304435D01*
X141098980Y-87064344D01*
X140849952Y-86947244D01*
X140582865Y-86880977D01*
X140307983Y-86868090D01*
X140035867Y-86909078D01*
X139776977Y-87002364D01*
X139661020Y-87064344D01*
X139594040Y-87304435D01*
X138850090Y-87304435D01*
X138730535Y-87184880D01*
X138501727Y-87031995D01*
X138247490Y-86926686D01*
X137977592Y-86873000D01*
X137702408Y-86873000D01*
X137432510Y-86926686D01*
X137178273Y-87031995D01*
X136949465Y-87184880D01*
X136754880Y-87379465D01*
X136601995Y-87608273D01*
X136570000Y-87685515D01*
X136538005Y-87608273D01*
X136385120Y-87379465D01*
X136190535Y-87184880D01*
X135961727Y-87031995D01*
X135707490Y-86926686D01*
X135437592Y-86873000D01*
X135162408Y-86873000D01*
X134892510Y-86926686D01*
X134638273Y-87031995D01*
X134409465Y-87184880D01*
X134214880Y-87379465D01*
X134061995Y-87608273D01*
X134030000Y-87685515D01*
X133998005Y-87608273D01*
X133845120Y-87379465D01*
X133650535Y-87184880D01*
X133421727Y-87031995D01*
X133167490Y-86926686D01*
X132897592Y-86873000D01*
X132622408Y-86873000D01*
X132352510Y-86926686D01*
X132098273Y-87031995D01*
X131869465Y-87184880D01*
X131674880Y-87379465D01*
X131521995Y-87608273D01*
X131490000Y-87685515D01*
X131458005Y-87608273D01*
X131305120Y-87379465D01*
X131110535Y-87184880D01*
X130881727Y-87031995D01*
X130627490Y-86926686D01*
X130357592Y-86873000D01*
X130082408Y-86873000D01*
X129812510Y-86926686D01*
X129558273Y-87031995D01*
X129329465Y-87184880D01*
X129134880Y-87379465D01*
X128981995Y-87608273D01*
X128950000Y-87685515D01*
X128918005Y-87608273D01*
X128765120Y-87379465D01*
X128570535Y-87184880D01*
X128341727Y-87031995D01*
X128087490Y-86926686D01*
X127817592Y-86873000D01*
X127542408Y-86873000D01*
X127272510Y-86926686D01*
X127018273Y-87031995D01*
X126789465Y-87184880D01*
X126594880Y-87379465D01*
X126441995Y-87608273D01*
X126410000Y-87685515D01*
X126378005Y-87608273D01*
X126225120Y-87379465D01*
X126030535Y-87184880D01*
X125801727Y-87031995D01*
X125547490Y-86926686D01*
X125277592Y-86873000D01*
X125002408Y-86873000D01*
X124732510Y-86926686D01*
X124478273Y-87031995D01*
X124249465Y-87184880D01*
X124054880Y-87379465D01*
X123901995Y-87608273D01*
X123870000Y-87685515D01*
X123838005Y-87608273D01*
X123685120Y-87379465D01*
X123490535Y-87184880D01*
X123261727Y-87031995D01*
X123007490Y-86926686D01*
X122737592Y-86873000D01*
X122462408Y-86873000D01*
X122192510Y-86926686D01*
X121938273Y-87031995D01*
X121709465Y-87184880D01*
X121514880Y-87379465D01*
X121361995Y-87608273D01*
X121256686Y-87862510D01*
X121203000Y-88132408D01*
X112685000Y-88132408D01*
X112685000Y-83131891D01*
X119923519Y-83131891D01*
X120020843Y-83406252D01*
X120169822Y-83656355D01*
X120364731Y-83872588D01*
X120598080Y-84046641D01*
X120860901Y-84171825D01*
X121008110Y-84216476D01*
X121238000Y-84095155D01*
X121238000Y-82902000D01*
X120044186Y-82902000D01*
X119923519Y-83131891D01*
X112685000Y-83131891D01*
X112685000Y-80235000D01*
X119872815Y-80235000D01*
X119901487Y-80526111D01*
X119986401Y-80806034D01*
X120124294Y-81064014D01*
X120309866Y-81290134D01*
X120535986Y-81475706D01*
X120593756Y-81506584D01*
X120364731Y-81677412D01*
X120169822Y-81893645D01*
X120020843Y-82143748D01*
X119923519Y-82418109D01*
X120044186Y-82648000D01*
X121238000Y-82648000D01*
X121238000Y-82628000D01*
X121492000Y-82628000D01*
X121492000Y-82648000D01*
X121512000Y-82648000D01*
X121512000Y-82902000D01*
X121492000Y-82902000D01*
X121492000Y-84095155D01*
X121721890Y-84216476D01*
X121869099Y-84171825D01*
X122131920Y-84046641D01*
X122365269Y-83872588D01*
X122560178Y-83656355D01*
X122629799Y-83539477D01*
X122664294Y-83604014D01*
X122849866Y-83830134D01*
X123075986Y-84015706D01*
X123333966Y-84153599D01*
X123613889Y-84238513D01*
X123832050Y-84260000D01*
X123977950Y-84260000D01*
X124196111Y-84238513D01*
X124476034Y-84153599D01*
X124734014Y-84015706D01*
X124960134Y-83830134D01*
X125145706Y-83604014D01*
X125175000Y-83549209D01*
X125204294Y-83604014D01*
X125389866Y-83830134D01*
X125615986Y-84015706D01*
X125873966Y-84153599D01*
X126153889Y-84238513D01*
X126372050Y-84260000D01*
X126517950Y-84260000D01*
X126736111Y-84238513D01*
X127016034Y-84153599D01*
X127274014Y-84015706D01*
X127500134Y-83830134D01*
X127685706Y-83604014D01*
X127715000Y-83549209D01*
X127744294Y-83604014D01*
X127929866Y-83830134D01*
X128155986Y-84015706D01*
X128413966Y-84153599D01*
X128693889Y-84238513D01*
X128912050Y-84260000D01*
X129057950Y-84260000D01*
X129276111Y-84238513D01*
X129556034Y-84153599D01*
X129814014Y-84015706D01*
X130040134Y-83830134D01*
X130225706Y-83604014D01*
X130255000Y-83549209D01*
X130284294Y-83604014D01*
X130469866Y-83830134D01*
X130695986Y-84015706D01*
X130953966Y-84153599D01*
X131233889Y-84238513D01*
X131452050Y-84260000D01*
X131597950Y-84260000D01*
X131816111Y-84238513D01*
X132096034Y-84153599D01*
X132354014Y-84015706D01*
X132580134Y-83830134D01*
X132765706Y-83604014D01*
X132795000Y-83549209D01*
X132824294Y-83604014D01*
X133009866Y-83830134D01*
X133235986Y-84015706D01*
X133493966Y-84153599D01*
X133773889Y-84238513D01*
X133992050Y-84260000D01*
X134137950Y-84260000D01*
X134356111Y-84238513D01*
X134636034Y-84153599D01*
X134894014Y-84015706D01*
X135120134Y-83830134D01*
X135305706Y-83604014D01*
X135335000Y-83549209D01*
X135364294Y-83604014D01*
X135549866Y-83830134D01*
X135775986Y-84015706D01*
X136033966Y-84153599D01*
X136313889Y-84238513D01*
X136532050Y-84260000D01*
X136677950Y-84260000D01*
X136896111Y-84238513D01*
X137176034Y-84153599D01*
X137434014Y-84015706D01*
X137660134Y-83830134D01*
X137845706Y-83604014D01*
X137880201Y-83539477D01*
X137949822Y-83656355D01*
X138144731Y-83872588D01*
X138378080Y-84046641D01*
X138640901Y-84171825D01*
X138788110Y-84216476D01*
X139018000Y-84095155D01*
X139018000Y-82902000D01*
X138998000Y-82902000D01*
X138998000Y-82648000D01*
X139018000Y-82648000D01*
X139018000Y-82628000D01*
X139272000Y-82628000D01*
X139272000Y-82648000D01*
X139292000Y-82648000D01*
X139292000Y-82902000D01*
X139272000Y-82902000D01*
X139272000Y-84095155D01*
X139501890Y-84216476D01*
X139649099Y-84171825D01*
X139911920Y-84046641D01*
X140145269Y-83872588D01*
X140340178Y-83656355D01*
X140409799Y-83539477D01*
X140444294Y-83604014D01*
X140629866Y-83830134D01*
X140855986Y-84015706D01*
X141113966Y-84153599D01*
X141393889Y-84238513D01*
X141612050Y-84260000D01*
X141757950Y-84260000D01*
X141976111Y-84238513D01*
X142256034Y-84153599D01*
X142514014Y-84015706D01*
X142740134Y-83830134D01*
X142925706Y-83604014D01*
X142955000Y-83549209D01*
X142984294Y-83604014D01*
X143169866Y-83830134D01*
X143395986Y-84015706D01*
X143653966Y-84153599D01*
X143933889Y-84238513D01*
X144152050Y-84260000D01*
X144297950Y-84260000D01*
X144516111Y-84238513D01*
X144796034Y-84153599D01*
X145054014Y-84015706D01*
X145280134Y-83830134D01*
X145465706Y-83604014D01*
X145495000Y-83549209D01*
X145524294Y-83604014D01*
X145709866Y-83830134D01*
X145935986Y-84015706D01*
X146193966Y-84153599D01*
X146473889Y-84238513D01*
X146692050Y-84260000D01*
X146837950Y-84260000D01*
X147056111Y-84238513D01*
X147336034Y-84153599D01*
X147594014Y-84015706D01*
X147820134Y-83830134D01*
X148005706Y-83604014D01*
X148035000Y-83549209D01*
X148064294Y-83604014D01*
X148249866Y-83830134D01*
X148475986Y-84015706D01*
X148545000Y-84052595D01*
X148545001Y-86631268D01*
X148541324Y-86668600D01*
X148555998Y-86817585D01*
X148599454Y-86960846D01*
X148670026Y-87092876D01*
X148741201Y-87179602D01*
X148765000Y-87208601D01*
X148793998Y-87232399D01*
X150519223Y-88957625D01*
X150469600Y-89207099D01*
X150469600Y-89507301D01*
X150528166Y-89801734D01*
X150643049Y-90079085D01*
X150809832Y-90328693D01*
X151022107Y-90540968D01*
X151271715Y-90707751D01*
X151549066Y-90822634D01*
X151843499Y-90881200D01*
X152143701Y-90881200D01*
X152438134Y-90822634D01*
X152715485Y-90707751D01*
X152965093Y-90540968D01*
X153177368Y-90328693D01*
X153263600Y-90199638D01*
X153349832Y-90328693D01*
X153562107Y-90540968D01*
X153811715Y-90707751D01*
X154089066Y-90822634D01*
X154383499Y-90881200D01*
X154683701Y-90881200D01*
X154978134Y-90822634D01*
X155255485Y-90707751D01*
X155505093Y-90540968D01*
X155632630Y-90413431D01*
X156196974Y-90413431D01*
X156279327Y-90666489D01*
X156550018Y-90796286D01*
X156840830Y-90870780D01*
X157140588Y-90887108D01*
X157437771Y-90844643D01*
X157720959Y-90745016D01*
X157867873Y-90666489D01*
X157950226Y-90413431D01*
X157073600Y-89536805D01*
X156196974Y-90413431D01*
X155632630Y-90413431D01*
X155717368Y-90328693D01*
X155823017Y-90170578D01*
X156017369Y-90233826D01*
X156893995Y-89357200D01*
X157253205Y-89357200D01*
X158129831Y-90233826D01*
X158324183Y-90170578D01*
X158429832Y-90328693D01*
X158642107Y-90540968D01*
X158891715Y-90707751D01*
X159169066Y-90822634D01*
X159463499Y-90881200D01*
X159763701Y-90881200D01*
X160058134Y-90822634D01*
X160335485Y-90707751D01*
X160585093Y-90540968D01*
X160797368Y-90328693D01*
X160883600Y-90199638D01*
X160969832Y-90328693D01*
X161182107Y-90540968D01*
X161431715Y-90707751D01*
X161709066Y-90822634D01*
X162003499Y-90881200D01*
X162303701Y-90881200D01*
X162598134Y-90822634D01*
X162875485Y-90707751D01*
X163125093Y-90540968D01*
X163337368Y-90328693D01*
X163423600Y-90199638D01*
X163509832Y-90328693D01*
X163722107Y-90540968D01*
X163971715Y-90707751D01*
X164249066Y-90822634D01*
X164543499Y-90881200D01*
X164843701Y-90881200D01*
X165138134Y-90822634D01*
X165415485Y-90707751D01*
X165665093Y-90540968D01*
X165877368Y-90328693D01*
X165963600Y-90199638D01*
X166049832Y-90328693D01*
X166262107Y-90540968D01*
X166511715Y-90707751D01*
X166789066Y-90822634D01*
X167083499Y-90881200D01*
X167383701Y-90881200D01*
X167678134Y-90822634D01*
X167955485Y-90707751D01*
X168205093Y-90540968D01*
X168417368Y-90328693D01*
X168503600Y-90199638D01*
X168589832Y-90328693D01*
X168802107Y-90540968D01*
X169051715Y-90707751D01*
X169329066Y-90822634D01*
X169623499Y-90881200D01*
X169923701Y-90881200D01*
X170218134Y-90822634D01*
X170495485Y-90707751D01*
X170745093Y-90540968D01*
X170957368Y-90328693D01*
X171124151Y-90079085D01*
X171239034Y-89801734D01*
X171297600Y-89507301D01*
X171297600Y-89207099D01*
X171239034Y-88912666D01*
X171124151Y-88635315D01*
X170957368Y-88385707D01*
X170745093Y-88173432D01*
X170495485Y-88006649D01*
X170218134Y-87891766D01*
X169923701Y-87833200D01*
X169623499Y-87833200D01*
X169329066Y-87891766D01*
X169051715Y-88006649D01*
X168802107Y-88173432D01*
X168589832Y-88385707D01*
X168503600Y-88514762D01*
X168417368Y-88385707D01*
X168205093Y-88173432D01*
X167955485Y-88006649D01*
X167678134Y-87891766D01*
X167383701Y-87833200D01*
X167083499Y-87833200D01*
X166789066Y-87891766D01*
X166511715Y-88006649D01*
X166262107Y-88173432D01*
X166049832Y-88385707D01*
X165963600Y-88514762D01*
X165877368Y-88385707D01*
X165665093Y-88173432D01*
X165415485Y-88006649D01*
X165138134Y-87891766D01*
X164843701Y-87833200D01*
X164543499Y-87833200D01*
X164249066Y-87891766D01*
X163971715Y-88006649D01*
X163722107Y-88173432D01*
X163509832Y-88385707D01*
X163423600Y-88514762D01*
X163337368Y-88385707D01*
X163125093Y-88173432D01*
X162875485Y-88006649D01*
X162598134Y-87891766D01*
X162303701Y-87833200D01*
X162003499Y-87833200D01*
X161709066Y-87891766D01*
X161431715Y-88006649D01*
X161182107Y-88173432D01*
X160969832Y-88385707D01*
X160883600Y-88514762D01*
X160797368Y-88385707D01*
X160585093Y-88173432D01*
X160335485Y-88006649D01*
X160058134Y-87891766D01*
X159763701Y-87833200D01*
X159463499Y-87833200D01*
X159169066Y-87891766D01*
X158891715Y-88006649D01*
X158642107Y-88173432D01*
X158429832Y-88385707D01*
X158324183Y-88543822D01*
X158129831Y-88480574D01*
X157253205Y-89357200D01*
X156893995Y-89357200D01*
X156017369Y-88480574D01*
X155823017Y-88543822D01*
X155717368Y-88385707D01*
X155632630Y-88300969D01*
X156196974Y-88300969D01*
X157073600Y-89177595D01*
X157950226Y-88300969D01*
X157867873Y-88047911D01*
X157597182Y-87918114D01*
X157306370Y-87843620D01*
X157006612Y-87827292D01*
X156709429Y-87869757D01*
X156426241Y-87969384D01*
X156279327Y-88047911D01*
X156196974Y-88300969D01*
X155632630Y-88300969D01*
X155505093Y-88173432D01*
X155255485Y-88006649D01*
X154978134Y-87891766D01*
X154683701Y-87833200D01*
X154383499Y-87833200D01*
X154089066Y-87891766D01*
X153811715Y-88006649D01*
X153562107Y-88173432D01*
X153349832Y-88385707D01*
X153263600Y-88514762D01*
X153177368Y-88385707D01*
X152965093Y-88173432D01*
X152715485Y-88006649D01*
X152438134Y-87891766D01*
X152143701Y-87833200D01*
X151843499Y-87833200D01*
X151594025Y-87882823D01*
X150065000Y-86353799D01*
X150065000Y-84052595D01*
X150134014Y-84015706D01*
X150360134Y-83830134D01*
X150545706Y-83604014D01*
X150575000Y-83549209D01*
X150604294Y-83604014D01*
X150789866Y-83830134D01*
X151015986Y-84015706D01*
X151273966Y-84153599D01*
X151553889Y-84238513D01*
X151772050Y-84260000D01*
X151917950Y-84260000D01*
X152136111Y-84238513D01*
X152416034Y-84153599D01*
X152674014Y-84015706D01*
X152900134Y-83830134D01*
X153085706Y-83604014D01*
X153115000Y-83549209D01*
X153144294Y-83604014D01*
X153329866Y-83830134D01*
X153555986Y-84015706D01*
X153813966Y-84153599D01*
X154093889Y-84238513D01*
X154312050Y-84260000D01*
X154457950Y-84260000D01*
X154676111Y-84238513D01*
X154956034Y-84153599D01*
X155214014Y-84015706D01*
X155440134Y-83830134D01*
X155625706Y-83604014D01*
X155655000Y-83549209D01*
X155684294Y-83604014D01*
X155869866Y-83830134D01*
X156095986Y-84015706D01*
X156353966Y-84153599D01*
X156633889Y-84238513D01*
X156852050Y-84260000D01*
X156997950Y-84260000D01*
X157216111Y-84238513D01*
X157496034Y-84153599D01*
X157754014Y-84015706D01*
X157980134Y-83830134D01*
X158165706Y-83604014D01*
X158200201Y-83539477D01*
X158269822Y-83656355D01*
X158464731Y-83872588D01*
X158698080Y-84046641D01*
X158960901Y-84171825D01*
X159108110Y-84216476D01*
X159338000Y-84095155D01*
X159338000Y-82902000D01*
X159318000Y-82902000D01*
X159318000Y-82648000D01*
X159338000Y-82648000D01*
X159338000Y-82628000D01*
X159592000Y-82628000D01*
X159592000Y-82648000D01*
X159612000Y-82648000D01*
X159612000Y-82902000D01*
X159592000Y-82902000D01*
X159592000Y-84095155D01*
X159821890Y-84216476D01*
X159969099Y-84171825D01*
X160231920Y-84046641D01*
X160465269Y-83872588D01*
X160660178Y-83656355D01*
X160729799Y-83539477D01*
X160764294Y-83604014D01*
X160949866Y-83830134D01*
X161175986Y-84015706D01*
X161433966Y-84153599D01*
X161713889Y-84238513D01*
X161932050Y-84260000D01*
X162077950Y-84260000D01*
X162296111Y-84238513D01*
X162576034Y-84153599D01*
X162834014Y-84015706D01*
X163060134Y-83830134D01*
X163245706Y-83604014D01*
X163275000Y-83549209D01*
X163304294Y-83604014D01*
X163489866Y-83830134D01*
X163715986Y-84015706D01*
X163973966Y-84153599D01*
X164253889Y-84238513D01*
X164472050Y-84260000D01*
X164617950Y-84260000D01*
X164836111Y-84238513D01*
X165116034Y-84153599D01*
X165374014Y-84015706D01*
X165600134Y-83830134D01*
X165785706Y-83604014D01*
X165815000Y-83549209D01*
X165844294Y-83604014D01*
X166029866Y-83830134D01*
X166255986Y-84015706D01*
X166513966Y-84153599D01*
X166793889Y-84238513D01*
X167012050Y-84260000D01*
X167157950Y-84260000D01*
X167376111Y-84238513D01*
X167656034Y-84153599D01*
X167914014Y-84015706D01*
X168140134Y-83830134D01*
X168164607Y-83800313D01*
X168185498Y-83869180D01*
X168244463Y-83979494D01*
X168323815Y-84076185D01*
X168420506Y-84155537D01*
X168530820Y-84214502D01*
X168650518Y-84250812D01*
X168775000Y-84263072D01*
X170475000Y-84263072D01*
X170599482Y-84250812D01*
X170719180Y-84214502D01*
X170829494Y-84155537D01*
X170926185Y-84076185D01*
X171005537Y-83979494D01*
X171064502Y-83869180D01*
X171100812Y-83749482D01*
X171113072Y-83625000D01*
X171113072Y-81925000D01*
X171100812Y-81800518D01*
X171064502Y-81680820D01*
X171005537Y-81570506D01*
X170926185Y-81473815D01*
X170829494Y-81394463D01*
X170719180Y-81335498D01*
X170650313Y-81314607D01*
X170680134Y-81290134D01*
X170865706Y-81064014D01*
X171003599Y-80806034D01*
X171088513Y-80526111D01*
X171117185Y-80235000D01*
X171088513Y-79943889D01*
X171003599Y-79663966D01*
X170865706Y-79405986D01*
X170680134Y-79179866D01*
X170454014Y-78994294D01*
X170196034Y-78856401D01*
X169916111Y-78771487D01*
X169697950Y-78750000D01*
X169552050Y-78750000D01*
X169333889Y-78771487D01*
X169053966Y-78856401D01*
X168795986Y-78994294D01*
X168569866Y-79179866D01*
X168384294Y-79405986D01*
X168355000Y-79460791D01*
X168325706Y-79405986D01*
X168140134Y-79179866D01*
X167914014Y-78994294D01*
X167656034Y-78856401D01*
X167376111Y-78771487D01*
X167157950Y-78750000D01*
X167012050Y-78750000D01*
X166793889Y-78771487D01*
X166513966Y-78856401D01*
X166255986Y-78994294D01*
X166029866Y-79179866D01*
X165844294Y-79405986D01*
X165809799Y-79470523D01*
X165740178Y-79353645D01*
X165545269Y-79137412D01*
X165311920Y-78963359D01*
X165049099Y-78838175D01*
X164901890Y-78793524D01*
X164672000Y-78914845D01*
X164672000Y-80108000D01*
X164692000Y-80108000D01*
X164692000Y-80362000D01*
X164672000Y-80362000D01*
X164672000Y-80382000D01*
X164418000Y-80382000D01*
X164418000Y-80362000D01*
X164398000Y-80362000D01*
X164398000Y-80108000D01*
X164418000Y-80108000D01*
X164418000Y-78914845D01*
X164188110Y-78793524D01*
X164040901Y-78838175D01*
X163778080Y-78963359D01*
X163544731Y-79137412D01*
X163349822Y-79353645D01*
X163280201Y-79470523D01*
X163245706Y-79405986D01*
X163060134Y-79179866D01*
X162834014Y-78994294D01*
X162576034Y-78856401D01*
X162296111Y-78771487D01*
X162077950Y-78750000D01*
X161932050Y-78750000D01*
X161713889Y-78771487D01*
X161433966Y-78856401D01*
X161175986Y-78994294D01*
X160949866Y-79179866D01*
X160764294Y-79405986D01*
X160735000Y-79460791D01*
X160705706Y-79405986D01*
X160520134Y-79179866D01*
X160294014Y-78994294D01*
X160036034Y-78856401D01*
X159756111Y-78771487D01*
X159537950Y-78750000D01*
X159484802Y-78750000D01*
X160474802Y-77760000D01*
X162697678Y-77760000D01*
X162735000Y-77763676D01*
X162772322Y-77760000D01*
X162772333Y-77760000D01*
X162883986Y-77749003D01*
X163027247Y-77705546D01*
X163159276Y-77634974D01*
X163275001Y-77540001D01*
X163298804Y-77510998D01*
X164328627Y-76481175D01*
X164539902Y-76523200D01*
X164830098Y-76523200D01*
X165114717Y-76466586D01*
X165382822Y-76355533D01*
X165624110Y-76194309D01*
X165829309Y-75989110D01*
X165990533Y-75747822D01*
X166101586Y-75479717D01*
X166158200Y-75195098D01*
X166158200Y-74904902D01*
X166101586Y-74620283D01*
X165990533Y-74352178D01*
X165829309Y-74110890D01*
X165624110Y-73905691D01*
X165382822Y-73744467D01*
X165114717Y-73633414D01*
X164830098Y-73576800D01*
X164539902Y-73576800D01*
X164255283Y-73633414D01*
X163987178Y-73744467D01*
X163745890Y-73905691D01*
X163540691Y-74110890D01*
X163415000Y-74298999D01*
X163289309Y-74110890D01*
X163084110Y-73905691D01*
X162842822Y-73744467D01*
X162574717Y-73633414D01*
X162290098Y-73576800D01*
X161999902Y-73576800D01*
X161715283Y-73633414D01*
X161447178Y-73744467D01*
X161205890Y-73905691D01*
X161000691Y-74110890D01*
X160875000Y-74298999D01*
X160749309Y-74110890D01*
X160544110Y-73905691D01*
X160302822Y-73744467D01*
X160034717Y-73633414D01*
X159750098Y-73576800D01*
X159459902Y-73576800D01*
X159175283Y-73633414D01*
X158907178Y-73744467D01*
X158665890Y-73905691D01*
X158460691Y-74110890D01*
X158337711Y-74294943D01*
X158332844Y-74285838D01*
X158084975Y-74209630D01*
X157244605Y-75050000D01*
X158084975Y-75890370D01*
X158332844Y-75814162D01*
X158337399Y-75804592D01*
X158460691Y-75989110D01*
X158665890Y-76194309D01*
X158907178Y-76355533D01*
X159175283Y-76466586D01*
X159459902Y-76523200D01*
X159561998Y-76523200D01*
X157290996Y-78794203D01*
X157216111Y-78771487D01*
X156997950Y-78750000D01*
X156852050Y-78750000D01*
X156633889Y-78771487D01*
X156353966Y-78856401D01*
X156095986Y-78994294D01*
X155869866Y-79179866D01*
X155684294Y-79405986D01*
X155649799Y-79470523D01*
X155580178Y-79353645D01*
X155385269Y-79137412D01*
X155151920Y-78963359D01*
X154889099Y-78838175D01*
X154741890Y-78793524D01*
X154512000Y-78914845D01*
X154512000Y-80108000D01*
X154532000Y-80108000D01*
X154532000Y-80362000D01*
X154512000Y-80362000D01*
X154512000Y-80382000D01*
X154258000Y-80382000D01*
X154258000Y-80362000D01*
X154238000Y-80362000D01*
X154238000Y-80108000D01*
X154258000Y-80108000D01*
X154258000Y-78914845D01*
X154028110Y-78793524D01*
X153880901Y-78838175D01*
X153618080Y-78963359D01*
X153384731Y-79137412D01*
X153189822Y-79353645D01*
X153120201Y-79470523D01*
X153085706Y-79405986D01*
X152900134Y-79179866D01*
X152674014Y-78994294D01*
X152416034Y-78856401D01*
X152136111Y-78771487D01*
X151917950Y-78750000D01*
X151772050Y-78750000D01*
X151553889Y-78771487D01*
X151273966Y-78856401D01*
X151015986Y-78994294D01*
X150789866Y-79179866D01*
X150604294Y-79405986D01*
X150575000Y-79460791D01*
X150545706Y-79405986D01*
X150360134Y-79179866D01*
X150134014Y-78994294D01*
X149876034Y-78856401D01*
X149596111Y-78771487D01*
X149377950Y-78750000D01*
X149232050Y-78750000D01*
X149013889Y-78771487D01*
X148733966Y-78856401D01*
X148475986Y-78994294D01*
X148249866Y-79179866D01*
X148064294Y-79405986D01*
X148029799Y-79470523D01*
X147960178Y-79353645D01*
X147765269Y-79137412D01*
X147531920Y-78963359D01*
X147269099Y-78838175D01*
X147121890Y-78793524D01*
X146892000Y-78914845D01*
X146892000Y-80108000D01*
X146912000Y-80108000D01*
X146912000Y-80362000D01*
X146892000Y-80362000D01*
X146892000Y-80382000D01*
X146638000Y-80382000D01*
X146638000Y-80362000D01*
X146618000Y-80362000D01*
X146618000Y-80108000D01*
X146638000Y-80108000D01*
X146638000Y-78914845D01*
X146408110Y-78793524D01*
X146260901Y-78838175D01*
X145998080Y-78963359D01*
X145764731Y-79137412D01*
X145569822Y-79353645D01*
X145500201Y-79470523D01*
X145465706Y-79405986D01*
X145280134Y-79179866D01*
X145054014Y-78994294D01*
X144796034Y-78856401D01*
X144516111Y-78771487D01*
X144297950Y-78750000D01*
X144152050Y-78750000D01*
X143933889Y-78771487D01*
X143653966Y-78856401D01*
X143395986Y-78994294D01*
X143169866Y-79179866D01*
X142984294Y-79405986D01*
X142955000Y-79460791D01*
X142925706Y-79405986D01*
X142740134Y-79179866D01*
X142514014Y-78994294D01*
X142256034Y-78856401D01*
X141976111Y-78771487D01*
X141757950Y-78750000D01*
X141612050Y-78750000D01*
X141393889Y-78771487D01*
X141113966Y-78856401D01*
X140855986Y-78994294D01*
X140629866Y-79179866D01*
X140444294Y-79405986D01*
X140415000Y-79460791D01*
X140385706Y-79405986D01*
X140200134Y-79179866D01*
X139974014Y-78994294D01*
X139716034Y-78856401D01*
X139436111Y-78771487D01*
X139217950Y-78750000D01*
X139072050Y-78750000D01*
X138853889Y-78771487D01*
X138573966Y-78856401D01*
X138315986Y-78994294D01*
X138089866Y-79179866D01*
X137904294Y-79405986D01*
X137875000Y-79460791D01*
X137845706Y-79405986D01*
X137660134Y-79179866D01*
X137434014Y-78994294D01*
X137176034Y-78856401D01*
X136896111Y-78771487D01*
X136677950Y-78750000D01*
X136532050Y-78750000D01*
X136313889Y-78771487D01*
X136033966Y-78856401D01*
X135775986Y-78994294D01*
X135549866Y-79179866D01*
X135364294Y-79405986D01*
X135329799Y-79470523D01*
X135260178Y-79353645D01*
X135065269Y-79137412D01*
X134831920Y-78963359D01*
X134569099Y-78838175D01*
X134421890Y-78793524D01*
X134192000Y-78914845D01*
X134192000Y-80108000D01*
X134212000Y-80108000D01*
X134212000Y-80362000D01*
X134192000Y-80362000D01*
X134192000Y-80382000D01*
X133938000Y-80382000D01*
X133938000Y-80362000D01*
X133918000Y-80362000D01*
X133918000Y-80108000D01*
X133938000Y-80108000D01*
X133938000Y-78914845D01*
X133708110Y-78793524D01*
X133560901Y-78838175D01*
X133298080Y-78963359D01*
X133064731Y-79137412D01*
X132869822Y-79353645D01*
X132800201Y-79470523D01*
X132765706Y-79405986D01*
X132580134Y-79179866D01*
X132354014Y-78994294D01*
X132096034Y-78856401D01*
X131816111Y-78771487D01*
X131597950Y-78750000D01*
X131452050Y-78750000D01*
X131233889Y-78771487D01*
X130953966Y-78856401D01*
X130695986Y-78994294D01*
X130469866Y-79179866D01*
X130284294Y-79405986D01*
X130249799Y-79470523D01*
X130180178Y-79353645D01*
X129985269Y-79137412D01*
X129751920Y-78963359D01*
X129489099Y-78838175D01*
X129341890Y-78793524D01*
X129112000Y-78914845D01*
X129112000Y-80108000D01*
X129132000Y-80108000D01*
X129132000Y-80362000D01*
X129112000Y-80362000D01*
X129112000Y-80382000D01*
X128858000Y-80382000D01*
X128858000Y-80362000D01*
X128838000Y-80362000D01*
X128838000Y-80108000D01*
X128858000Y-80108000D01*
X128858000Y-78914845D01*
X128628110Y-78793524D01*
X128480901Y-78838175D01*
X128218080Y-78963359D01*
X127984731Y-79137412D01*
X127789822Y-79353645D01*
X127720201Y-79470523D01*
X127685706Y-79405986D01*
X127500134Y-79179866D01*
X127274014Y-78994294D01*
X127016034Y-78856401D01*
X126736111Y-78771487D01*
X126517950Y-78750000D01*
X126372050Y-78750000D01*
X126153889Y-78771487D01*
X125873966Y-78856401D01*
X125615986Y-78994294D01*
X125389866Y-79179866D01*
X125204294Y-79405986D01*
X125175000Y-79460791D01*
X125145706Y-79405986D01*
X124960134Y-79179866D01*
X124734014Y-78994294D01*
X124476034Y-78856401D01*
X124196111Y-78771487D01*
X123977950Y-78750000D01*
X123832050Y-78750000D01*
X123613889Y-78771487D01*
X123333966Y-78856401D01*
X123075986Y-78994294D01*
X122849866Y-79179866D01*
X122664294Y-79405986D01*
X122635000Y-79460791D01*
X122605706Y-79405986D01*
X122420134Y-79179866D01*
X122194014Y-78994294D01*
X121936034Y-78856401D01*
X121656111Y-78771487D01*
X121437950Y-78750000D01*
X121292050Y-78750000D01*
X121073889Y-78771487D01*
X120793966Y-78856401D01*
X120535986Y-78994294D01*
X120309866Y-79179866D01*
X120124294Y-79405986D01*
X119986401Y-79663966D01*
X119901487Y-79943889D01*
X119872815Y-80235000D01*
X112685000Y-80235000D01*
X112685000Y-74904902D01*
X150511800Y-74904902D01*
X150511800Y-75195098D01*
X150568414Y-75479717D01*
X150679467Y-75747822D01*
X150840691Y-75989110D01*
X151045890Y-76194309D01*
X151287178Y-76355533D01*
X151555283Y-76466586D01*
X151839902Y-76523200D01*
X152130098Y-76523200D01*
X152414717Y-76466586D01*
X152682822Y-76355533D01*
X152924110Y-76194309D01*
X153129309Y-75989110D01*
X153255000Y-75801001D01*
X153380691Y-75989110D01*
X153585890Y-76194309D01*
X153827178Y-76355533D01*
X154095283Y-76466586D01*
X154379902Y-76523200D01*
X154670098Y-76523200D01*
X154954717Y-76466586D01*
X155222822Y-76355533D01*
X155464110Y-76194309D01*
X155588444Y-76069975D01*
X156224630Y-76069975D01*
X156300838Y-76317844D01*
X156562865Y-76442563D01*
X156844189Y-76513768D01*
X157133999Y-76528719D01*
X157421157Y-76486845D01*
X157694628Y-76389754D01*
X157829162Y-76317844D01*
X157905370Y-76069975D01*
X157065000Y-75229605D01*
X156224630Y-76069975D01*
X155588444Y-76069975D01*
X155669309Y-75989110D01*
X155792289Y-75805057D01*
X155797156Y-75814162D01*
X156045025Y-75890370D01*
X156885395Y-75050000D01*
X156045025Y-74209630D01*
X155797156Y-74285838D01*
X155792601Y-74295408D01*
X155669309Y-74110890D01*
X155588444Y-74030025D01*
X156224630Y-74030025D01*
X157065000Y-74870395D01*
X157905370Y-74030025D01*
X157829162Y-73782156D01*
X157567135Y-73657437D01*
X157285811Y-73586232D01*
X156996001Y-73571281D01*
X156708843Y-73613155D01*
X156435372Y-73710246D01*
X156300838Y-73782156D01*
X156224630Y-74030025D01*
X155588444Y-74030025D01*
X155464110Y-73905691D01*
X155222822Y-73744467D01*
X154954717Y-73633414D01*
X154670098Y-73576800D01*
X154379902Y-73576800D01*
X154095283Y-73633414D01*
X153827178Y-73744467D01*
X153585890Y-73905691D01*
X153380691Y-74110890D01*
X153255000Y-74298999D01*
X153129309Y-74110890D01*
X152924110Y-73905691D01*
X152682822Y-73744467D01*
X152414717Y-73633414D01*
X152130098Y-73576800D01*
X151839902Y-73576800D01*
X151555283Y-73633414D01*
X151287178Y-73744467D01*
X151045890Y-73905691D01*
X150840691Y-74110890D01*
X150679467Y-74352178D01*
X150568414Y-74620283D01*
X150511800Y-74904902D01*
X112685000Y-74904902D01*
X112685000Y-58779872D01*
X113765000Y-58779872D01*
X113765000Y-59220128D01*
X113850890Y-59651925D01*
X114019369Y-60058669D01*
X114263962Y-60424729D01*
X114575271Y-60736038D01*
X114941331Y-60980631D01*
X115348075Y-61149110D01*
X115779872Y-61235000D01*
X116220128Y-61235000D01*
X116651925Y-61149110D01*
X117058669Y-60980631D01*
X117424729Y-60736038D01*
X117736038Y-60424729D01*
X117980631Y-60058669D01*
X118149110Y-59651925D01*
X118235000Y-59220128D01*
X118235000Y-58779872D01*
X118149110Y-58348075D01*
X117980631Y-57941331D01*
X117736038Y-57575271D01*
X117424729Y-57263962D01*
X117216611Y-57124902D01*
X153051800Y-57124902D01*
X153051800Y-57415098D01*
X153108414Y-57699717D01*
X153219467Y-57967822D01*
X153380691Y-58209110D01*
X153585890Y-58414309D01*
X153827178Y-58575533D01*
X154095283Y-58686586D01*
X154379902Y-58743200D01*
X154670098Y-58743200D01*
X154954717Y-58686586D01*
X155222822Y-58575533D01*
X155464110Y-58414309D01*
X155669309Y-58209110D01*
X155795000Y-58021001D01*
X155920691Y-58209110D01*
X156125890Y-58414309D01*
X156367178Y-58575533D01*
X156635283Y-58686586D01*
X156919902Y-58743200D01*
X157210098Y-58743200D01*
X157494717Y-58686586D01*
X157762822Y-58575533D01*
X158004110Y-58414309D01*
X158209309Y-58209110D01*
X158335000Y-58021001D01*
X158460691Y-58209110D01*
X158665890Y-58414309D01*
X158907178Y-58575533D01*
X159175283Y-58686586D01*
X159459902Y-58743200D01*
X159750098Y-58743200D01*
X160034717Y-58686586D01*
X160302822Y-58575533D01*
X160544110Y-58414309D01*
X160749309Y-58209110D01*
X160875000Y-58021001D01*
X161000691Y-58209110D01*
X161205890Y-58414309D01*
X161447178Y-58575533D01*
X161715283Y-58686586D01*
X161999902Y-58743200D01*
X162290098Y-58743200D01*
X162574717Y-58686586D01*
X162842822Y-58575533D01*
X163084110Y-58414309D01*
X163289309Y-58209110D01*
X163450533Y-57967822D01*
X163561586Y-57699717D01*
X163618200Y-57415098D01*
X163618200Y-57124902D01*
X163561586Y-56840283D01*
X163450533Y-56572178D01*
X163289309Y-56330890D01*
X163084110Y-56125691D01*
X162842822Y-55964467D01*
X162574717Y-55853414D01*
X162290098Y-55796800D01*
X161999902Y-55796800D01*
X161715283Y-55853414D01*
X161447178Y-55964467D01*
X161205890Y-56125691D01*
X161000691Y-56330890D01*
X160875000Y-56518999D01*
X160749309Y-56330890D01*
X160544110Y-56125691D01*
X160302822Y-55964467D01*
X160034717Y-55853414D01*
X159750098Y-55796800D01*
X159459902Y-55796800D01*
X159175283Y-55853414D01*
X158907178Y-55964467D01*
X158665890Y-56125691D01*
X158460691Y-56330890D01*
X158335000Y-56518999D01*
X158209309Y-56330890D01*
X158004110Y-56125691D01*
X157762822Y-55964467D01*
X157494717Y-55853414D01*
X157210098Y-55796800D01*
X156919902Y-55796800D01*
X156635283Y-55853414D01*
X156367178Y-55964467D01*
X156125890Y-56125691D01*
X155920691Y-56330890D01*
X155795000Y-56518999D01*
X155669309Y-56330890D01*
X155464110Y-56125691D01*
X155222822Y-55964467D01*
X154954717Y-55853414D01*
X154670098Y-55796800D01*
X154379902Y-55796800D01*
X154095283Y-55853414D01*
X153827178Y-55964467D01*
X153585890Y-56125691D01*
X153380691Y-56330890D01*
X153219467Y-56572178D01*
X153108414Y-56840283D01*
X153051800Y-57124902D01*
X117216611Y-57124902D01*
X117058669Y-57019369D01*
X116651925Y-56850890D01*
X116220128Y-56765000D01*
X115779872Y-56765000D01*
X115348075Y-56850890D01*
X114941331Y-57019369D01*
X114575271Y-57263962D01*
X114263962Y-57575271D01*
X114019369Y-57941331D01*
X113850890Y-58348075D01*
X113765000Y-58779872D01*
X112685000Y-58779872D01*
X112685000Y-55685000D01*
X178315000Y-55685000D01*
X178315001Y-125315000D01*
M02*
